<?xml version="1.0" encoding="utf-8"?>
<!-- Generator: Adobe Illustrator 15.0.0, SVG Export Plug-In . SVG Version: 6.00 Build 0)  -->
<!DOCTYPE svg PUBLIC "-//W3C//DTD SVG 1.1//EN" "http://www.w3.org/Graphics/SVG/1.1/DTD/svg11.dtd">
<svg version="1.1" id="Layer_1" xmlns="http://www.w3.org/2000/svg" xmlns:xlink="http://www.w3.org/1999/xlink" x="0px" y="0px"
	 width="100px" height="100px" viewBox="0 0 100 100" enable-background="new 0 0 100 100" xml:space="preserve">
<g>
	<g id="XMLID_41_">
		<rect x="36.401" y="6.025" fill="#344154" width="14.466" height="2.582"/>
	</g>
	<g id="XMLID_40_">
		<path fill="#344154" d="M51.562,100.08H12.873c-3.897,0-7.068-3.171-7.068-7.069V7.295c0-3.897,3.171-7.068,7.068-7.068h61.522
			c3.897,0,7.069,3.171,7.069,7.068v27.477c0,0.713-0.578,1.291-1.291,1.291s-1.291-0.578-1.291-1.291V7.295
			c0-2.474-2.014-4.487-4.487-4.487H12.873c-2.474,0-4.487,2.013-4.487,4.487v85.716c0,2.475,2.013,4.488,4.487,4.488h38.689
			c0.713,0,1.291,0.578,1.291,1.29C52.854,99.502,52.275,100.08,51.562,100.08z"/>
	</g>
	<g id="XMLID_39_">
		<rect x="36.401" y="91.699" fill="#344154" width="14.466" height="2.582"/>
	</g>
	<g id="XMLID_38_">
		<path fill="#344154" d="M80.174,14.406H7.096c-0.713,0-1.291-0.578-1.291-1.291c0-0.713,0.578-1.291,1.291-1.291h73.078
			c0.713,0,1.291,0.578,1.291,1.291C81.465,13.828,80.887,14.406,80.174,14.406z"/>
	</g>
	<g id="XMLID_37_">
		<path fill="#344154" d="M50.868,88.481H7.096c-0.713,0-1.291-0.578-1.291-1.291c0-0.712,0.578-1.29,1.291-1.29h43.772
			c0.712,0,1.291,0.578,1.291,1.29C52.158,87.903,51.58,88.481,50.868,88.481z"/>
	</g>
	<g id="XMLID_36_">
		<path fill="#F5AB35" d="M22.282,31.135h-4.419c-1.535,0-2.779-1.244-2.779-2.779v-4.419c0-1.535,1.244-2.779,2.779-2.779h4.419
			c1.535,0,2.779,1.244,2.779,2.779v4.419C25.061,29.891,23.816,31.135,22.282,31.135z"/>
	</g>
	<g id="XMLID_35_">
		<path fill="#F5AB35" d="M37.745,31.135h-4.419c-1.535,0-2.779-1.244-2.779-2.779v-4.419c0-1.535,1.244-2.779,2.779-2.779h4.419
			c1.535,0,2.779,1.244,2.779,2.779v4.419C40.524,29.891,39.28,31.135,37.745,31.135z"/>
	</g>
	<g id="XMLID_34_">
		<path fill="#F5AB35" d="M53.209,31.135H48.79c-1.535,0-2.779-1.244-2.779-2.779v-4.419c0-1.535,1.244-2.779,2.779-2.779h4.419
			c1.535,0,2.779,1.244,2.779,2.779v4.419C55.988,29.891,54.744,31.135,53.209,31.135z"/>
	</g>
	<g id="XMLID_33_">
		<path fill="#F5AB35" d="M22.282,47.269h-4.419c-1.535,0-2.779-1.244-2.779-2.778v-4.419c0-1.534,1.244-2.778,2.779-2.778h4.419
			c1.535,0,2.779,1.244,2.779,2.778v4.419C25.061,46.025,23.816,47.269,22.282,47.269z"/>
	</g>
	<g id="XMLID_32_">
		<path fill="#F5AB35" d="M37.745,47.269h-4.419c-1.535,0-2.779-1.244-2.779-2.778v-4.419c0-1.534,1.244-2.778,2.779-2.778h4.419
			c1.535,0,2.779,1.244,2.779,2.778v4.419C40.524,46.025,39.28,47.269,37.745,47.269z"/>
	</g>
	<g id="XMLID_31_">
		<path fill="#F5AB35" d="M22.282,63.403h-4.419c-1.535,0-2.779-1.244-2.779-2.779v-4.418c0-1.536,1.244-2.779,2.779-2.779h4.419
			c1.535,0,2.779,1.243,2.779,2.779v4.419C25.061,62.159,23.816,63.403,22.282,63.403z"/>
	</g>
	<g id="XMLID_30_">
		<path fill="#F5AB35" d="M37.745,63.403h-4.419c-1.535,0-2.779-1.244-2.779-2.779v-4.418c0-1.536,1.244-2.779,2.779-2.779h4.419
			c1.535,0,2.779,1.243,2.779,2.779v4.419C40.524,62.159,39.28,63.403,37.745,63.403z"/>
	</g>
	<g>
		<g>
			<path fill="#344154" d="M70.336,50.842c-0.712,0-1.29-0.578-1.29-1.291v-9.625c0-0.713,0.578-1.291,1.29-1.291h3.769
				c2.789,0,5.059,2.27,5.059,5.059c0,0.713-0.578,1.291-1.29,1.291c-0.713,0-1.291-0.578-1.291-1.291
				c0-1.366-1.111-2.478-2.478-2.478h-2.478v8.334C71.627,50.264,71.049,50.842,70.336,50.842z"/>
		</g>
		<g>
			<path fill="#344154" d="M88.315,83.418H72.128c-0.713,0-1.291-0.579-1.291-1.291c0-0.713,0.578-1.291,1.291-1.291H87.28
				c0.179-0.74,0.46-1.815,0.853-3.034c2.136-6.634,3.312-13.584,3.497-20.657c0.019-0.713,0.623-1.307,1.324-1.257
				c0.713,0.019,1.275,0.611,1.256,1.324c-0.19,7.319-1.409,14.514-3.62,21.382c-0.677,2.101-1.005,3.764-1.008,3.781
				C89.463,82.98,88.933,83.418,88.315,83.418z"/>
		</g>
		<g>
			<path fill="#344154" d="M64.138,83.417c-0.614,0.001-1.159-0.44-1.27-1.066c-0.012-0.066-1.23-6.729-5.548-11.554
				c-1.19-1.33-2.319-2.883-3.356-4.616c-2.416-4.038-3.692-8.715-3.692-13.523c0-3.176,2.583-5.759,5.759-5.759
				c2.366,0,4.525,1.484,5.375,3.692l0.103,0.27V29.915c0-2.79,2.271-5.059,5.06-5.059s5.059,2.269,5.059,5.059v10.011
				c0,0.713-0.578,1.291-1.291,1.291c-0.712,0-1.29-0.578-1.29-1.291V29.915c0-1.366-1.111-2.477-2.478-2.477
				s-2.478,1.111-2.478,2.477v27.899c0,0.621-0.443,1.155-1.056,1.269c-0.611,0.115-1.217-0.226-1.44-0.806l-2.599-6.761
				c-0.469-1.218-1.66-2.037-2.965-2.037c-1.753,0-3.178,1.425-3.178,3.177c0,4.343,1.15,8.561,3.326,12.197
				c0.953,1.593,1.984,3.013,3.064,4.222c4.821,5.388,6.114,12.527,6.167,12.829c0.122,0.701-0.347,1.368-1.048,1.492
				C64.287,83.411,64.213,83.417,64.138,83.417z"/>
		</g>
		<g>
			<path fill="#344154" d="M85.409,56.926c-0.713,0-1.291-0.578-1.291-1.291v-9.125c0-1.366-1.11-2.478-2.478-2.478h-2.478v8.334
				c0,0.713-0.578,1.291-1.29,1.291c-0.713,0-1.291-0.578-1.291-1.291v-9.625c0-0.713,0.578-1.291,1.291-1.291h3.768
				c2.789,0,5.06,2.27,5.06,5.059v9.125C86.7,56.348,86.122,56.926,85.409,56.926z"/>
		</g>
		<g>
			<path fill="#344154" d="M92.945,58.469c-0.713,0-1.291-0.578-1.291-1.291v-5.855c0-1.366-1.11-2.478-2.477-2.478h-3.769
				c-0.713,0-1.291-0.578-1.291-1.291s0.578-1.291,1.291-1.291h3.769c2.789,0,5.059,2.27,5.059,5.06v5.855
				C94.236,57.891,93.658,58.469,92.945,58.469z"/>
		</g>
	</g>
	<g>
		<path fill="#344154" d="M90.399,100.08H61.179c-0.713,0-1.291-0.578-1.291-1.291V87.19c0-0.712,0.578-1.29,1.291-1.29h29.221
			c0.713,0,1.291,0.578,1.291,1.29v11.599C91.69,99.502,91.112,100.08,90.399,100.08z M62.47,97.499h26.639v-9.018H62.47V97.499z"/>
	</g>
	<g>
		<path fill="#344154" d="M83.904,95.372c-1.313,0-2.383-1.068-2.383-2.382s1.069-2.383,2.383-2.383s2.382,1.069,2.382,2.383
			S85.218,95.372,83.904,95.372z M83.904,92.791c-0.11,0-0.199,0.089-0.199,0.199c0,0.22,0.398,0.22,0.398,0
			C84.104,92.88,84.014,92.791,83.904,92.791z"/>
	</g>
</g>
</svg>
