<?xml version="1.0" encoding="utf-8"?>
<!-- Generator: Adobe Illustrator 15.0.0, SVG Export Plug-In . SVG Version: 6.00 Build 0)  -->
<!DOCTYPE svg PUBLIC "-//W3C//DTD SVG 1.1//EN" "http://www.w3.org/Graphics/SVG/1.1/DTD/svg11.dtd">
<svg version="1.1" id="Layer_1" xmlns="http://www.w3.org/2000/svg" xmlns:xlink="http://www.w3.org/1999/xlink" x="0px" y="0px"
	 width="100px" height="100px" viewBox="0 0 100 100" enable-background="new 0 0 100 100" xml:space="preserve">
<g>
	<g>
		<polygon fill="#F5AB35" points="76,48.014 73.577,48.014 73.577,30.6 26.175,30.6 26.175,48.014 23.753,48.014 23.753,28.178 
			76,28.178 		"/>
	</g>
	<g>
		<polygon fill="#344154" points="49.875,62.127 49.324,61.845 0.659,36.933 1.763,34.776 49.875,59.406 97.987,34.776 
			99.093,36.933 		"/>
	</g>
	<g>
		<path fill="#344154" d="M95.69,98.477H4.062C1.822,98.477,0,96.654,0,94.413V35.207L49.875,1.885l49.876,33.322v59.206
			C99.751,96.654,97.929,98.477,95.69,98.477z M2.422,36.501v57.912c0,0.905,0.735,1.641,1.639,1.641H95.69
			c0.904,0,1.639-0.735,1.639-1.641V36.501L49.875,4.798L2.422,36.501z"/>
	</g>
	<g>
		<g>
			<path fill="#344154" d="M49.875,69.573c-1.09,0-2.178-0.263-3.147-0.759l-12.122-6.205c-0.595-0.306-0.831-1.034-0.526-1.631
				c0.306-0.596,1.037-0.83,1.63-0.525l12.122,6.205c1.259,0.646,2.833,0.645,4.088,0l12.121-6.205
				c0.596-0.305,1.326-0.07,1.631,0.525c0.305,0.597,0.068,1.325-0.526,1.631l-12.122,6.205
				C52.057,69.311,50.967,69.573,49.875,69.573z"/>
		</g>
	</g>
	<g>
		<rect x="35.79" y="37.177" fill="#F5AB35" width="28.171" height="2.422"/>
	</g>
	<g>
		<rect x="35.791" y="44.579" fill="#F5AB35" width="28.17" height="2.422"/>
	</g>
	<g>
		<path fill="#F5AB35" d="M93.924,92.646c0-4.84,0-9.681,0-14.521c-28.954,6.952-59.142,6.952-88.094,0c0,4.84,0,9.681,0,14.521
			C35.194,92.646,64.559,92.646,93.924,92.646z"/>
	</g>
</g>
</svg>
