<?xml version="1.0" encoding="utf-8"?>
<!-- Generator: Adobe Illustrator 15.0.0, SVG Export Plug-In . SVG Version: 6.00 Build 0)  -->
<!DOCTYPE svg PUBLIC "-//W3C//DTD SVG 1.1//EN" "http://www.w3.org/Graphics/SVG/1.1/DTD/svg11.dtd">
<svg version="1.1" id="Layer_1" xmlns="http://www.w3.org/2000/svg" xmlns:xlink="http://www.w3.org/1999/xlink" x="0px" y="0px"
	 width="493.545px" height="204.829px" viewBox="0 0 493.545 204.829" enable-background="new 0 0 493.545 204.829"
	 xml:space="preserve">
<g id="XMLID_168_">
	<path fill="#414042" d="M187.567,83.143h-2.321c-0.063-0.025-0.531-0.255-0.81-0.392c-0.837-0.413-2.106-1.036-2.106-2.474
		c0-1.439,1.269-2.062,2.106-2.475c0.213-0.105,0.538-0.263,0.721-0.392c-0.184-0.127-0.506-0.285-0.719-0.391
		c-0.84-0.411-2.108-1.033-2.108-2.473c0-1.436,1.269-2.059,2.106-2.47c0.279-0.137,0.747-0.367,0.842-0.498l2.289,0.106
		c0,1.44-1.269,2.062-2.109,2.474c-0.212,0.104-0.532,0.261-0.717,0.389c0.185,0.127,0.506,0.283,0.719,0.389
		c0.84,0.411,2.107,1.034,2.107,2.472c0,1.44-1.267,2.062-2.107,2.474c-0.214,0.105-0.538,0.264-0.719,0.393
		c0.182,0.127,0.505,0.286,0.719,0.391C186.299,81.081,187.567,81.704,187.567,83.143z"/>
</g>
<g id="XMLID_268_">
	<path fill="#414042" d="M81.491,62.921h-2.32c-0.064-0.026-0.531-0.255-0.81-0.393c-0.839-0.412-2.106-1.034-2.106-2.474
		c0-1.438,1.267-2.06,2.106-2.473c0.212-0.106,0.536-0.265,0.719-0.392c-0.183-0.129-0.505-0.285-0.717-0.391
		c-0.84-0.411-2.108-1.034-2.108-2.472c0-1.438,1.269-2.061,2.107-2.474c0.279-0.135,0.746-0.366,0.841-0.496l2.289,0.108
		c0,1.438-1.268,2.06-2.107,2.472c-0.213,0.104-0.535,0.262-0.717,0.389c0.183,0.128,0.504,0.285,0.717,0.391
		c0.84,0.411,2.107,1.033,2.107,2.471c0,1.44-1.268,2.063-2.107,2.475c-0.213,0.106-0.538,0.265-0.719,0.392
		c0.182,0.128,0.506,0.287,0.719,0.393C80.224,60.859,81.491,61.481,81.491,62.921z"/>
</g>
<g id="XMLID_275_">
	<path fill="#414042" d="M326.796,68.649h-2.321c-0.063-0.025-0.53-0.256-0.81-0.393c-0.84-0.413-2.106-1.034-2.106-2.474
		c0-1.438,1.267-2.061,2.106-2.473c0.214-0.106,0.536-0.265,0.718-0.391c-0.182-0.128-0.503-0.286-0.717-0.391
		c-0.841-0.411-2.107-1.034-2.107-2.474c0-1.438,1.267-2.06,2.107-2.471c0.278-0.138,0.745-0.366,0.841-0.497l2.289,0.107
		c0,1.438-1.268,2.061-2.108,2.471c-0.213,0.106-0.535,0.263-0.717,0.39c0.182,0.128,0.506,0.286,0.718,0.391
		c0.84,0.411,2.107,1.034,2.107,2.472c0,1.44-1.268,2.062-2.108,2.474c-0.213,0.106-0.537,0.265-0.72,0.391
		c0.183,0.129,0.507,0.288,0.721,0.394C325.529,66.586,326.796,67.209,326.796,68.649z"/>
</g>
<g id="XMLID_267_">
	<path fill="#414042" d="M432.821,92.426H430.5c-0.062-0.025-0.528-0.255-0.808-0.394c-0.839-0.411-2.106-1.034-2.106-2.474
		s1.268-2.062,2.106-2.474c0.214-0.106,0.535-0.264,0.719-0.391c-0.184-0.127-0.507-0.286-0.719-0.391
		c-0.839-0.411-2.106-1.034-2.106-2.472s1.268-2.061,2.106-2.472c0.279-0.137,0.745-0.365,0.841-0.496l2.288,0.107
		c0,1.438-1.268,2.06-2.106,2.471c-0.212,0.104-0.535,0.263-0.717,0.39c0.182,0.126,0.505,0.285,0.717,0.389
		c0.839,0.411,2.106,1.034,2.106,2.474c0,1.438-1.268,2.06-2.106,2.473c-0.215,0.105-0.536,0.265-0.72,0.393
		c0.182,0.127,0.505,0.288,0.72,0.392C431.553,90.364,432.821,90.986,432.821,92.426z"/>
</g>
<g id="XMLID_212_">
	<g id="XMLID_216_">
		<rect x="63.316" y="104.754" fill="#414042" width="8.228" height="2.319"/>
	</g>
	<g id="XMLID_213_">
		<rect x="66.269" y="101.8" fill="#414042" width="2.321" height="8.228"/>
	</g>
</g>
<g id="XMLID_276_">
	<g id="XMLID_278_">
		<rect x="121.382" y="62.007" fill="#414042" width="8.229" height="2.32"/>
	</g>
	<g id="XMLID_277_">
		<rect x="124.336" y="59.052" fill="#414042" width="2.32" height="8.228"/>
	</g>
</g>
<g id="XMLID_272_">
	<g id="XMLID_274_">
		<rect x="10.788" y="67.98" fill="#414042" width="8.228" height="2.32"/>
	</g>
	<g id="XMLID_273_">
		<rect x="13.742" y="65.026" fill="#414042" width="2.32" height="8.227"/>
	</g>
</g>
<g id="XMLID_269_">
	<g id="XMLID_271_">
		<rect x="377.908" y="35.634" fill="#414042" width="8.227" height="2.321"/>
	</g>
	<g id="XMLID_270_">
		<rect x="380.86" y="32.682" fill="#414042" width="2.319" height="8.229"/>
	</g>
</g>
<g id="XMLID_264_">
	<g id="XMLID_266_">
		<rect x="267.483" y="76.255" fill="#414042" width="8.228" height="2.32"/>
	</g>
	<g id="XMLID_265_">
		<rect x="270.438" y="73.301" fill="#414042" width="2.32" height="8.229"/>
	</g>
</g>
<g id="XMLID_162_">
	<g id="XMLID_111_">
		<rect x="183.695" y="31.697" fill="#414042" width="7.943" height="2.32"/>
	</g>
	<g id="XMLID_110_">
		<rect x="186.506" y="28.885" fill="#414042" width="2.321" height="7.945"/>
	</g>
</g>
<g id="XMLID_174_">
	<rect x="142.531" y="21.147" fill="#414042" width="49.961" height="2.319"/>
</g>
<g id="XMLID_194_">
	<rect x="274.215" y="35.634" fill="#414042" width="49.961" height="2.321"/>
</g>
<g id="XMLID_109_">
	<rect x="133.215" y="31.697" fill="#414042" width="40.441" height="2.32"/>
</g>
<g id="XMLID_207_">
	<rect x="176.573" y="31.697" fill="#414042" width="3.465" height="2.32"/>
</g>
<g id="XMLID_178_">
	<g id="XMLID_263_">
		<rect x="275.398" y="24.468" fill="#414042" width="7.945" height="2.319"/>
	</g>
	<g id="XMLID_191_">
		<rect x="278.21" y="21.657" fill="#414042" width="2.32" height="7.943"/>
	</g>
</g>
<g id="XMLID_177_">
	<rect x="293.379" y="24.468" fill="#414042" width="40.442" height="2.319"/>
</g>
<g id="XMLID_176_">
	<rect x="287" y="24.468" fill="#414042" width="3.466" height="2.319"/>
</g>
<g id="XMLID_190_">
	<rect x="135.215" y="21.147" fill="#414042" width="3.465" height="2.319"/>
</g>
<g id="XMLID_197_">
	<rect x="329.927" y="35.634" fill="#414042" width="3.463" height="2.321"/>
</g>
<g id="XMLID_474_">
	<rect id="XMLID_259_" x="418.292" y="111.387" fill="#FFFFFF" width="62.728" height="92.041"/>
	<g id="XMLID_262_">
		<polygon fill="#414042" points="482.178,178.525 479.857,178.525 479.857,112.546 419.451,112.546 419.451,152.583 
			417.13,152.583 417.13,110.228 482.178,110.228 		"/>
	</g>
	<g id="XMLID_258_">
		<rect id="XMLID_482_" x="450.973" y="123.7" fill="#414042" width="22.975" height="2.61"/>
	</g>
	<g id="XMLID_257_">
		<rect id="XMLID_481_" x="450.973" y="132.956" fill="#414042" width="22.975" height="2.613"/>
	</g>
	<g id="XMLID_256_">
		<rect id="XMLID_480_" x="450.973" y="142.215" fill="#414042" width="22.975" height="2.61"/>
	</g>
	<g id="XMLID_255_">
		<rect id="XMLID_479_" x="427.74" y="151.475" fill="#414042" width="46.208" height="2.609"/>
	</g>
	<g id="XMLID_254_">
		<rect id="XMLID_478_" x="427.74" y="160.73" fill="#414042" width="46.208" height="2.609"/>
	</g>
	<g id="XMLID_246_">
		<rect id="XMLID_253_" x="427.74" y="169.989" fill="#414042" width="46.208" height="2.609"/>
	</g>
	<g id="XMLID_244_">
		<rect id="XMLID_245_" x="427.74" y="179.246" fill="#414042" width="46.208" height="2.609"/>
	</g>
	<g id="XMLID_240_">
		<rect id="XMLID_475_" x="427.74" y="188.505" fill="#414042" width="21.913" height="2.61"/>
	</g>
	<rect id="XMLID_234_" x="426.87" y="122.438" fill="#F5AB35" width="20.891" height="23.649"/>
</g>
<g id="XMLID_458_">
	<path id="XMLID_473_" fill="#FFFFFF" d="M10.481,117.896v87.688H1.161v-87.688l4.411-11.595c0.087-0.229,0.412-0.229,0.499,0
		L10.481,117.896z"/>
	<rect id="XMLID_471_" x="1.161" y="117.896" fill="#F5AB35" width="9.321" height="87.688"/>
	<rect id="XMLID_469_" x="1.161" y="117.896" fill="#F9CD86" width="4.66" height="87.688"/>
	<rect id="XMLID_468_" x="0.904" y="194.721" fill="#FFFFFF" width="9.834" height="10.88"/>
	<g id="XMLID_260_">
		<path fill="#414042" d="M2.32,205.312H0v-87.629l4.487-11.794c0.214-0.561,0.737-0.919,1.333-0.919
			c0.597,0,1.12,0.358,1.333,0.915l4.488,12.012v55.621H9.322v-55.409l-3.501-9.2l-3.5,9.2V205.312z"/>
	</g>
	<g id="XMLID_465_">
		<rect x="1.746" y="116.736" fill="#414042" width="8.149" height="2.319"/>
	</g>
	<g>
		<rect x="2.017" y="193.562" fill="#414042" width="5.316" height="2.32"/>
	</g>
</g>
<g id="XMLID_485_">
	<rect id="XMLID_498_" x="25.758" y="104.271" fill="#D1D3D4" width="20.786" height="100.116"/>
	<rect id="XMLID_497_" x="37.294" y="104.271" fill="#FFFFFF" width="9.25" height="100.116"/>
	<g id="XMLID_496_">
		<rect x="40.158" y="120.589" fill="#414042" width="6.386" height="2.32"/>
	</g>
	<g id="XMLID_232_">
		<rect x="40.158" y="107.558" fill="#414042" width="6.386" height="2.32"/>
	</g>
	<g id="XMLID_494_">
		<rect x="40.158" y="133.622" fill="#414042" width="6.386" height="2.318"/>
	</g>
	<g id="XMLID_493_">
		<rect x="40.158" y="146.653" fill="#414042" width="6.386" height="2.32"/>
	</g>
	<g id="XMLID_231_">
		<rect x="40.158" y="159.686" fill="#414042" width="6.386" height="2.319"/>
	</g>
	<g id="XMLID_136_">
		<rect x="40.158" y="185.75" fill="#414042" width="6.386" height="2.321"/>
	</g>
	<g id="XMLID_490_">
		<rect x="40.158" y="172.717" fill="#414042" width="6.386" height="2.32"/>
	</g>
	<g id="XMLID_489_">
		<rect x="40.158" y="198.782" fill="#414042" width="6.386" height="2.321"/>
	</g>
	<g id="XMLID_261_">
		<polygon fill="#414042" points="26.918,168.239 24.598,168.239 24.598,103.112 47.705,103.112 47.705,155.388 45.385,155.388 
			45.385,105.432 26.918,105.432 		"/>
	</g>
</g>
<g>
	<path fill="#FFFFFF" d="M233.743,87.841c2.209-0.64,3.482-2.935,2.846-5.136l0,0c-0.633-2.215-2.942-3.479-5.137-2.849
		l-14.457,4.167c-2.208,0.626-3.483,2.937-2.848,5.137l0,0c0.644,2.212,2.935,3.477,5.149,2.843L233.743,87.841z"/>
	<path fill="#FFFFFF" d="M238.115,96.774c2.209-0.637,3.483-2.939,2.843-5.145l0,0c-0.636-2.208-2.936-3.476-5.139-2.842
		l-14.456,4.165c-2.2,0.636-3.482,2.938-2.846,5.146l0,0c0.64,2.204,2.944,3.474,5.146,2.835L238.115,96.774z"/>
	<path fill="#FFFFFF" d="M240.43,105.527c2.196-0.635,3.478-2.937,2.84-5.139l0,0c-0.64-2.21-2.936-3.481-5.138-2.848l-14.453,4.173
		c-2.208,0.629-3.484,2.935-2.852,5.14l0,0c0.639,2.205,2.942,3.47,5.145,2.84L240.43,105.527z"/>
	<g>
		<path fill="#414042" d="M218.154,93.324c-2.31,0.002-4.445-1.515-5.122-3.838c-0.394-1.367-0.231-2.805,0.46-4.049
			c0.689-1.244,1.82-2.141,3.185-2.529l2.408-0.693l0.642,2.23l-2.411,0.695c-0.771,0.218-1.408,0.723-1.796,1.423
			c-0.389,0.701-0.481,1.51-0.259,2.277c0.461,1.583,2.125,2.502,3.714,2.05l2.733-0.788l0.644,2.23l-2.735,0.788
			C219.129,93.257,218.637,93.324,218.154,93.324z"/>
	</g>
	<g>
		<path fill="#414042" d="M222.511,102.258c-2.304,0-4.433-1.513-5.109-3.836c-0.812-2.819,0.821-5.773,3.639-6.585l0.644,2.229
			c-1.59,0.458-2.51,2.123-2.054,3.712c0.46,1.583,2.121,2.499,3.709,2.041l0.646,2.229
			C223.495,102.19,222.999,102.258,222.511,102.258z"/>
	</g>
	<g>
		<path fill="#414042" d="M224.827,111.013c-2.308,0-4.441-1.515-5.114-3.836c-0.393-1.369-0.228-2.807,0.464-4.05
			c0.689-1.242,1.82-2.142,3.184-2.529l0.636,2.233c-0.768,0.217-1.405,0.723-1.792,1.423c-0.39,0.699-0.483,1.511-0.262,2.279
			c0.458,1.582,2.125,2.499,3.709,2.044l0.639,2.23C225.803,110.948,225.311,111.013,224.827,111.013z"/>
	</g>
	<polygon fill="#FFFFFF" points="250.585,124.689 250.324,114.812 254.908,92.713 243.534,77.415 234.123,79.695 228.464,111.79 
		229.214,124.806 	"/>
	<g>
		<polygon fill="#414042" points="228.091,125.973 227.305,101.98 229.623,101.904 230.336,123.642 249.395,123.535 
			249.161,114.709 253.666,92.988 243.076,78.742 239.827,79.618 239.223,77.379 243.994,76.089 256.15,92.438 251.487,114.917 
			251.777,125.846 		"/>
	</g>
	<g id="XMLID_61_">
		<g id="XMLID_434_">
			<rect x="229.709" y="57.193" fill="#414042" width="2.321" height="11.947"/>
		</g>
		<path id="XMLID_431_" fill="#414042" d="M202.033,29.835c0.001,15.926,12.91,28.836,28.835,28.836s28.836-12.91,28.836-28.836
			C259.705,13.911,246.794,1,230.87,1C214.943,1,202.033,13.911,202.033,29.835z M205.242,29.835
			c0-14.152,11.474-25.627,25.626-25.627c14.153,0,25.628,11.475,25.628,25.627c0,14.154-11.475,25.627-25.628,25.627
			C216.716,55.462,205.242,43.99,205.242,29.835z"/>
		<path id="XMLID_429_" fill="#F5AB35" d="M236.565,65.62l0,45.198c0,3.133-2.562,5.697-5.696,5.697V65.62H236.565z"/>
		<path id="XMLID_428_" fill="#F9CD86" d="M230.869,65.62v50.896c-3.132,0-5.695-2.564-5.695-5.697V65.62H230.869z"/>
		<g>
			<path fill="#414042" d="M230.869,117.675c-3.78,0-6.855-3.074-6.855-6.856V64.46h13.712v17.771h-2.319V66.78h-9.072v44.038
				c0,2.502,2.034,4.536,4.535,4.536V117.675z"/>
		</g>
		<g id="XMLID_236_">
			<path fill="#414042" d="M244.702,61.536l-0.879-2.148c0.399-0.163,0.798-0.333,1.195-0.513l0.958,2.111
				C245.554,61.177,245.128,61.36,244.702,61.536z M247.421,60.288l-1.063-2.063c0.442-0.227,0.879-0.466,1.312-0.715l1.157,2.012
				C248.364,59.789,247.894,60.043,247.421,60.288z M250.198,58.685l-1.259-1.948c0.416-0.271,0.83-0.549,1.235-0.839l1.348,1.888
				C251.086,58.098,250.645,58.397,250.198,58.685z M252.801,56.829l-1.428-1.827c0.387-0.304,0.77-0.621,1.145-0.948l1.522,1.752
				C253.633,56.158,253.22,56.501,252.801,56.829z M255.224,54.725l-1.604-1.673c0.177-0.171,0.353-0.344,0.529-0.519
				c0.177-0.178,0.353-0.356,0.527-0.54l1.68,1.602c-0.187,0.195-0.376,0.388-0.567,0.579
				C255.602,54.36,255.415,54.544,255.224,54.725z M257.431,52.41l-1.753-1.523c0.329-0.376,0.645-0.759,0.95-1.147l1.825,1.434
				C258.124,51.592,257.784,52.003,257.431,52.41z M259.416,49.891l-1.891-1.341c0.287-0.408,0.566-0.82,0.834-1.239l1.952,1.257
				C260.024,49.013,259.725,49.456,259.416,49.891z M261.146,47.199l-2.01-1.161c0.25-0.43,0.485-0.869,0.713-1.309l2.063,1.063
				C261.667,46.267,261.412,46.734,261.146,47.199z M262.611,44.345l-2.114-0.952c0.177-0.392,0.348-0.787,0.507-1.183l0.08-0.196
				l2.154,0.861l-0.084,0.211C262.983,43.506,262.8,43.925,262.611,44.345z M263.795,41.374l-2.197-0.753
				c0.163-0.471,0.313-0.947,0.45-1.422l2.23,0.646C264.128,40.357,263.967,40.866,263.795,41.374z M264.688,38.297l-2.258-0.544
				c0.116-0.482,0.22-0.968,0.312-1.455l2.282,0.429C264.921,37.253,264.813,37.775,264.688,38.297z M265.28,35.149l-2.296-0.327
				c0.07-0.491,0.125-0.985,0.171-1.479l2.312,0.212C265.419,34.088,265.358,34.618,265.28,35.149z M265.573,31.958l-2.317-0.104
				c0.021-0.462,0.031-0.924,0.031-1.386l1.697-0.081l0.621,0.034C265.608,30.964,265.597,31.459,265.573,31.958z M263.247,28.873
				c-0.024-0.497-0.062-0.992-0.11-1.488l2.307-0.229c0.054,0.532,0.092,1.064,0.123,1.597L263.247,28.873z M262.953,25.902
				c-0.069-0.491-0.153-0.98-0.252-1.468l2.278-0.448c0.104,0.524,0.192,1.053,0.271,1.583L262.953,25.902z M262.379,22.982
				c-0.117-0.485-0.249-0.964-0.388-1.442l2.224-0.66c0.151,0.512,0.29,1.028,0.419,1.546L262.379,22.982z M261.53,20.118
				c-0.163-0.466-0.338-0.93-0.525-1.391l2.149-0.873c0.201,0.497,0.392,0.997,0.566,1.503L261.53,20.118z"/>
		</g>
		<polygon id="XMLID_79_" fill="#F5AB35" points="230.005,28.017 230.014,28.008 229.996,28.008 		"/>
		<path id="XMLID_78_" fill="#FFFFFF" d="M214.42,12.587l16.435,16.435h0.017l23.226,0.032c0.006-5.937-2.249-11.875-6.763-16.415
			c-0.015-0.017-0.029-0.035-0.045-0.052C238.213,3.512,223.496,3.512,214.42,12.587z"/>
		<path id="XMLID_74_" fill="#F5AB35" d="M206.815,29.791c-0.007,5.944,2.252,11.892,6.776,16.433l16.474-16.395l-0.009-0.008
			l-16.435-16.435C209.091,17.917,206.823,23.852,206.815,29.791z"/>
		<path id="XMLID_73_" fill="#414042" d="M230.872,30.62l-0.008,0.009L214.39,47.021c0.01,0.011,0.02,0.023,0.03,0.034
			c9.076,9.077,23.793,9.077,32.87,0c4.53-4.531,6.797-10.465,6.808-16.403L230.872,30.62z"/>
	</g>
	<path fill="#FFFFFF" d="M241.789,107.049c1.027,2.971-0.356,6.342-3.081,7.537l0,0c-2.737,1.198-5.784-0.231-6.809-3.199
		l-9.525-27.413c-1.039-2.972,0.346-6.34,3.074-7.54l0,0c2.732-1.201,5.774,0.239,6.813,3.202L241.789,107.049z"/>
	<path fill="#FFFFFF" d="M245.598,113.479c-0.024,5.859-1.104,10.582-6.072,10.56h-5.809c-4.978-0.018-6.141-4.772-6.114-10.63
		l0.019-4.823c0.023-5.858,4.071-10.577,9.049-10.556l0,0c4.968,0.016,8.971,4.771,8.947,10.627L245.598,113.479z"/>
	<g>
		<path fill="#414042" d="M230.804,111.767l-9.525-27.412c-1.228-3.516,0.433-7.546,3.703-8.982
			c1.567-0.689,3.285-0.696,4.834-0.024c1.629,0.706,2.918,2.129,3.54,3.904l6.493,18.69l-2.19,0.762l-6.493-18.688
			c-0.414-1.18-1.221-2.083-2.274-2.539c-0.951-0.415-2.008-0.408-2.977,0.019c-2.187,0.96-3.284,3.695-2.444,6.096l9.524,27.415
			L230.804,111.767z"/>
	</g>
	<g>
		<polygon fill="#414042" points="228.091,125.973 227.305,101.98 229.623,101.904 230.336,123.642 250.581,123.53 250.59,125.852 
					"/>
	</g>
	<rect x="225.173" y="122.608" fill="#F5AB35" width="31.323" height="81.779"/>
	<rect x="236.753" y="122.608" fill="#F7BC5D" width="19.744" height="81.779"/>
	<g>
		<polygon fill="#414042" points="257.657,204.388 255.337,204.388 255.337,123.767 226.334,123.767 226.334,204.388 
			224.013,204.388 224.013,121.447 257.657,121.447 		"/>
	</g>
</g>
<g>
	<rect id="XMLID_185_" x="286.549" y="83.245" fill="#FFFFFF" width="121.538" height="95.385"/>
	<rect id="XMLID_183_" x="284.057" y="83.014" fill="#D1D3D4" width="126.238" height="8.614"/>
	<rect id="XMLID_182_" x="284.057" y="83.014" fill="#F1F2F2" width="126.238" height="4.308"/>
	<g id="XMLID_181_">
		<path fill="#414042" d="M411.455,92.789H282.896V81.855h128.559V92.789z M285.216,90.468h123.918v-6.293H285.216V90.468z"/>
	</g>
	<rect id="XMLID_180_" x="284.057" y="171.423" fill="#D1D3D4" width="126.238" height="8.612"/>
	<rect id="XMLID_179_" x="284.057" y="171.423" fill="#F1F2F2" width="126.238" height="4.307"/>
	<g id="XMLID_210_">
		<rect x="333.861" y="170.261" fill="#414042" width="41.893" height="2.321"/>
	</g>
	<g id="XMLID_209_">
		<rect x="333.861" y="178.876" fill="#414042" width="41.089" height="2.32"/>
	</g>
	<g id="XMLID_173_">
		<rect x="346.157" y="180.035" fill="#414042" width="2.321" height="24.452"/>
	</g>
	<g id="XMLID_167_">
		<rect x="406.925" y="91.606" fill="#414042" width="2.321" height="57.634"/>
	</g>
	<g id="XMLID_166_">
		<rect x="285.387" y="91.606" fill="#414042" width="2.321" height="31.002"/>
	</g>
	<g id="XMLID_156_">
		<path id="XMLID_158_" fill="#F5AB35" d="M380.045,101.771c7.625,0,13.803,6.178,13.803,13.8h-13.803V101.771z"/>
		<path id="XMLID_157_" fill="#BCBEC0" d="M376.542,132.878c-7.622,0-13.802-6.181-13.802-13.802c0-7.622,6.18-13.8,13.802-13.8
			v13.8h13.801C390.342,126.697,384.164,132.878,376.542,132.878z"/>
	</g>
	<g id="XMLID_153_">
		<rect id="XMLID_155_" x="296.809" y="105.769" fill="#D1D3D4" width="59.079" height="3.039"/>
	</g>
	<g id="XMLID_150_">
		<rect id="XMLID_151_" x="296.809" y="115.804" fill="#D1D3D4" width="59.079" height="3.038"/>
	</g>
	<g id="XMLID_147_">
		<rect id="XMLID_148_" x="315.117" y="125.842" fill="#D1D3D4" width="40.771" height="3.039"/>
	</g>
	<g id="XMLID_112_">
		<rect id="XMLID_120_" x="362.602" y="153.635" fill="#D1D3D4" width="8.263" height="14.056"/>
		<rect id="XMLID_114_" x="373.757" y="145.371" fill="#D1D3D4" width="8.263" height="22.319"/>
		<rect id="XMLID_113_" x="384.913" y="136.697" fill="#F5AB35" width="8.262" height="30.993"/>
	</g>
</g>
<g>
	<path id="XMLID_100_" fill="#BCBEC0" d="M162.115,99.942c-0.087-4.649,0.992-13.12-7.363-13.245h-42.395v38.433h49.763
		L162.115,99.942z"/>
	<g id="XMLID_99_">
		<path fill="#414042" d="M160.96,121.917l-0.005-21.975c-0.009-0.49-0.005-1.05,0-1.637c0.044-5.867-0.384-10.361-6.22-10.448
			h-42.377v-2.32h42.395c8.62,0.128,8.559,8.051,8.523,12.785c-0.005,0.567-0.01,1.104,0.001,1.599l0.004,21.996H160.96z"/>
	</g>
	<g>
		<path id="XMLID_243_" fill="#D1D3D4" d="M211.478,200.428H91.862c-0.851,0-1.547-0.698-1.547-1.548v-72.911
			c0-0.852,0.697-1.546,1.547-1.546h119.616c0.851,0,1.546,0.694,1.546,1.546v72.911
			C213.024,199.729,212.328,200.428,211.478,200.428z"/>
		<g id="XMLID_95_">
			<path fill="#414042" d="M214.183,191.581h-2.319v-65.542c0-0.247-0.209-0.456-0.457-0.456h-60.031v-2.32h60.031
				c1.531,0,2.776,1.247,2.776,2.776V191.581z"/>
		</g>
		<rect id="XMLID_242_" x="96.274" y="131.363" fill="#FFFFFF" width="110.125" height="59.379"/>
		<path id="XMLID_241_" fill="#F1F2F2" d="M211.496,204.388H91.723c-2.875,0-5.328-2.084-5.793-4.921l-0.853-5.203h133.752
			l-0.742,4.526C217.558,202.02,214.768,204.388,211.496,204.388z"/>
		<g id="XMLID_97_">
			<path fill="#414042" d="M211.496,205.547h-87.641v-2.319h87.641c2.716,0,5.007-1.945,5.447-4.625l0.521-3.179h-93.828v-2.32
				h96.56l-0.962,5.874C218.608,202.786,215.354,205.547,211.496,205.547z"/>
		</g>
		<g>
			<rect x="142.983" y="196.256" fill="#414042" width="16.515" height="2.318"/>
		</g>
		<g>
			<circle fill="#E6E7E8" cx="117.477" cy="159.577" r="15.565"/>
			<g>
				<path fill="#808285" d="M117.236,174.621c-0.149,0-0.297-0.002-0.446-0.006l0.036-1.22c1.793,0.055,3.559-0.239,5.248-0.868
					c1.69-0.627,3.217-1.559,4.541-2.77c1.37-1.255,2.459-2.751,3.24-4.456c0.78-1.703,1.203-3.508,1.257-5.362
					c0.052-1.796-0.239-3.56-0.868-5.247c-0.627-1.691-1.56-3.218-2.771-4.542c-1.253-1.368-2.752-2.46-4.455-3.238
					c-1.704-0.78-3.508-1.204-5.364-1.259c-1.794-0.053-3.559,0.238-5.248,0.866c-1.689,0.629-3.216,1.561-4.54,2.772
					c-1.371,1.254-2.46,2.753-3.24,4.454c-0.779,1.705-1.202,3.509-1.257,5.365c-0.054,1.792,0.238,3.559,0.866,5.248l-1.143,0.423
					c-0.683-1.835-1-3.755-0.942-5.709c0.059-2.018,0.519-3.981,1.368-5.834c0.849-1.852,2.034-3.483,3.525-4.848
					c1.44-1.316,3.101-2.332,4.939-3.014c1.837-0.684,3.756-1,5.708-0.944c2.02,0.061,3.984,0.52,5.835,1.37
					c1.853,0.847,3.484,2.033,4.848,3.522c1.317,1.44,2.332,3.101,3.015,4.94c0.683,1.836,1,3.757,0.943,5.706
					c-0.059,2.021-0.52,3.984-1.368,5.838c-0.848,1.851-2.034,3.483-3.525,4.847c-1.439,1.318-3.101,2.331-4.938,3.014
					C120.802,174.303,119.034,174.621,117.236,174.621z"/>
			</g>
			<circle fill="#E6E7E8" cx="151.953" cy="159.577" r="15.565"/>
			<g>
				<path fill="#F5AB35" d="M151.726,174.629c-0.004,0-0.008,0-0.013,0l0.002-1.221c0.003,0,0.007,0,0.011,0
					c1.789,0,3.542-0.341,5.209-1.017c1.67-0.677,3.17-1.651,4.458-2.9c1.333-1.292,2.38-2.821,3.111-4.547
					c0.731-1.725,1.102-3.539,1.104-5.397c0.002-1.794-0.341-3.55-1.017-5.22c-0.675-1.671-1.652-3.172-2.9-4.459
					c-1.292-1.334-2.821-2.381-4.546-3.11c-1.725-0.732-3.541-1.104-5.398-1.104c-1.786-0.007-3.549,0.342-5.22,1.018
					c-1.671,0.676-3.171,1.651-4.458,2.899c-1.334,1.292-2.38,2.821-3.111,4.547c-0.731,1.725-1.102,3.541-1.103,5.397h-1.221
					c0.002-2.021,0.406-3.997,1.201-5.873c0.794-1.877,1.934-3.541,3.384-4.945c1.402-1.358,3.033-2.421,4.851-3.155
					c1.813-0.736,3.721-1.107,5.667-1.107c0.004,0,0.008,0,0.012,0c2.021,0.002,3.998,0.404,5.872,1.2
					c1.877,0.796,3.54,1.934,4.947,3.384c1.358,1.402,2.42,3.037,3.155,4.853c0.735,1.815,1.108,3.728,1.106,5.679
					c-0.001,2.021-0.405,3.998-1.201,5.871c-0.795,1.878-1.933,3.541-3.384,4.946c-1.401,1.359-3.033,2.42-4.85,3.155
					C155.579,174.257,153.673,174.629,151.726,174.629z"/>
			</g>
			<circle fill="#E6E7E8" cx="186.43" cy="159.576" r="15.566"/>
			<g>
				<path fill="#414042" d="M172.373,154.191l1.145,0.419c-0.616,1.686-0.896,3.45-0.834,5.254c0.062,1.799,0.463,3.543,1.195,5.181
					c0.757,1.696,1.835,3.205,3.204,4.482c1.368,1.277,2.947,2.251,4.691,2.889c1.684,0.616,3.451,0.896,5.253,0.835
					c1.801-0.061,3.544-0.463,5.182-1.193c1.696-0.755,3.205-1.834,4.482-3.204c1.259-1.348,2.221-2.9,2.86-4.61
					c0.009-0.028,0.019-0.053,0.028-0.082c0.616-1.684,0.898-3.451,0.836-5.251c-0.062-1.802-0.464-3.546-1.195-5.184
					c-0.757-1.695-1.834-3.204-3.204-4.48l0.832-0.892c1.488,1.391,2.663,3.029,3.486,4.876c0.794,1.779,1.232,3.679,1.299,5.638
					c0.068,1.958-0.238,3.881-0.909,5.714c-0.697,1.899-1.751,3.616-3.143,5.104c-1.389,1.488-3.031,2.663-4.875,3.484
					c-1.782,0.795-3.679,1.232-5.639,1.3c-1.958,0.067-3.881-0.238-5.713-0.909c-1.898-0.695-3.614-1.751-5.104-3.143
					c-1.489-1.388-2.661-3.029-3.485-4.876c-0.794-1.782-1.232-3.679-1.3-5.638C171.396,157.947,171.702,156.023,172.373,154.191z"
					/>
			</g>
			<path fill="#FFFFFF" d="M131.258,159.577c0,7.61-6.17,13.779-13.781,13.779c-7.613,0-13.782-6.169-13.782-13.779
				c0-7.613,6.169-13.781,13.782-13.781C125.088,145.796,131.258,151.964,131.258,159.577z"/>
		</g>
		<rect x="107.259" y="178.292" fill="#E6E7E8" width="90.275" height="3.521"/>
	</g>
	<path fill="#FFFFFF" d="M111.81,86.62c-4.318,0-8.383,2.638-8.479,8.416v73.388h3.144c1.62,4.122-0.17,10.955-7.303,11.546h42.395
		c8.356-0.126,7.277-8.599,7.363-13.245h-0.026V95.038c0-3.823,2.586-7.164,6.289-8.119V86.62H111.81z"/>
	<path fill="#BCBEC0" d="M135.046,171.553v-36.749h0.036c-0.087-4.647,0.992-13.119-7.363-13.245H85.323
		c6.841,0.566,8.764,6.868,7.482,11.022h-3.332v38.973c0.094,5.778,4.161,8.416,8.479,8.416h43.383v-0.3
		C137.633,178.714,135.046,175.375,135.046,171.553z"/>
	<g>
		<path fill="#414042" d="M99.172,181.129l-0.096-2.315c2.525-0.209,4.48-1.318,5.657-3.208c1.077-1.731,1.41-4.061,0.9-6.022
			h-3.463V95.036c0.109-6.621,4.92-9.576,9.639-9.576h44.543v2.358l-0.87,0.225c-3.191,0.821-5.42,3.698-5.42,6.995l0.027,71.707
			c-0.009,0.494-0.005,1.032-0.001,1.597c0.037,4.735,0.098,12.658-8.506,12.787H99.172z M105.038,178.809h36.529
			c5.819-0.087,6.248-4.581,6.202-10.448c0-0.237-0.004-0.473-0.004-0.699l-0.021-0.937V95.038c0-2.863,1.273-5.486,3.343-7.257
			H111.81c-3.48,0-7.23,1.911-7.318,7.275v72.207h2.774l0.289,0.736c1.092,2.779,0.758,6.247-0.852,8.831
			C106.305,177.472,105.763,178.167,105.038,178.809z"/>
	</g>
	<g>
		<path fill="#414042" d="M142.495,181.129H97.952c-4.72,0-9.53-2.954-9.639-9.556v-40.154h3.583
			c0.353-1.945-0.07-4.109-1.155-5.714c-1.186-1.756-3.092-2.791-5.514-2.991l0.096-2.314h42.396
			c8.619,0.13,8.559,8.051,8.522,12.783c-0.003,0.566-0.008,1.107,0.001,1.6l0.022,1.183h-0.058v35.588
			c0,3.293,2.228,6.169,5.418,6.993l0.871,0.225V181.129z M90.633,133.74v37.813c0.088,5.346,3.837,7.255,7.318,7.255h39.278
			c-2.071-1.77-3.344-4.394-3.344-7.256l0.032-37.908c0.001-0.158,0.002-0.317,0.004-0.479c0.045-5.863-0.385-10.359-6.22-10.444
			H91.186c0.625,0.551,1.109,1.139,1.478,1.685c1.642,2.429,2.121,5.691,1.25,8.517l-0.252,0.818H90.633z"/>
	</g>
	<path id="XMLID_624_" fill="#FFFFFF" d="M75.15,129.976v73.387h45.573v-73.386c0-3.824,2.587-7.164,6.289-8.117v-0.301H83.629
		C79.312,121.559,75.245,124.196,75.15,129.976z"/>
	<g id="XMLID_96_">
		<path fill="#414042" d="M121.884,204.165h-2.321v-74.188c0-2.863,1.273-5.487,3.343-7.256H83.629c-3.481,0-7.23,1.909-7.318,7.272
			v23.565h-2.32v-23.583c0.108-6.621,4.919-9.576,9.639-9.576h44.543v2.358l-0.871,0.226c-3.19,0.821-5.418,3.697-5.418,6.993
			V204.165z"/>
	</g>
	<g>
		<rect x="80.088" y="144.674" fill="#F5AB35" width="34.76" height="1.9"/>
		<rect x="80.088" y="149.388" fill="#414042" width="17.307" height="1.9"/>
		<rect x="80.088" y="154.104" fill="#414042" width="12.94" height="1.9"/>
		<rect x="80.088" y="158.818" fill="#F5AB35" width="25.507" height="1.9"/>
		<rect x="80.088" y="163.535" fill="#414042" width="32.274" height="1.9"/>
		<g>
			<rect x="88.856" y="167.027" fill="#939598" width="0.161" height="0.759"/>
		</g>
		<g>
			<rect x="106.495" y="167.027" fill="#939598" width="0.162" height="0.759"/>
		</g>
		<g>
			<g>
				<polygon fill="#58595B" points="116.37,167.844 80.013,167.844 80.013,143.169 80.163,143.169 80.163,167.711 116.37,167.711 
									"/>
			</g>
			<g>
				<rect x="84.432" y="167.027" fill="#58595B" width="0.162" height="0.759"/>
			</g>
			<g>
				<rect x="93.278" y="167.027" fill="#58595B" width="0.161" height="0.759"/>
			</g>
			<g>
				<rect x="102.075" y="167.027" fill="#58595B" width="0.16" height="0.759"/>
			</g>
			<g>
				<rect x="110.938" y="167.027" fill="#58595B" width="0.163" height="0.759"/>
			</g>
		</g>
		<g>
			<rect x="115.36" y="167.027" fill="#939598" width="0.162" height="0.759"/>
		</g>
		<g>
			<rect x="97.699" y="167.027" fill="#939598" width="0.161" height="0.759"/>
		</g>
	</g>
	<g>
		<rect x="80.088" y="134.101" fill="#E6E7E8" width="14.702" height="2.423"/>
	</g>
	<g>
		<rect x="108.009" y="96.66" fill="#E6E7E8" width="34.974" height="2.425"/>
	</g>
	<g>
		<rect x="108.009" y="103.095" fill="#E6E7E8" width="23.249" height="2.425"/>
	</g>
	<g>
		<rect x="133.042" y="103.095" fill="#E6E7E8" width="9.941" height="2.425"/>
	</g>
	<g>
		<rect x="108.009" y="109.529" fill="#E6E7E8" width="10.879" height="2.424"/>
	</g>
	<g>
		<rect x="120.524" y="109.529" fill="#E6E7E8" width="22.459" height="2.424"/>
	</g>
	<g>
		<rect x="108.009" y="115.965" fill="#E6E7E8" width="19.173" height="2.423"/>
	</g>
	<g>
		<rect x="80.088" y="173.93" fill="#E6E7E8" width="25.507" height="2.425"/>
	</g>
	<g>
		<rect x="80.088" y="181.438" fill="#E6E7E8" width="13.029" height="2.423"/>
	</g>
	<g>
		<rect x="80.044" y="186.471" fill="#E6E7E8" width="27.661" height="2.423"/>
	</g>
	<g>
		<rect x="79.95" y="191.91" fill="#E6E7E8" width="14.84" height="2.426"/>
	</g>
	<g>
		<rect x="95.528" y="181.438" fill="#E6E7E8" width="6.693" height="2.423"/>
	</g>
	<g>
		<rect x="104.572" y="181.438" fill="#E6E7E8" width="10.962" height="2.423"/>
	</g>
</g>
<g>
	<path id="XMLID_866_" fill="#FFFFFF" d="M265.255,205.375v-74.162c0-1.915,1.566-3.483,3.482-3.483h59.013
		c1.916,0,3.484,1.568,3.484,3.483v74.162H265.255z"/>
	<g id="XMLID_165_">
		<rect x="330.076" y="159.886" fill="#414042" width="2.318" height="45.489"/>
	</g>
	<g id="XMLID_164_">
		<path fill="#414042" d="M266.416,205.375h-2.32v-74.162c0-2.561,2.084-4.644,4.643-4.644h31.396v2.32h-31.396
			c-1.279,0-2.322,1.042-2.322,2.323V205.375z"/>
	</g>
	<g id="XMLID_161_">
		<rect x="289.826" y="133.677" fill="#414042" width="10.845" height="2.318"/>
	</g>
	<rect id="XMLID_160_" x="270.319" y="140.719" fill="#E6E7E8" width="55.853" height="64.349"/>
	<polygon id="XMLID_159_" fill="#BCBEC0" points="323.579,140.719 323.579,202.475 270.319,202.475 270.319,205.067 
		326.171,205.067 326.171,140.719 	"/>
	<path id="XMLID_854_" fill="#F5AB35" d="M325.498,162.84l6.483-9.424c2.72-1.04,5.271-2.638,7.464-4.827
		c8.329-8.331,8.329-21.837,0-30.167c-8.33-8.331-21.836-8.331-30.167,0c-8.327,8.33-8.327,21.836,0,30.167
		c2.942,2.94,6.534,4.821,10.311,5.684L325.498,162.84z"/>
	<g id="XMLID_98_">
		<path fill="#414042" d="M325.5,164.885l-6.613-9.587c-3.96-0.988-7.557-3.019-10.43-5.889c-8.769-8.771-8.769-23.038,0-31.807
			c4.248-4.249,9.896-6.59,15.904-6.59c6.009,0,11.655,2.341,15.904,6.59c8.769,8.769,8.769,23.035,0,31.807
			c-2.155,2.15-4.686,3.819-7.53,4.955L325.5,164.885z M324.362,113.334c-5.387,0-10.454,2.098-14.263,5.908
			c-7.864,7.864-7.864,20.661,0,28.524c2.667,2.668,6.041,4.529,9.748,5.376l0.439,0.101l5.21,7.551l5.734-8.334l0.336-0.126
			c2.676-1.022,5.051-2.56,7.058-4.567c7.865-7.863,7.865-20.66,0-28.524C334.814,115.432,329.75,113.334,324.362,113.334z"/>
	</g>
	<g id="XMLID_846_">
		<path id="XMLID_847_" fill="#414042" d="M323.884,142.549v-1.588c-1.988-0.204-3.772-0.995-5.352-2.374l1.588-1.89
			c1.218,1.057,2.472,1.689,3.764,1.89v-4.219c-1.639-0.391-2.84-0.904-3.602-1.544c-0.76-0.636-1.141-1.584-1.141-2.839
			c0-1.252,0.437-2.279,1.315-3.076c0.877-0.797,2.021-1.232,3.427-1.305v-1.087h1.392v1.109c1.593,0.115,3.102,0.659,4.524,1.629
			l-1.415,2.003c-0.956-0.682-1.992-1.104-3.109-1.262v4.09h0.065c1.667,0.389,2.893,0.921,3.674,1.587
			c0.785,0.666,1.177,1.634,1.177,2.903c0,1.271-0.45,2.304-1.349,3.101c-0.899,0.797-2.089,1.233-3.567,1.304v1.567H323.884z
			 M322.35,128.507c-0.37,0.327-0.555,0.735-0.555,1.22c0,0.486,0.146,0.87,0.435,1.15c0.288,0.286,0.842,0.558,1.654,0.817v-3.765
			C323.23,127.989,322.72,128.184,322.35,128.507z M326.927,138.045c0.407-0.334,0.61-0.754,0.61-1.263
			c0-0.506-0.16-0.909-0.479-1.205c-0.319-0.297-0.913-0.576-1.783-0.837v3.916C325.971,138.582,326.522,138.379,326.927,138.045z"
			/>
	</g>
	<polygon id="XMLID_108_" fill="#6D6E71" points="270.319,186.936 270.319,205.601 282.378,205.57 282.378,176.837 	"/>
	<polygon id="XMLID_169_" fill="#6D6E71" points="292.909,182.276 292.876,181.459 292.876,205.545 306.718,205.51 306.718,171.171 
			"/>
	<polygon id="XMLID_170_" fill="#BCBEC0" points="282.47,177.562 282.378,176.837 282.378,205.57 292.876,205.545 292.876,181.459 	
		"/>
	<polygon id="XMLID_107_" fill="#6D6E71" points="326.171,166.656 315.308,176.009 315.308,205.487 326.171,205.462 	"/>
	<polygon id="XMLID_172_" fill="#BCBEC0" points="315.308,176.813 306.718,171.171 306.718,205.51 315.308,205.487 315.308,176.009 
			"/>
	<g id="XMLID_163_">
		<polygon fill="#414042" points="271.923,188.056 270.319,188.056 270.319,185.734 271.072,185.734 282.182,176.284 
			292.726,180.929 306.632,170.594 315.168,175.403 325,166.937 326.16,166.925 326.192,168.973 326.18,168.983 326.183,169.246 
			325.872,169.248 315.45,178.225 306.806,173.354 293.025,183.597 282.578,178.993 		"/>
	</g>
</g>
<g>
	<circle id="XMLID_302_" fill="#F5AB35" cx="20.413" cy="188.649" r="15.735"/>
	<g id="XMLID_198_">
		<path fill="#414042" d="M20.438,205.554c-1.532,0-3.074-0.211-4.589-0.637c-4.345-1.217-7.955-4.056-10.166-7.992
			c-2.211-3.934-2.757-8.493-1.538-12.837c1.219-4.347,4.058-7.956,7.992-10.168c3.934-2.211,8.495-2.757,12.839-1.538
			c4.345,1.219,7.956,4.057,10.167,7.993l0,0c2.211,3.932,2.757,8.493,1.538,12.837c-1.218,4.348-4.057,7.957-7.991,10.17
			C26.126,204.82,23.299,205.554,20.438,205.554z M20.391,174.067c-2.468,0-4.908,0.633-7.118,1.876
			c-3.394,1.906-5.843,5.021-6.895,8.771c-1.051,3.749-0.58,7.681,1.327,11.076c1.908,3.394,5.022,5.843,8.771,6.895
			c3.747,1.054,7.683,0.582,11.077-1.328c3.394-1.906,5.842-5.021,6.894-8.771c1.052-3.748,0.581-7.682-1.327-11.076l0,0
			c-1.907-3.394-5.022-5.843-8.77-6.895C23.043,174.25,21.713,174.067,20.391,174.067z"/>
	</g>
	<g id="XMLID_291_">
		<g>
			<path fill="#414042" d="M23.291,195.246l-0.623-1.106c-1.397,0.52-2.907,0.602-4.529,0.247l0.447-2.505
				c1.176,0.245,2.136,0.283,2.88,0.117l-1.269-2.259c-1.215,0.323-2.2,0.395-2.954,0.212s-1.374-0.705-1.859-1.57
				c-0.485-0.864-0.604-1.735-0.354-2.615c0.252-0.878,0.806-1.632,1.664-2.261l-0.418-0.743l1.608-0.904l0.435,0.772
				c1.09-0.427,2.332-0.571,3.725-0.436l-0.238,2.489c-0.892-0.1-1.655-0.067-2.286,0.086l1.229,2.186
				c1.25-0.33,2.27-0.405,3.058-0.223c0.789,0.184,1.426,0.709,1.915,1.579c0.489,0.868,0.602,1.751,0.339,2.644
				c-0.264,0.896-0.85,1.667-1.758,2.324l0.596,1.062L23.291,195.246z M17.878,185.613c-0.35,0.396-0.41,0.797-0.184,1.2
				c0.228,0.405,0.619,0.592,1.173,0.559L17.878,185.613z M23.362,189.797c-0.119-0.212-0.273-0.357-0.465-0.438
				c-0.19-0.079-0.466-0.099-0.827-0.053l1.047,1.865C23.542,190.719,23.624,190.261,23.362,189.797z"/>
		</g>
	</g>
</g>
<g>
	<circle id="XMLID_248_" fill="#FFFFFF" cx="403.9" cy="178.084" r="26.304"/>
	<circle id="XMLID_199_" fill="#F7BC5D" cx="403.897" cy="178.084" r="19.434"/>
	<g id="XMLID_247_">
		<path fill="#414042" d="M403.9,205.547c-15.146,0-27.466-12.319-27.466-27.463s12.32-27.463,27.466-27.463
			c15.144,0,27.464,12.319,27.464,27.463S419.043,205.547,403.9,205.547z M403.9,152.939c-13.865,0-25.146,11.28-25.146,25.145
			s11.28,25.144,25.146,25.144c13.864,0,25.144-11.279,25.144-25.144S417.764,152.939,403.9,152.939z"/>
	</g>
	<g>
		<path fill="#414042" d="M402.157,173.782c0,4.15-2.182,6.21-4.726,6.21c-2.454,0-4.574-1.968-4.604-5.938
			c0-3.936,2.149-6.15,4.755-6.15C400.339,167.904,402.157,170.028,402.157,173.782z M394.948,173.965
			c-0.061,2.515,0.88,4.422,2.546,4.422c1.755,0,2.543-1.877,2.543-4.482c0-2.393-0.697-4.394-2.543-4.394
			C395.828,169.511,394.948,171.479,394.948,173.965z M397.249,188.261l11.573-20.356h1.695l-11.572,20.356H397.249z
			 M414.971,181.933c0,4.148-2.18,6.21-4.696,6.21c-2.451,0-4.574-1.97-4.604-5.908c0-3.968,2.153-6.178,4.759-6.178
			C413.183,176.057,414.971,178.175,414.971,181.933z M407.761,182.113c-0.031,2.513,0.939,4.422,2.576,4.422
			c1.758,0,2.542-1.876,2.542-4.483c0-2.393-0.696-4.393-2.542-4.393C408.669,177.659,407.761,179.63,407.761,182.113z"/>
	</g>
</g>
<g>
	<g id="XMLID_845_">
		
			<rect x="57.123" y="151.337" transform="matrix(1 0.0059 -0.0059 1 0.9186 -0.3408)" fill="#414042" width="2.32" height="8.709"/>
	</g>
	<rect id="XMLID_825_" x="54.556" y="149.163" fill="#E6E7E8" width="7.506" height="2.88"/>
	<g id="XMLID_824_">
		<path fill="#414042" d="M63.222,153.202h-9.826v-5.198h9.826V153.202z M55.717,150.884h5.185v-0.56h-5.185V150.884z"/>
	</g>
	<g id="XMLID_844_">
		
			<rect x="73.072" y="157.603" transform="matrix(0.7007 0.7135 -0.7135 0.7007 137.7774 -4.4838)" fill="#414042" width="2.32" height="8.709"/>
	</g>
	<g id="XMLID_843_">
		
			<rect x="73.502" y="158.163" transform="matrix(0.7154 0.6988 -0.6988 0.7154 133.1403 -8.1987)" fill="#414042" width="6.263" height="2.319"/>
	</g>
	<g id="XMLID_842_">
		
			<rect x="38.822" y="155.635" transform="matrix(0.6993 0.7149 -0.7149 0.6993 125.5182 19.164)" fill="#414042" width="2.32" height="6.264"/>
	</g>
	<g id="XMLID_841_">
		
			<rect x="38.264" y="160.24" transform="matrix(0.7137 0.7004 -0.7004 0.7137 125.2445 16.3518)" fill="#414042" width="8.707" height="2.321"/>
	</g>
	<circle id="XMLID_840_" fill="#FFFFFF" cx="58.187" cy="179.951" r="22.429"/>
	<path id="XMLID_839_" fill="#F5AB35" d="M58.187,157.522c12.388,0,22.429,10.043,22.429,22.429H58.187V157.522z"/>
	<path id="XMLID_776_" fill="#A7A9AC" d="M58.2,155.351c-13.662,0-24.737,11.076-24.737,24.737
		c0,13.664,11.076,24.737,24.737,24.737c13.662,0,24.737-11.073,24.737-24.737C82.938,166.427,71.862,155.351,58.2,155.351z
		 M58.2,202.071c-12.142,0-21.986-9.84-21.986-21.983c0-12.143,9.844-21.983,21.986-21.983s21.984,9.841,21.984,21.983
		C80.185,192.231,70.342,202.071,58.2,202.071z"/>
	<circle id="XMLID_837_" fill="#414042" cx="58.155" cy="161.391" r="1.008"/>
	<circle id="XMLID_836_" fill="#414042" cx="67.43" cy="163.857" r="1.009"/>
	<path id="XMLID_835_" fill="#414042" d="M74.738,171.498c-0.482,0.279-1.099,0.113-1.378-0.366
		c-0.279-0.482-0.114-1.101,0.367-1.382c0.482-0.276,1.1-0.112,1.379,0.37C75.384,170.603,75.221,171.217,74.738,171.498z"/>
	<circle id="XMLID_834_" fill="#414042" cx="76.746" cy="179.887" r="1.009"/>
	<circle id="XMLID_833_" fill="#414042" cx="74.297" cy="189.166" r="1.008"/>
	<circle id="XMLID_832_" fill="#414042" cx="67.54" cy="195.981" r="1.009"/>
	<circle id="XMLID_831_" fill="#414042" cx="58.283" cy="198.509" r="1.009"/>
	<circle id="XMLID_830_" fill="#414042" cx="49" cy="196.078" r="1.008"/>
	<circle id="XMLID_829_" fill="#414042" cx="42.173" cy="189.333" r="1.008"/>
	<circle id="XMLID_828_" fill="#414042" cx="39.628" cy="180.08" r="1.008"/>
	<circle id="XMLID_827_" fill="#414042" cx="42.044" cy="170.792" r="1.009"/>
	<circle id="XMLID_826_" fill="#414042" cx="48.777" cy="163.953" r="1.008"/>
	<path id="XMLID_823_" fill="#FFFFFF" d="M60.451,179.888c0,1.268-1.028,2.293-2.296,2.293c-1.268,0-2.296-1.025-2.296-2.293
		c0-1.27,1.029-2.297,2.296-2.297C59.423,177.591,60.451,178.618,60.451,179.888z"/>
	<g id="XMLID_822_">
		<path fill="#414042" d="M58.155,183.343c-1.906,0-3.457-1.55-3.457-3.455c0-1.908,1.551-3.458,3.457-3.458s3.456,1.55,3.456,3.458
			C61.611,181.793,60.061,183.343,58.155,183.343z M58.155,178.75c-0.626,0-1.136,0.509-1.136,1.138c0,0.626,0.51,1.134,1.136,1.134
			s1.137-0.508,1.137-1.134C59.292,179.259,58.781,178.75,58.155,178.75z"/>
	</g>
	<g id="XMLID_821_">
		<rect x="60.451" y="178.726" fill="#414042" width="11.259" height="2.321"/>
	</g>
	<g>
		<path fill="#414042" d="M58.155,205.829c-14.305,0-25.942-11.638-25.942-25.941c0-14.307,11.637-25.944,25.942-25.944
			s25.943,11.638,25.943,25.944C84.098,194.191,72.46,205.829,58.155,205.829z M58.155,156.264
			c-13.026,0-23.623,10.597-23.623,23.624c0,13.024,10.597,23.62,23.623,23.62s23.622-10.596,23.622-23.62
			C81.777,166.86,71.181,156.264,58.155,156.264z"/>
	</g>
</g>
<g>
	<g id="XMLID_483_">
		<path fill="#414042" d="M447.861,204.567c-6.729,0-12.204-5.476-12.204-12.204c0-6.732,5.476-12.206,12.204-12.206
			c6.729,0,12.206,5.474,12.206,12.206C460.067,199.092,454.59,204.567,447.861,204.567z M447.861,182.476
			c-5.449,0-9.885,4.435-9.885,9.888c0,5.449,4.436,9.885,9.885,9.885c5.45,0,9.888-4.436,9.888-9.885
			C457.749,186.91,453.311,182.476,447.861,182.476z"/>
	</g>
	<g id="XMLID_486_">
		<path fill="#414042" d="M471.721,190.173h-2.318c0-2.703-2.199-4.9-4.9-4.9c-2.704,0-4.903,2.197-4.903,4.9h-2.317
			c0-3.982,3.237-7.221,7.221-7.221C468.483,182.952,471.721,186.19,471.721,190.173z"/>
	</g>
	<g id="XMLID_484_">
		<path fill="#414042" d="M481.339,204.567c-6.729,0-12.205-5.476-12.205-12.204c0-6.732,5.476-12.206,12.205-12.206
			s12.206,5.474,12.206,12.206C493.545,199.092,488.069,204.567,481.339,204.567z M481.339,182.476c-5.45,0-9.885,4.435-9.885,9.888
			c0,5.449,4.435,9.885,9.885,9.885s9.885-4.436,9.885-9.885C491.224,186.91,486.79,182.476,481.339,182.476z"/>
	</g>
	<g id="XMLID_487_">
		
			<rect x="436.605" y="194.557" transform="matrix(0.9922 0.125 -0.125 0.9922 28.1053 -56.4052)" fill="#414042" width="53.678" height="2.321"/>
	</g>
	<g id="XMLID_488_">
		
			<rect x="464.187" y="168.88" transform="matrix(0.1251 0.9921 -0.9921 0.1251 601.3257 -290.4531)" fill="#414042" width="2.319" height="53.676"/>
	</g>
</g>
</svg>
