<?xml version="1.0" encoding="utf-8"?>
<!-- Generator: Adobe Illustrator 15.0.0, SVG Export Plug-In . SVG Version: 6.00 Build 0)  -->
<!DOCTYPE svg PUBLIC "-//W3C//DTD SVG 1.1//EN" "http://www.w3.org/Graphics/SVG/1.1/DTD/svg11.dtd">
<svg version="1.1" id="Layer_1" xmlns="http://www.w3.org/2000/svg" xmlns:xlink="http://www.w3.org/1999/xlink" x="0px" y="0px"
	 width="493.545px" height="204.829px" viewBox="0 0 493.545 204.829" enable-background="new 0 0 493.545 204.829"
	 xml:space="preserve">
<g>
	<g id="XMLID_165_">
		<g id="XMLID_177_">
			<rect x="97.782" y="97.303" fill="#414042" width="5.767" height="2.04"/>
		</g>
		<g id="XMLID_176_">
			<rect x="99.631" y="95.478" fill="#414042" width="2.067" height="5.69"/>
		</g>
	</g>
	<g>
		<path fill="#414042" d="M112.601,111.121h-4.135v-2.041h3.102v-3.446h2.067v4.08h-1.034V111.121z M104.332,111.121h-4.136v-2.041
			h4.136V111.121z M96.062,111.121h-4.135v-2.041h4.135V111.121z M89.762,109.175h-2.067v-4.079h2.067V109.175z M113.635,101.554
			h-2.067v-4.08h2.067V101.554z M89.762,101.017h-2.067v-4.08h2.067V101.017z M113.635,93.395h-2.067v-4.08h2.067V93.395z
			 M89.762,92.857h-2.067v-4.08h2.067V92.857z M111.274,87.564h-4.134v-2.04h4.134V87.564z M103.004,87.564H98.87v-2.04h4.135
			V87.564z M94.734,87.564H90.6v-2.04h4.135V87.564z"/>
	</g>
</g>
<g id="XMLID_738_">
	<polygon id="XMLID_751_" fill="#FFFFFF" points="162.996,74.475 158.455,72.655 153.913,74.475 153.913,60.479 162.996,60.479 	"/>
	<g id="XMLID_164_">
		<polygon fill="#414042" points="164.03,75.99 158.455,73.756 152.879,75.99 152.879,66.05 154.946,66.05 154.946,72.959 
			158.455,71.554 161.962,72.959 161.962,66.05 164.03,66.05 		"/>
	</g>
	<path id="XMLID_715_" fill="#F4A800" d="M167.915,66.574l-9.124-4.584c-0.179-0.089-0.39-0.087-0.565,0.008l-9.001,4.817
		c-0.442,0.236-0.969-0.13-0.89-0.622l1.6-9.978c0.032-0.196-0.036-0.393-0.182-0.529l-7.423-6.957
		c-0.366-0.341-0.174-0.949,0.323-1.027l10.112-1.582c0.199-0.032,0.367-0.156,0.453-0.334l4.413-9.116
		c0.216-0.449,0.86-0.457,1.089-0.015l4.65,9c0.091,0.177,0.264,0.297,0.462,0.323l10.151,1.323c0.499,0.065,0.706,0.666,0.35,1.019
		l-7.239,7.145c-0.142,0.14-0.204,0.338-0.168,0.533l1.862,9.935C168.879,66.42,168.363,66.799,167.915,66.574z"/>
	<g id="XMLID_162_">
		<path fill="#414042" d="M148.934,67.909c-0.332,0-0.662-0.101-0.946-0.299c-0.514-0.359-0.772-0.963-0.674-1.577l1.564-9.76
			l-7.261-6.805c-0.457-0.425-0.625-1.058-0.439-1.653c0.187-0.593,0.688-1.023,1.311-1.121l9.891-1.546l4.316-8.918
			c0.269-0.559,0.829-0.914,1.458-0.921c0.605-0.023,1.198,0.328,1.485,0.884l4.55,8.803l9.927,1.295
			c0.624,0.081,1.137,0.497,1.339,1.083c0.203,0.588,0.051,1.227-0.393,1.667l-7.08,6.988l1.82,9.716
			c0.115,0.61-0.127,1.222-0.631,1.592c-0.506,0.37-1.168,0.425-1.727,0.145l-8.922-4.483l-8.805,4.712
			C149.47,67.844,149.202,67.909,148.934,67.909z M143.667,48.576l6.797,6.371c0.392,0.365,0.576,0.9,0.491,1.429l-1.465,9.136
			l8.243-4.411c0.472-0.254,1.042-0.263,1.524-0.021l8.357,4.198l-1.704-9.095c-0.099-0.524,0.071-1.062,0.453-1.439l6.629-6.544
			l-9.295-1.211c-0.54-0.072-1.004-0.397-1.249-0.871l-4.257-8.239l-4.04,8.347c-0.232,0.479-0.688,0.815-1.219,0.901
			L143.667,48.576z"/>
	</g>
	<g id="XMLID_717_">
		<rect x="157.283" y="29.086" fill="#414042" width="2.067" height="4.04"/>
	</g>
	<g id="XMLID_716_">
		<polygon fill="#414042" points="164.439,34.062 162.442,33.533 163.506,29.631 165.501,30.16 		"/>
	</g>
	<g id="XMLID_718_">
		<polygon fill="#414042" points="169.107,36.268 167.318,35.245 169.371,31.749 171.16,32.771 		"/>
	</g>
	<g id="XMLID_719_">
		<polygon fill="#414042" points="173.034,39.593 171.576,38.148 174.479,35.298 175.937,36.743 		"/>
	</g>
	<g id="XMLID_720_">
		<polygon fill="#414042" points="175.952,43.811 174.924,42.042 178.477,40.033 179.506,41.802 		"/>
	</g>
	<g id="XMLID_721_">
		<polygon fill="#414042" points="177.661,48.632 177.133,46.659 181.092,45.628 181.62,47.601 		"/>
	</g>
	<g id="XMLID_722_">
		
			<rect x="178.047" y="51.694" transform="matrix(1 0.0045 -0.0045 1 0.2407 -0.8155)" fill="#414042" width="4.095" height="2.04"/>
	</g>
	<g id="XMLID_723_">
		<polygon fill="#414042" points="181.02,59.809 177.07,58.741 177.616,56.773 181.566,57.841 		"/>
	</g>
	<g id="XMLID_161_">
		<polygon fill="#414042" points="178.346,65.379 174.812,63.336 175.857,61.575 179.391,63.618 		"/>
	</g>
	<g id="XMLID_725_">
		<polygon fill="#414042" points="174.297,70.072 171.423,67.194 172.896,65.762 175.771,68.641 		"/>
	</g>
	<g id="XMLID_737_">
		<polygon fill="#414042" points="169.154,73.569 167.135,70.055 168.934,69.048 170.953,72.562 		"/>
	</g>
	<g id="XMLID_741_">
		<polygon fill="#414042" points="147.045,73.353 145.265,72.314 147.353,68.837 149.132,69.875 		"/>
	</g>
	<g id="XMLID_742_">
		<polygon fill="#414042" points="141.972,69.756 140.527,68.298 143.457,65.474 144.901,66.933 		"/>
	</g>
	<g id="XMLID_743_">
		<polygon fill="#414042" points="138.019,64.984 137.008,63.205 140.581,61.229 141.591,63.008 		"/>
	</g>
	<g id="XMLID_744_">
		<polygon fill="#414042" points="135.457,59.363 134.948,57.387 138.918,56.393 139.427,58.369 		"/>
	</g>
	<g id="XMLID_745_">
		
			<rect x="134.476" y="51.268" transform="matrix(0.9999 0.0141 -0.0141 0.9999 0.7493 -1.9159)" fill="#414042" width="4.095" height="2.039"/>
	</g>
	<g id="XMLID_746_">
		<polygon fill="#414042" points="139.041,48.252 135.102,47.148 135.667,45.186 139.606,46.289 		"/>
	</g>
	<g id="XMLID_747_">
		<polygon fill="#414042" points="140.845,43.467 137.332,41.391 138.394,39.641 141.908,41.717 		"/>
	</g>
	<g id="XMLID_748_">
		<polygon fill="#414042" points="143.848,39.308 141.001,36.403 142.487,34.985 145.334,37.889 		"/>
	</g>
	<g id="XMLID_749_">
		<polygon fill="#414042" points="147.842,36.059 145.857,32.524 147.664,31.537 149.65,35.071 		"/>
	</g>
	<g id="XMLID_750_">
		<polygon fill="#414042" points="152.553,33.946 151.565,30.024 153.572,29.533 154.56,33.455 		"/>
	</g>
</g>
<g>
	<rect id="XMLID_1017_" x="404.617" y="168.482" fill="#FFFFFF" width="58.664" height="40.501"/>
	<rect id="XMLID_199_" x="405.457" y="163.626" opacity="0.19" fill="#231F20" width="57.836" height="10.736"/>
	<g id="XMLID_160_">
		<polygon fill="#414042" points="464.315,210.004 404.617,210.004 404.617,207.963 462.248,207.963 462.248,168.482 
			464.315,168.482 		"/>
	</g>
	<rect id="XMLID_1016_" x="404.518" y="160.983" fill="#F4A800" width="58.774" height="10.737"/>
	<g id="XMLID_159_">
		<polygon fill="#414042" points="464.326,172.738 409.311,172.738 409.311,170.699 462.259,170.699 462.259,162.004 
			404.518,162.004 404.518,159.963 464.326,159.963 		"/>
	</g>
	<g id="XMLID_1019_">
		<rect x="409.832" y="155.73" fill="#414042" width="2.068" height="10.096"/>
	</g>
	<g id="XMLID_1018_">
		<rect x="417.643" y="155.73" fill="#414042" width="2.065" height="10.096"/>
	</g>
	<g id="XMLID_1020_">
		<rect x="425.451" y="155.73" fill="#414042" width="2.067" height="10.096"/>
	</g>
	<g id="XMLID_1021_">
		<rect x="433.26" y="155.73" fill="#414042" width="2.067" height="10.096"/>
	</g>
	<g id="XMLID_1022_">
		<rect x="441.067" y="155.73" fill="#414042" width="2.069" height="10.096"/>
	</g>
	<g id="XMLID_1023_">
		<rect x="448.876" y="155.73" fill="#414042" width="2.067" height="10.096"/>
	</g>
	<g id="XMLID_1024_">
		<rect x="456.686" y="155.73" fill="#414042" width="2.067" height="10.096"/>
	</g>
	<rect id="XMLID_1025_" x="414.353" y="185.243" fill="#414042" width="3.113" height="3.07"/>
	<rect id="XMLID_1026_" x="420.55" y="180.161" fill="#414042" width="3.111" height="3.07"/>
	<rect id="XMLID_1027_" x="426.749" y="180.161" fill="#414042" width="3.111" height="3.07"/>
	<rect id="XMLID_1028_" x="432.944" y="180.161" fill="#414042" width="3.111" height="3.07"/>
	<rect id="XMLID_1029_" x="439.14" y="180.161" fill="#414042" width="3.112" height="3.07"/>
	<rect id="XMLID_1030_" x="445.337" y="180.161" fill="#414042" width="3.111" height="3.07"/>
	<rect id="XMLID_1031_" x="451.534" y="180.161" fill="#414042" width="3.11" height="3.07"/>
	<rect id="XMLID_1037_" x="420.55" y="185.243" fill="#414042" width="3.111" height="3.07"/>
	<rect id="XMLID_1036_" x="426.749" y="185.243" fill="#414042" width="3.111" height="3.07"/>
	<rect id="XMLID_1035_" x="432.944" y="185.243" fill="#414042" width="3.111" height="3.07"/>
	<rect id="XMLID_1034_" x="439.14" y="185.243" fill="#414042" width="3.112" height="3.07"/>
	<rect id="XMLID_1033_" x="445.337" y="185.243" fill="#414042" width="3.111" height="3.07"/>
	<rect id="XMLID_1032_" x="451.534" y="185.243" fill="#414042" width="3.11" height="3.07"/>
	<rect id="XMLID_1045_" x="414.353" y="190.323" fill="#414042" width="3.113" height="3.071"/>
	<rect id="XMLID_1044_" x="420.55" y="190.323" fill="#414042" width="3.111" height="3.071"/>
	<rect id="XMLID_1043_" x="426.749" y="190.323" fill="#414042" width="3.111" height="3.071"/>
	<rect id="XMLID_1042_" x="432.944" y="190.323" fill="#414042" width="3.111" height="3.071"/>
	<rect id="XMLID_1041_" x="439.14" y="190.323" fill="#414042" width="3.112" height="3.071"/>
	<rect id="XMLID_1040_" x="445.337" y="190.323" fill="#414042" width="3.111" height="3.071"/>
	<rect id="XMLID_1039_" x="451.534" y="190.323" fill="#414042" width="3.11" height="3.071"/>
	<rect id="XMLID_1052_" x="414.353" y="195.405" fill="#414042" width="3.113" height="3.07"/>
	<rect id="XMLID_1051_" x="420.55" y="195.405" fill="#414042" width="3.111" height="3.07"/>
	<rect id="XMLID_1050_" x="426.749" y="195.405" fill="#414042" width="3.111" height="3.07"/>
	<rect id="XMLID_1049_" x="432.944" y="195.405" fill="#414042" width="3.111" height="3.07"/>
	<rect id="XMLID_1048_" x="439.14" y="195.405" fill="#414042" width="3.112" height="3.07"/>
	<rect id="XMLID_1047_" x="445.337" y="195.405" fill="#414042" width="3.111" height="3.07"/>
	<rect id="XMLID_1046_" x="451.534" y="195.405" fill="#414042" width="3.11" height="3.07"/>
	<rect id="XMLID_1059_" x="414.353" y="200.486" fill="#414042" width="3.113" height="3.07"/>
	<rect id="XMLID_1058_" x="420.55" y="200.486" fill="#414042" width="3.111" height="3.07"/>
	<rect id="XMLID_1057_" x="426.749" y="200.486" fill="#414042" width="3.111" height="3.07"/>
	<rect id="XMLID_1056_" x="432.944" y="200.486" fill="#414042" width="3.111" height="3.07"/>
</g>
<g>
	<rect id="XMLID_248_" x="121.39" y="85.438" fill="#F1F2F2" width="84.25" height="123.323"/>
	<rect id="XMLID_157_" x="121.962" y="85.739" fill="#F4A800" width="83.677" height="8.775"/>
	<ellipse id="XMLID_265_" fill="#FFFFFF" cx="128.964" cy="89.84" rx="1.486" ry="1.466"/>
	<ellipse id="XMLID_266_" fill="#FFFFFF" cx="133.366" cy="89.84" rx="1.486" ry="1.466"/>
	<ellipse id="XMLID_267_" fill="#FFFFFF" cx="137.769" cy="89.84" rx="1.486" ry="1.466"/>
	<g id="XMLID_154_">
		<polygon fill="#414042" points="122.424,138.482 120.357,138.482 120.357,84.418 171.396,84.418 171.396,86.458 122.424,86.458 		
			"/>
	</g>
	<g>
		<rect x="121.962" y="93.494" fill="#414042" width="42.584" height="2.041"/>
	</g>
</g>
<g>
	<rect id="XMLID_191_" x="288.319" y="147.173" fill="#E6E7E8" width="109.081" height="61.718"/>
	<rect id="XMLID_152_" x="298.018" y="155.927" fill="#F5AB35" width="89.681" height="44.729"/>
	<polygon id="XMLID_151_" fill="#E6E7E8" points="341.473,199.775 321.388,174.305 300.204,199.775 	"/>
	<g id="XMLID_144_">
		<polygon fill="#414042" points="330.617,187.666 320.574,174.932 322.204,173.678 332.247,186.412 		"/>
	</g>
	<polygon id="XMLID_128_" fill="#FFFFFF" points="369.879,199.262 344.075,166.533 316.851,199.262 	"/>
	<g id="XMLID_114_">
		<rect x="297.847" y="198.874" fill="#414042" width="85.916" height="2.041"/>
	</g>
	<path id="XMLID_368_" fill="#F1F2F2" d="M376.703,175.275c0-0.572-0.472-1.037-1.05-1.037c-0.161,0-0.31,0.043-0.447,0.106
		c-0.198-0.403-0.577-0.683-1.033-0.779c0.02-0.103,0.063-0.198,0.063-0.309c0-0.954-0.784-1.728-1.751-1.728
		c-0.458,0-0.865,0.185-1.178,0.467c-0.119-1.646-1.496-2.951-3.193-2.951c-1.477,0-2.707,0.989-3.086,2.327
		c-0.141-0.029-0.286-0.044-0.438-0.044c-1.023,0-1.877,0.691-2.126,1.625c-0.23-0.091-0.479-0.147-0.742-0.147
		c-1.108,0-2.009,0.886-2.009,1.979c0,0.371,0.133,0.697,0.312,0.995h16.527C376.64,175.629,376.703,175.462,376.703,175.275z"/>
	<path id="XMLID_111_" fill="#F1F2F2" d="M312.336,177.389c0-0.322-0.265-0.582-0.59-0.582c-0.09,0-0.175,0.022-0.251,0.059
		c-0.111-0.227-0.325-0.384-0.581-0.437c0.012-0.06,0.035-0.113,0.035-0.174c0-0.538-0.438-0.973-0.984-0.973
		c-0.255,0-0.483,0.105-0.66,0.265c-0.066-0.926-0.84-1.66-1.793-1.66c-0.829,0-1.522,0.556-1.733,1.309
		c-0.08-0.016-0.163-0.025-0.248-0.025c-0.574,0-1.052,0.388-1.193,0.913c-0.132-0.05-0.27-0.083-0.417-0.083
		c-0.624,0-1.127,0.498-1.127,1.112c0,0.209,0.073,0.393,0.172,0.559h9.286C312.3,177.586,312.336,177.493,312.336,177.389z"/>
	<path id="XMLID_197_" fill="#F1F2F2" d="M335.506,168.282c0-0.496-0.407-0.896-0.907-0.896c-0.139,0-0.268,0.035-0.384,0.091
		c-0.173-0.349-0.499-0.59-0.892-0.671c0.016-0.091,0.052-0.174,0.052-0.269c0-0.823-0.676-1.49-1.51-1.49
		c-0.396,0-0.748,0.156-1.017,0.402c-0.102-1.423-1.29-2.548-2.758-2.548c-1.275,0-2.338,0.854-2.663,2.007
		c-0.123-0.023-0.249-0.036-0.38-0.036c-0.884,0-1.619,0.597-1.835,1.401c-0.2-0.077-0.415-0.127-0.643-0.127
		c-0.957,0-1.733,0.767-1.733,1.71c0,0.32,0.112,0.603,0.269,0.86h14.271C335.455,168.585,335.506,168.442,335.506,168.282z"/>
	<g id="XMLID_109_">
		<polygon fill="#414042" points="317.649,199.908 316.05,198.615 344.095,164.899 370.695,198.635 369.065,199.889 
			344.052,168.166 		"/>
	</g>
	<g id="XMLID_158_">
		<polygon fill="#414042" points="398.434,161.321 396.367,161.321 396.367,148.193 331.466,148.193 331.466,146.154 
			398.434,146.154 		"/>
	</g>
</g>
<g id="XMLID_367_">
	<g id="XMLID_596_">
		<path id="XMLID_636_" fill="#FFFFFF" d="M301.188,208.72h-98.109c-0.758,0-1.379-0.61-1.379-1.36V50.935
			c0-0.748,0.621-1.36,1.379-1.36h98.109c0.757,0,1.376,0.612,1.376,1.36v156.425C302.564,208.109,301.945,208.72,301.188,208.72z"
			/>
		<g id="XMLID_194_">
			<rect x="301.531" y="79.047" fill="#414042" width="2.068" height="9.177"/>
		</g>
		<g id="XMLID_185_">
			<path fill="#414042" d="M202.734,80.693h-2.067V51.066c0-1.385,1.141-2.511,2.545-2.511h97.839c1.404,0,2.548,1.126,2.548,2.511
				v7.948h-2.068v-7.948c0-0.255-0.22-0.472-0.479-0.472h-97.839c-0.259,0-0.479,0.217-0.479,0.472V80.693z"/>
		</g>
		<g id="XMLID_108_">
			<rect x="200.667" y="129.897" fill="#414042" width="2.067" height="6.634"/>
		</g>
		<g id="XMLID_637_">
			<rect x="239.262" y="59.271" fill="#414042" width="25.825" height="2.04"/>
		</g>
		<rect id="XMLID_638_" x="209.44" y="69.166" fill="#E6E7E8" width="85.384" height="120.704"/>
		<rect id="XMLID_102_" x="209.44" y="79.723" fill="#F4A800" width="85.384" height="59.774"/>
		<rect id="XMLID_101_" x="209.44" y="69.166" fill="#BCBEC0" width="85.384" height="10.557"/>
		<polygon id="XMLID_287_" opacity="0.21" fill="#231F20" points="290.862,69.166 290.862,185.958 209.44,185.958 209.44,189.87 
			294.823,189.87 294.823,69.166 		"/>
		<g>
			<rect x="212.342" y="71.018" fill="#FFFFFF" width="8.262" height="0.865"/>
			<rect x="212.342" y="73.626" fill="#FFFFFF" width="8.262" height="0.864"/>
			<rect x="212.342" y="76.234" fill="#FFFFFF" width="8.262" height="0.865"/>
		</g>
		<rect x="214.345" y="143.617" fill="#D1D3D4" width="59.328" height="11.116"/>
		<rect x="214.345" y="161.232" fill="#D1D3D4" width="37.831" height="7.486"/>
		<rect x="214.345" y="171.359" fill="#D1D3D4" width="37.831" height="7.486"/>
	</g>
</g>
<g id="XMLID_347_">
	<path id="XMLID_100_" fill="#FFFFFF" d="M329.085,115.374v93.517h-10.074v-93.517l4.768-12.366c0.095-0.244,0.445-0.244,0.54,0
		L329.085,115.374z"/>
	<rect id="XMLID_345_" x="319.011" y="115.374" fill="#F4A800" width="10.074" height="93.517"/>
	<rect id="XMLID_99_" x="319.011" y="115.374" fill="#F6B933" width="5.036" height="93.517"/>
	<rect id="XMLID_343_" x="318.736" y="197.304" fill="#FFFFFF" width="10.628" height="11.604"/>
	<g id="XMLID_98_">
		<path fill="#414042" d="M330.121,209.911h-12.145l0.069-94.899l4.767-12.366c0.197-0.512,0.685-0.841,1.237-0.841
			c0.554,0,1.038,0.329,1.238,0.841l4.833,12.728V209.911z M320.044,207.87h8.009v-92.309l-4.006-10.385l-4.003,10.385V207.87z"/>
	</g>
	<g id="XMLID_97_">
		<rect x="319.011" y="196.285" fill="#414042" width="10.353" height="2.039"/>
	</g>
	<g id="XMLID_96_">
		<rect x="319.645" y="114.354" fill="#414042" width="8.808" height="2.041"/>
	</g>
</g>
<g id="XMLID_85_">
	<rect id="XMLID_327_" x="287.869" y="89.881" fill="#BCBEC0" width="25.042" height="119.01"/>
	<rect id="XMLID_329_" x="301.769" y="89.881" fill="#FFFFFF" width="11.142" height="119.01"/>
	<g id="XMLID_331_">
		<rect x="305.218" y="109.104" fill="#414042" width="7.692" height="2.04"/>
	</g>
	<g id="XMLID_326_">
		<rect x="305.218" y="93.398" fill="#414042" width="7.692" height="2.04"/>
	</g>
	<g id="XMLID_330_">
		<rect x="305.218" y="124.807" fill="#414042" width="7.692" height="2.04"/>
	</g>
	<g id="XMLID_332_">
		<rect x="305.218" y="140.514" fill="#414042" width="7.692" height="2.04"/>
	</g>
	<g id="XMLID_333_">
		<rect x="305.218" y="156.218" fill="#414042" width="7.692" height="2.04"/>
	</g>
	<g id="XMLID_334_">
		<rect x="305.218" y="187.628" fill="#414042" width="7.692" height="2.04"/>
	</g>
	<g id="XMLID_335_">
		<rect x="305.218" y="171.922" fill="#414042" width="7.692" height="2.041"/>
	</g>
	<g id="XMLID_95_">
		<rect x="305.218" y="203.333" fill="#414042" width="7.692" height="2.039"/>
	</g>
	<g id="XMLID_91_">
		<path fill="#414042" d="M313.946,209.911h-27.11V88.86h27.11V209.911z M288.904,207.87h22.974V90.9h-22.974V207.87z"/>
	</g>
</g>
<g>
	<rect x="130.45" y="105.877" fill="#414042" width="2.857" height="2.815"/>
	<rect x="130.45" y="112.06" fill="#414042" width="2.857" height="2.814"/>
	<rect x="130.45" y="118.24" fill="#414042" width="2.857" height="2.815"/>
	<rect x="130.45" y="124.421" fill="#414042" width="2.857" height="2.814"/>
	<rect x="130.45" y="130.602" fill="#414042" width="2.857" height="2.815"/>
	<rect x="130.45" y="136.781" fill="#414042" width="2.857" height="2.817"/>
	<rect x="130.45" y="142.963" fill="#414042" width="2.857" height="2.815"/>
	<g>
		<path fill="#808285" d="M154.07,108.682H137.73c-0.78,0-1.414-0.627-1.414-1.396c0-0.772,0.633-1.396,1.414-1.396h16.339
			c0.78,0,1.414,0.624,1.414,1.396C155.484,108.055,154.85,108.682,154.07,108.682z"/>
	</g>
	<g>
		<path fill="#808285" d="M159.145,114.862h-17.941c-0.781,0-1.414-0.625-1.414-1.396c0-0.771,0.633-1.396,1.414-1.396h17.941
			c0.781,0,1.417,0.626,1.417,1.396C160.562,114.237,159.926,114.862,159.145,114.862z"/>
	</g>
	<g>
		<path fill="#808285" d="M145.398,121.044h-5.829c-0.781,0-1.414-0.625-1.414-1.396s0.633-1.397,1.414-1.397h5.829
			c0.78,0,1.413,0.626,1.413,1.397S146.179,121.044,145.398,121.044z"/>
	</g>
	<g>
		<path fill="#F4A800" d="M155.612,121.044h-5.825c-0.784,0-1.418-0.625-1.418-1.396s0.634-1.397,1.418-1.397h5.825
			c0.781,0,1.414,0.626,1.414,1.397S156.393,121.044,155.612,121.044z"/>
	</g>
	<g>
		<path fill="#808285" d="M179.24,121.044h-19.239c-0.781,0-1.417-0.625-1.417-1.396s0.636-1.397,1.417-1.397h19.239
			c0.784,0,1.417,0.626,1.417,1.397S180.024,121.044,179.24,121.044z"/>
	</g>
	<g>
		<path fill="#808285" d="M164.488,127.224h-21.587c-0.781,0-1.414-0.624-1.414-1.397c0-0.77,0.633-1.394,1.414-1.394h21.587
			c0.781,0,1.414,0.624,1.414,1.394C165.902,126.6,165.269,127.224,164.488,127.224z"/>
	</g>
	<g>
		<path fill="#F4A800" d="M174.797,127.224h-5.712c-0.78,0-1.417-0.624-1.417-1.397c0-0.77,0.637-1.394,1.417-1.394h5.712
			c0.78,0,1.414,0.624,1.414,1.394C176.211,126.6,175.578,127.224,174.797,127.224z"/>
	</g>
	<g>
		<path fill="#808285" d="M167.961,133.403H137.73c-0.78,0-1.414-0.624-1.414-1.396c0-0.771,0.633-1.396,1.414-1.396h30.231
			c0.781,0,1.413,0.625,1.413,1.396C169.375,132.779,168.742,133.403,167.961,133.403z"/>
	</g>
	<g>
		<path fill="#F4A800" d="M159.517,139.587h-16.335c-0.782,0-1.417-0.627-1.417-1.396c0-0.771,0.636-1.396,1.417-1.396h16.335
			c0.78,0,1.413,0.624,1.413,1.396C160.93,138.96,160.297,139.587,159.517,139.587z"/>
	</g>
	<g>
		<path fill="#808285" d="M171.325,139.587h-7.199c-0.781,0-1.414-0.627-1.414-1.396c0-0.771,0.633-1.396,1.414-1.396h7.199
			c0.78,0,1.413,0.624,1.413,1.396C172.737,138.96,172.104,139.587,171.325,139.587z"/>
	</g>
	<g>
		<path fill="#F4A800" d="M154.07,145.769H137.73c-0.78,0-1.414-0.627-1.414-1.397c0-0.77,0.633-1.396,1.414-1.396h16.339
			c0.78,0,1.414,0.626,1.414,1.396C155.484,145.142,154.85,145.769,154.07,145.769z"/>
	</g>
	<g>
		<path fill="#808285" d="M176.201,145.769h-16.335c-0.784,0-1.416-0.627-1.416-1.397c0-0.77,0.632-1.396,1.416-1.396h16.335
			c0.781,0,1.414,0.626,1.414,1.396C177.615,145.142,176.982,145.769,176.201,145.769z"/>
	</g>
	<g>
		<path fill="#808285" d="M179.24,108.682h-11.953c-0.781,0-1.413-0.627-1.413-1.396c0-0.772,0.632-1.396,1.413-1.396h11.953
			c0.784,0,1.417,0.624,1.417,1.396C180.657,108.055,180.024,108.682,179.24,108.682z"/>
	</g>
	<g>
		<path fill="#F4A800" d="M162.423,108.682h-4.335c-0.782,0-1.414-0.627-1.414-1.396c0-0.772,0.632-1.396,1.414-1.396h4.335
			c0.784,0,1.417,0.624,1.417,1.396C163.839,108.055,163.207,108.682,162.423,108.682z"/>
	</g>
</g>
<g>
	<rect x="130.38" y="149.719" fill="#414042" width="2.856" height="2.816"/>
	<rect x="130.38" y="155.901" fill="#414042" width="2.856" height="2.816"/>
	<rect x="130.38" y="162.083" fill="#414042" width="2.856" height="2.815"/>
	<rect x="130.38" y="168.264" fill="#414042" width="2.856" height="2.815"/>
	<rect x="130.38" y="174.444" fill="#414042" width="2.856" height="2.814"/>
	<rect x="130.38" y="180.626" fill="#414042" width="2.856" height="2.813"/>
	<rect x="130.38" y="186.806" fill="#414042" width="2.856" height="2.815"/>
	<g>
		<path fill="#808285" d="M153.999,152.524H137.66c-0.78,0-1.414-0.626-1.414-1.397c0-0.771,0.634-1.396,1.414-1.396h16.339
			c0.781,0,1.414,0.626,1.414,1.396C155.412,151.898,154.779,152.524,153.999,152.524z"/>
	</g>
	<g>
		<path fill="#808285" d="M159.075,158.704h-17.942c-0.781,0-1.414-0.624-1.414-1.396c0-0.771,0.633-1.396,1.414-1.396h17.942
			c0.781,0,1.417,0.625,1.417,1.396C160.491,158.08,159.855,158.704,159.075,158.704z"/>
	</g>
	<g>
		<path fill="#808285" d="M145.326,164.886h-5.828c-0.781,0-1.414-0.626-1.414-1.396c0-0.771,0.633-1.397,1.414-1.397h5.828
			c0.781,0,1.415,0.626,1.415,1.397C146.741,164.26,146.107,164.886,145.326,164.886z"/>
	</g>
	<g>
		<path fill="#F4A800" d="M155.542,164.886h-5.825c-0.785,0-1.417-0.626-1.417-1.396c0-0.771,0.633-1.397,1.417-1.397h5.825
			c0.78,0,1.414,0.626,1.414,1.397C156.956,164.26,156.322,164.886,155.542,164.886z"/>
	</g>
	<g>
		<path fill="#808285" d="M179.169,164.886h-19.239c-0.781,0-1.417-0.626-1.417-1.396c0-0.771,0.636-1.397,1.417-1.397h19.239
			c0.784,0,1.417,0.626,1.417,1.397C180.586,164.26,179.953,164.886,179.169,164.886z"/>
	</g>
	<g>
		<path fill="#808285" d="M164.417,171.066H142.83c-0.78,0-1.413-0.624-1.413-1.396c0-0.77,0.633-1.396,1.413-1.396h21.588
			c0.78,0,1.414,0.626,1.414,1.396C165.832,170.442,165.198,171.066,164.417,171.066z"/>
	</g>
	<g>
		<path fill="#F4A800" d="M174.727,171.066h-5.712c-0.78,0-1.417-0.624-1.417-1.396c0-0.77,0.637-1.396,1.417-1.396h5.712
			c0.78,0,1.414,0.626,1.414,1.396C176.14,170.442,175.507,171.066,174.727,171.066z"/>
	</g>
	<g>
		<path fill="#808285" d="M167.891,177.248H137.66c-0.78,0-1.414-0.626-1.414-1.396c0-0.772,0.634-1.396,1.414-1.396h30.231
			c0.781,0,1.414,0.624,1.414,1.396C169.304,176.622,168.671,177.248,167.891,177.248z"/>
	</g>
	<g>
		<path fill="#F4A800" d="M159.446,183.431h-16.335c-0.782,0-1.418-0.625-1.418-1.397c0-0.771,0.636-1.396,1.418-1.396h16.335
			c0.781,0,1.414,0.624,1.414,1.396C160.859,182.806,160.227,183.431,159.446,183.431z"/>
	</g>
	<g>
		<path fill="#808285" d="M171.253,183.431h-7.197c-0.781,0-1.415-0.625-1.415-1.397c0-0.771,0.633-1.396,1.415-1.396h7.197
			c0.782,0,1.414,0.624,1.414,1.396C172.667,182.806,172.035,183.431,171.253,183.431z"/>
	</g>
	<g>
		<path fill="#F4A800" d="M153.999,189.611H137.66c-0.78,0-1.414-0.626-1.414-1.397c0-0.771,0.634-1.396,1.414-1.396h16.339
			c0.781,0,1.414,0.626,1.414,1.396C155.412,188.985,154.779,189.611,153.999,189.611z"/>
	</g>
	<g>
		<path fill="#808285" d="M176.131,189.611h-16.336c-0.783,0-1.417-0.626-1.417-1.397c0-0.771,0.634-1.396,1.417-1.396h16.336
			c0.78,0,1.414,0.626,1.414,1.396C177.544,188.985,176.911,189.611,176.131,189.611z"/>
	</g>
	<g>
		<path fill="#808285" d="M179.169,152.524h-11.953c-0.781,0-1.413-0.626-1.413-1.397c0-0.771,0.632-1.396,1.413-1.396h11.953
			c0.784,0,1.417,0.626,1.417,1.396C180.586,151.898,179.953,152.524,179.169,152.524z"/>
	</g>
	<g>
		<path fill="#F4A800" d="M162.352,152.524h-4.336c-0.781,0-1.413-0.626-1.413-1.397c0-0.771,0.632-1.396,1.413-1.396h4.336
			c0.784,0,1.417,0.626,1.417,1.396C163.769,151.898,163.136,152.524,162.352,152.524z"/>
	</g>
</g>
<g>
	<path id="XMLID_854_" fill="#FFFFFF" d="M219.133,125.229l-4.485-12.87c0.944-3.334,1.226-6.908,0.673-10.556
		c-2.101-13.861-15.192-23.417-29.241-21.345c-14.049,2.073-23.734,14.991-21.633,28.851c2.101,13.861,15.192,23.417,29.24,21.345
		c4.961-0.732,9.359-2.835,12.904-5.836L219.133,125.229z"/>
	<g id="XMLID_90_">
		<path fill="#414042" d="M189.867,131.955c-13.018,0-24.459-9.417-26.442-22.495c-2.181-14.395,7.913-27.857,22.503-30.012
			c14.591-2.145,28.234,7.808,30.416,22.203c0.541,3.573,0.334,7.162-0.614,10.672l4.869,13.972l-13.642-0.445
			c-3.77,3.094-8.295,5.102-13.115,5.813C192.506,131.859,191.178,131.955,189.867,131.955z M189.9,81.196
			c-1.211,0-2.434,0.089-3.667,0.271c-13.463,1.985-22.778,14.408-20.765,27.689c2.014,13.286,14.607,22.476,28.066,20.487
			c4.568-0.672,8.85-2.609,12.385-5.601l0.305-0.256l11.442,0.372l-4.102-11.77l0.087-0.307c0.942-3.33,1.159-6.738,0.646-10.129
			C212.47,89.886,201.911,81.196,189.9,81.196z"/>
	</g>
	<path id="XMLID_79_" fill="#F4A800" d="M202.014,101.441l-2.28,0.328c-0.446-1.13-1.078-2.154-1.855-3.041l1.372-1.83
		c0.492-0.652,0.355-1.575-0.308-2.056l-1.387-1.014c-0.66-0.482-1.594-0.348-2.083,0.302l-1.375,1.832
		c-1.087-0.475-2.264-0.771-3.485-0.86l-0.34-2.25c-0.122-0.802-0.883-1.357-1.699-1.236l-1.704,0.251
		c-0.816,0.121-1.376,0.87-1.255,1.674l0.34,2.248c-1.125,0.431-2.143,1.045-3.036,1.79l-1.845-1.359
		c-0.661-0.484-1.597-0.358-2.086,0.298l-1.035,1.363c-0.491,0.646-0.357,1.572,0.301,2.056l1.845,1.365
		c-0.483,1.069-0.79,2.231-0.885,3.437l-2.279,0.327c-0.817,0.112-1.379,0.863-1.256,1.67l0.244,1.684
		c0.116,0.801,0.873,1.358,1.688,1.245l2.276-0.329c0.445,1.134,1.071,2.156,1.847,3.04l-1.379,1.834
		c-0.489,0.646-0.354,1.567,0.307,2.055l1.378,1.015c0.665,0.491,1.599,0.353,2.089-0.299l1.377-1.822
		c1.088,0.475,2.262,0.779,3.492,0.871l0.331,2.245c0.118,0.805,0.876,1.363,1.69,1.243l1.707-0.246
		c0.815-0.119,1.379-0.861,1.257-1.663l-0.333-2.251c1.145-0.438,2.184-1.062,3.086-1.826l1.85,1.361
		c0.66,0.482,1.595,0.344,2.091-0.308l1.022-1.366c0.493-0.649,0.357-1.574-0.309-2.052l-1.843-1.361
		c0.479-1.075,0.784-2.232,0.876-3.444l2.277-0.328c0.814-0.121,1.375-0.869,1.257-1.671l-0.256-1.687
		C203.58,101.875,202.827,101.322,202.014,101.441z M190.519,110.179c-2.585,0.383-4.992-1.373-5.379-3.927
		c-0.387-2.549,1.396-4.917,3.981-5.298c2.582-0.381,4.987,1.37,5.373,3.917C194.88,107.426,193.101,109.8,190.519,110.179z"/>
	<g id="XMLID_216_">
		<path fill="#414042" d="M190.795,120.554c-0.536,0-1.057-0.171-1.496-0.494c-0.543-0.397-0.896-0.979-0.994-1.638l-0.216-1.47
			c-0.755-0.111-1.5-0.297-2.229-0.558l-0.903,1.193c-0.399,0.532-0.988,0.881-1.656,0.977c-0.668,0.098-1.335-0.069-1.879-0.47
			l-1.378-1.015c-1.116-0.823-1.348-2.385-0.518-3.481l0.903-1.199c-0.456-0.605-0.85-1.255-1.178-1.942l-1.489,0.216
			c-1.377,0.188-2.667-0.755-2.862-2.109l-0.244-1.685c-0.1-0.656,0.069-1.318,0.474-1.854c0.405-0.534,0.995-0.878,1.663-0.971
			l1.486-0.213c0.115-0.749,0.304-1.483,0.565-2.195l-1.209-0.895c-0.536-0.394-0.887-0.974-0.983-1.633
			c-0.098-0.659,0.07-1.317,0.475-1.85l1.035-1.362c0.393-0.527,0.977-0.875,1.642-0.974c0.67-0.098,1.341,0.066,1.888,0.466
			l1.213,0.895c0.605-0.44,1.245-0.818,1.912-1.13l-0.223-1.472c-0.206-1.358,0.747-2.629,2.125-2.833l1.703-0.252
			c0.668-0.097,1.333,0.065,1.877,0.461c0.543,0.396,0.897,0.976,0.997,1.633l0.223,1.474c0.761,0.11,1.504,0.293,2.224,0.548
			l0.9-1.199c0.825-1.102,2.409-1.332,3.529-0.515l1.388,1.015c0.54,0.392,0.893,0.97,0.993,1.629c0.1,0.66-0.067,1.319-0.472,1.855
			l-0.896,1.196c0.46,0.608,0.855,1.257,1.185,1.944l1.493-0.215c0.663-0.098,1.33,0.065,1.871,0.462
			c0.541,0.396,0.891,0.974,0.99,1.629l0.256,1.686c0.2,1.359-0.753,2.627-2.125,2.83l-1.492,0.216
			c-0.112,0.747-0.3,1.483-0.561,2.201l1.208,0.892c0.536,0.385,0.892,0.964,0.993,1.625c0.1,0.661-0.069,1.321-0.476,1.855
			l-1.018,1.359c-0.839,1.104-2.425,1.335-3.537,0.522l-1.214-0.893c-0.618,0.452-1.277,0.843-1.969,1.164l0.219,1.478
			c0.099,0.651-0.067,1.306-0.465,1.836c-0.402,0.538-0.993,0.888-1.664,0.985l-1.709,0.244
			C191.043,120.545,190.919,120.554,190.795,120.554z M185.17,113.895l0.753,0.328c1.015,0.441,2.075,0.709,3.152,0.788l0.826,0.062
			l0.45,3.053c0.024,0.162,0.124,0.256,0.18,0.297c0.056,0.044,0.177,0.113,0.334,0.085l1.71-0.246
			c0.164-0.024,0.26-0.122,0.303-0.18c0.041-0.055,0.106-0.168,0.082-0.324l-0.454-3.059l0.768-0.295
			c1.016-0.39,1.954-0.944,2.788-1.649l0.628-0.531l2.512,1.849c0.201,0.148,0.493,0.104,0.647-0.102l1.018-1.358
			c0.102-0.136,0.099-0.269,0.089-0.336c-0.01-0.068-0.046-0.194-0.176-0.288l-2.511-1.854l0.331-0.74
			c0.444-0.996,0.71-2.043,0.791-3.11l0.062-0.816l3.097-0.445c0.246-0.035,0.419-0.268,0.382-0.514l-0.255-1.683
			c-0.024-0.16-0.122-0.252-0.178-0.292c-0.054-0.043-0.169-0.108-0.333-0.083h-0.004l-3.092,0.444l-0.299-0.755
			c-0.399-1.006-0.962-1.931-1.675-2.745l-0.541-0.618l1.863-2.486c0.101-0.132,0.098-0.268,0.087-0.338
			c-0.01-0.068-0.046-0.195-0.175-0.289l-1.391-1.017c-0.204-0.149-0.491-0.107-0.638,0.092l-1.867,2.486l-0.757-0.331
			c-0.993-0.435-2.049-0.695-3.144-0.776l-0.823-0.061l-0.462-3.056c-0.024-0.158-0.125-0.252-0.182-0.293
			c-0.056-0.042-0.173-0.102-0.342-0.085l-1.704,0.252c-0.25,0.036-0.422,0.267-0.385,0.513l0.463,3.056l-0.771,0.295
			c-0.984,0.377-1.907,0.92-2.742,1.618l-0.627,0.524l-2.504-1.847c-0.133-0.096-0.273-0.094-0.347-0.084
			c-0.082,0.013-0.2,0.053-0.29,0.173l-1.039,1.368c-0.096,0.129-0.094,0.264-0.083,0.333c0.01,0.069,0.046,0.199,0.175,0.294
			l2.508,1.855l-0.337,0.744c-0.444,0.982-0.713,2.027-0.8,3.1l-0.064,0.813l-3.096,0.444c-0.164,0.021-0.257,0.116-0.298,0.171
			c-0.043,0.056-0.109,0.174-0.085,0.338l0.245,1.689c0.035,0.245,0.267,0.42,0.522,0.38l3.085-0.445l0.297,0.759
			c0.398,1.013,0.958,1.935,1.665,2.743l0.542,0.619l-1.873,2.488c-0.151,0.197-0.107,0.479,0.096,0.63l1.378,1.013
			c0.134,0.101,0.272,0.096,0.342,0.088c0.069-0.011,0.201-0.047,0.297-0.175L185.17,113.895z M189.817,111.251
			c-2.806,0-5.272-2.03-5.7-4.848c-0.469-3.098,1.708-5.996,4.851-6.459c1.522-0.222,3.041,0.149,4.277,1.049
			c1.237,0.901,2.044,2.224,2.271,3.726c0.47,3.104-1.703,6.004-4.844,6.469l0,0C190.384,111.231,190.099,111.251,189.817,111.251z
			 M189.83,101.922c-0.185,0-0.372,0.014-0.556,0.042c-2.018,0.295-3.413,2.153-3.113,4.138c0.303,1.989,2.184,3.37,4.206,3.068
			c2.014-0.296,3.406-2.157,3.105-4.147c-0.147-0.963-0.663-1.812-1.455-2.387C191.375,102.166,190.613,101.922,189.83,101.922z"/>
	</g>
</g>
<g>
	<path fill="#F8CB66" d="M220.332,145.32c-3.22,0-5.582-0.105-7.021-0.312c-6.131-0.883-9.719-3.71-11.212-5.174
		c-0.099,0.097-0.231,0.216-0.348,0.326c-1.657,1.551-5.136,4.104-10.678,4.772c-1.588,0.191-4.256,0.288-7.929,0.288
		c-4.818,0-10.168-0.169-12.392-0.246c0.101,11.953,1.958,21.84,4.614,29.943c3.1,9.463,7.292,16.488,11.105,21.416
		c6.7,8.656,13.479,12.697,15.266,13.67c0.004-0.004,0.012-0.008,0.014-0.011c1.797-1.028,8.573-5.268,15.272-14.027
		c3.759-4.912,7.887-11.846,10.975-21.048c2.727-8.126,4.645-18.018,4.752-29.931C230.491,145.092,225.06,145.32,220.332,145.32z"/>
	<path fill="#F4A800" d="M213.312,145.008c-6.124-0.883-9.709-3.703-11.205-5.17l-0.355,68.976c0.247,0.146,1.168-0.462,1.333-0.374
		c1.346-1.562,0.889-1.034,0.893-1.035c1.797-1.031,6.347-2.679,13.045-11.438c3.759-4.912,7.887-11.846,10.975-21.048
		c2.727-8.126,4.645-18.018,4.752-29.931c-2.259,0.104-7.69,0.333-12.418,0.333C217.112,145.32,214.75,145.215,213.312,145.008z"/>
	<g>
		<path fill="#414042" d="M201.857,210.036l-0.619-0.319c-1.943-1.058-8.812-5.188-15.589-13.943
			c-4.776-6.172-8.566-13.479-11.266-21.722c-3.002-9.162-4.572-19.341-4.664-30.249l-0.008-1.065l1.079,0.036
			c2.102,0.075,7.514,0.248,12.355,0.248c3.632,0,6.256-0.095,7.804-0.279c5.276-0.638,8.587-3.094,10.091-4.502l1.055-1.028
			l0.733,0.719c1.498,1.47,4.87,4.058,10.632,4.888c1.389,0.201,3.701,0.302,6.872,0.302c4.733,0,10.228-0.231,12.37-0.331
			l1.091-0.05l-0.009,1.078c-0.097,10.854-1.713,21.028-4.806,30.241c-2.694,8.03-6.439,15.212-11.129,21.344
			c-6.71,8.772-13.486,13.086-15.512,14.256L201.857,210.036z M171.8,144.85c0.181,10.299,1.71,19.907,4.551,28.576
			c2.627,8.021,6.309,15.123,10.943,21.108c6.026,7.786,12.073,11.749,14.43,13.109c2.341-1.414,8.41-5.542,14.475-13.471
			c4.555-5.952,8.194-12.937,10.818-20.754c2.922-8.706,4.497-18.306,4.686-28.543c-2.6,0.111-7.264,0.284-11.37,0.284
			c-3.27,0-5.682-0.109-7.17-0.322c-5.555-0.802-9.129-3.119-11.061-4.789c-1.83,1.611-5.425,4.056-10.902,4.717
			c-1.629,0.196-4.339,0.297-8.054,0.297C178.96,145.062,174.356,144.935,171.8,144.85z"/>
	</g>
</g>
<g id="XMLID_78_">
	<ellipse id="XMLID_126_" fill="#FFFFFF" cx="202.346" cy="170.035" rx="14.165" ry="13.976"/>
	<g id="XMLID_137_">
		<path fill="#414042" d="M202.347,185.03c-8.38,0-15.199-6.727-15.199-14.995s6.819-14.997,15.199-14.997
			c8.379,0,15.198,6.729,15.198,14.997S210.726,185.03,202.347,185.03z M202.347,157.078c-7.241,0-13.131,5.812-13.131,12.957
			c0,7.144,5.89,12.956,13.131,12.956c7.24,0,13.131-5.812,13.131-12.956C215.478,162.891,209.586,157.078,202.347,157.078z"/>
	</g>
	<g id="XMLID_125_">
		<polygon fill="#414042" points="200.219,175.678 194.399,169.935 195.861,168.492 200.226,172.798 208.839,164.378 
			210.294,165.829 		"/>
	</g>
</g>
<g id="XMLID_1215_">
	<g id="XMLID_1213_">
		<path id="XMLID_1279_" fill="#F1F2F2" d="M122.863,142.164c0,0,6.084,1.18,6.298,6.007l0.008,0.007c0,0,5.519,0.986,3.873,7.569
			c0.022,0.017,4.179,3.138,2.839,10.212l0.008-0.028c0,0,5.731,3.834-0.634,9.527l-0.016,0.663c0,0,0.795,4.679-4.614,8.595
			c0,0-2.248,1.867-5.968,6.299c-1.791,2.133-7.623,4.62-10.517-3.877v-43.492C114.141,143.646,117.892,136.701,122.863,142.164z"/>
		<path id="XMLID_1278_" fill="#F4A800" d="M102.923,142.164c0,0-6.085,1.18-6.3,6.007l-0.008,0.007c0,0-5.518,0.986-3.871,7.569
			c-0.024,0.017-4.18,3.138-2.841,10.212l-0.008-0.028c0,0-5.731,3.834,0.634,9.527l0.015,0.663c0,0-0.796,4.679,4.615,8.595
			c0,0,2.246,1.867,5.968,6.299c1.791,2.133,7.623,4.62,10.516-3.877v-43.492C111.644,143.646,107.895,136.701,102.923,142.164z"/>
		<g id="XMLID_89_">
			<path fill="#414042" d="M115.175,167.54h-2.068v-24.149l0.121-0.226c0.083-0.152,2.034-3.702,5.217-4.084
				c1.717-0.204,3.382,0.521,4.961,2.16c1.337,0.334,6.043,1.812,6.714,6.147c0.871,0.307,2.292,1.003,3.257,2.47
				c0.971,1.479,1.239,3.338,0.802,5.534c1.189,1.182,3.877,4.619,2.717,10.754l-0.872-0.161l0.852,0.248l-2.013-0.462
				c1.199-6.333-2.3-9.098-2.45-9.213l-0.529-0.407l0.153-0.647c0.473-1.891,0.34-3.417-0.396-4.535
				c-0.949-1.447-2.642-1.784-2.658-1.787l-0.292-0.055l-0.538-0.48l-0.027-0.431c-0.176-3.959-5.25-5.01-5.466-5.051l-0.336-0.067
				l-0.231-0.252c-1.168-1.285-2.316-1.87-3.398-1.739c-1.756,0.209-3.118,2.173-3.521,2.816V167.54z"/>
		</g>
		<g id="XMLID_88_">
			<path fill="#414042" d="M112.677,167.54h-2.067v-23.625c-0.538-0.88-1.914-2.619-3.524-2.81c-1.079-0.133-2.226,0.456-3.393,1.74
				l-0.229,0.252l-0.338,0.067c-0.216,0.043-5.293,1.092-5.468,5.051l-0.022,0.475l-0.58,0.439l-0.256,0.052
				c-0.011,0.002-1.723,0.345-2.669,1.806c-0.724,1.116-0.852,2.637-0.382,4.517l0.174,0.695l-0.604,0.396
				c-0.1,0.079-3.598,2.84-2.398,9.176l-2.016,0.446l0.833-0.229l-0.849,0.157c-1.149-6.08,1.508-9.532,2.722-10.745
				c-0.441-2.201-0.173-4.062,0.798-5.543c0.965-1.468,2.387-2.164,3.256-2.47c0.671-4.336,5.379-5.813,6.717-6.147
				c1.579-1.64,3.243-2.364,4.961-2.16c3.183,0.384,5.133,3.932,5.215,4.084l0.121,0.226V167.54z"/>
		</g>
		<g id="XMLID_1277_">
			<path fill="#414042" d="M126.529,161.176c-0.446,0-0.896-0.041-1.343-0.128c-1.813-0.351-3.38-1.378-4.413-2.89
				c-1.032-1.513-1.404-3.334-1.051-5.125l2.03,0.392c-0.249,1.256,0.013,2.532,0.736,3.594c0.724,1.061,1.823,1.78,3.095,2.026
				c1.271,0.247,2.564-0.014,3.641-0.727l1.155,1.691C129.224,160.779,127.892,161.176,126.529,161.176z"/>
		</g>
		<g id="XMLID_1274_">
			<path fill="#414042" d="M120.161,166.639c-1.189-1.398-1.754-3.169-1.592-4.985c0.163-1.817,1.03-3.465,2.446-4.637l1.329,1.564
				c-0.992,0.82-1.603,1.976-1.716,3.251c-0.113,1.273,0.283,2.515,1.117,3.495L120.161,166.639z"/>
		</g>
		<g id="XMLID_1272_">
			<path fill="#414042" d="M124.216,151.925c-1.375-1.22-2.186-2.895-2.284-4.715c-0.098-1.822,0.528-3.573,1.764-4.929l1.537,1.363
				c-0.865,0.952-1.305,2.178-1.236,3.456c0.069,1.277,0.637,2.452,1.602,3.307L124.216,151.925z"/>
		</g>
		<g id="XMLID_1271_">
			<path fill="#414042" d="M117.195,152.452c-0.004,0-0.008,0-0.013,0l0.005-2.039c0.002,0,0.005,0,0.008,0
				c1.293,0,2.51-0.496,3.426-1.397c0.918-0.901,1.426-2.104,1.427-3.383l2.068,0.003c-0.003,1.825-0.727,3.537-2.036,4.824
				C120.774,151.745,119.039,152.452,117.195,152.452z"/>
		</g>
		<g id="XMLID_1268_">
			<path fill="#414042" d="M99.256,161.234c-1.363,0-2.694-0.397-3.85-1.165l1.155-1.692c1.075,0.713,2.365,0.974,3.641,0.726
				c1.272-0.245,2.372-0.964,3.096-2.026s0.985-2.338,0.737-3.594l2.028-0.39c0.355,1.788-0.017,3.608-1.049,5.122
				c-1.033,1.514-2.6,2.541-4.414,2.892C100.152,161.191,99.702,161.234,99.256,161.234z"/>
		</g>
		<g id="XMLID_1265_">
			<path fill="#414042" d="M105.625,166.695l-1.583-1.309c0.834-0.982,1.23-2.223,1.118-3.498c-0.114-1.274-0.724-2.428-1.716-3.248
				l1.328-1.565c1.416,1.171,2.285,2.818,2.446,4.638C107.379,163.529,106.813,165.299,105.625,166.695z"/>
		</g>
		<g id="XMLID_1263_">
			<path fill="#414042" d="M101.57,151.981l-1.382-1.516c0.964-0.856,1.532-2.029,1.601-3.308c0.069-1.275-0.371-2.504-1.237-3.456
				l1.538-1.364c1.235,1.358,1.861,3.109,1.764,4.929C103.755,149.089,102.945,150.763,101.57,151.981z"/>
		</g>
		<g id="XMLID_1262_">
			<path fill="#414042" d="M108.59,152.512c-1.845,0-3.58-0.707-4.886-1.993c-1.309-1.285-2.032-2.999-2.035-4.825l2.067-0.003
				c0.001,1.28,0.509,2.481,1.428,3.384c0.916,0.901,2.131,1.396,3.425,1.396c0.002,0,0.006,0,0.009,0l0.003,2.041
				C108.599,152.512,108.594,152.512,108.59,152.512z"/>
		</g>
	</g>
	<rect id="XMLID_1212_" x="81.729" y="167.756" fill="#FFFFFF" width="62.58" height="41.228"/>
	<polygon id="XMLID_1219_" fill="#D1D3D4" points="142.358,167.755 142.358,207.06 81.729,207.06 81.729,208.983 144.308,208.983 
		144.308,167.755 	"/>
	<rect id="XMLID_1220_" x="81.729" y="167.755" fill="#E6E7E8" width="1.95" height="41.229"/>
	<polygon id="XMLID_1231_" fill="#BCBEC0" points="81.729,167.755 81.729,168.888 84.654,176.673 144.308,176.673 144.308,168.888 
		143.883,167.755 	"/>
	<polygon id="XMLID_1214_" fill="#FFFFFF" points="148.209,173.785 85.629,173.785 81.729,167.756 144.308,167.756 	"/>
	<g id="XMLID_86_">
		<path fill="#414042" d="M150.226,174.806H85.04l-4.44-7.395h64.239L150.226,174.806z M86.218,172.765h59.975l-2.415-3.315h-59.55
			L86.218,172.765z"/>
	</g>
	<g id="XMLID_145_">
		<rect x="80.694" y="167.756" fill="#414042" width="2.067" height="16.36"/>
	</g>
	<g id="XMLID_140_">
		<rect x="143.275" y="175.188" fill="#414042" width="2.067" height="33.795"/>
	</g>
</g>
<g>
	<ellipse fill="#F4A800" cx="42.371" cy="197.035" rx="12.109" ry="11.948"/>
	<g>
		<path fill="#414042" d="M42.372,210.004c-7.247,0-13.144-5.817-13.144-12.969c0-7.15,5.896-12.968,13.144-12.968
			c4.025,0,7.773,1.784,10.284,4.895l-1.617,1.268c-2.116-2.618-5.274-4.122-8.667-4.122c-6.107,0-11.076,4.903-11.076,10.928
			c0,6.026,4.969,10.928,11.076,10.928c3.516,0,6.858-1.673,8.939-4.476l1.667,1.205C50.509,208.018,46.543,210.004,42.372,210.004z
			"/>
	</g>
	<g>
		<path fill="#FFFFFF" d="M38.917,199.241v0.073l-0.987,0.962l-2.872-2.811v-0.185l2.872-2.809l0.987,0.961v0.074l-1.973,1.873
			L38.917,199.241z"/>
		<path fill="#FFFFFF" d="M45.262,191.811l-4.171,10.449h-1.585l4.158-10.449H45.262z"/>
		<path fill="#FFFFFF" d="M47.799,197.381l-1.974-1.873v-0.074l0.986-0.961l2.872,2.809v0.185l-2.872,2.811l-0.986-0.962v-0.073
			L47.799,197.381z"/>
	</g>
</g>
<g>
	<ellipse fill="#F8CB66" cx="80.867" cy="197.537" rx="11.599" ry="11.446"/>
	<g>
		<path fill="#414042" d="M80.867,210.004c-3.107,0-6.093-1.125-8.41-3.163l1.377-1.523c1.937,1.707,4.435,2.646,7.033,2.646
			c5.826,0,10.565-4.676,10.565-10.426c0-5.747-4.74-10.424-10.565-10.424c-2.823,0-5.476,1.084-7.471,3.053l-1.462-1.442
			c2.385-2.354,5.558-3.649,8.933-3.649c6.966,0,12.633,5.591,12.633,12.463C93.5,204.41,87.833,210.004,80.867,210.004z"/>
	</g>
	<g>
		<polygon fill="#414042" points="79.586,201.767 75.143,197.384 76.711,195.836 79.586,198.673 85.023,193.31 86.591,194.856 		"/>
	</g>
</g>
<g>
	<path fill="#FFFFFF" d="M72.831,195.737c1.441,5.719-2.089,11.506-7.884,12.929c-5.796,1.42-11.662-2.063-13.103-7.78
		c-1.442-5.718,2.088-11.506,7.884-12.929C65.523,186.535,71.39,190.019,72.831,195.737z"/>
	<g>
		<path fill="#414042" d="M62.339,210.003c-5.313,0-10.159-3.561-11.498-8.871c-1.576-6.255,2.299-12.609,8.638-14.164
			c6.343-1.559,12.779,2.268,14.355,8.523c1.576,6.254-2.299,12.609-8.639,14.164C64.24,209.891,63.282,210.003,62.339,210.003z
			 M62.335,188.661c-0.778,0-1.568,0.093-2.358,0.286c-5.232,1.282-8.431,6.53-7.129,11.693c1.3,5.163,6.616,8.317,11.849,7.035
			c5.232-1.284,8.431-6.528,7.13-11.692C70.723,191.599,66.722,188.661,62.335,188.661z"/>
	</g>
	<g>
		<path fill="#414042" d="M61.071,197.638l-0.621-2.466l2.03-0.499l0.621,2.466l2.5-0.612l0.463,1.838l-2.5,0.611l0.625,2.484
			l-2.03,0.498l-0.626-2.483l-2.465,0.606l-0.462-1.84L61.071,197.638z"/>
	</g>
</g>
<path fill="#D1D3D4" d="M427.671,208.775h-11.929c-2.798,0-5.063-2.239-5.063-4.998v-11.77c0-2.76,2.266-4.997,5.063-4.997h11.929
	c2.798,0,5.066,2.237,5.066,4.997v11.77C432.738,206.536,430.469,208.775,427.671,208.775z"/>
<g>
	<path fill="#414042" d="M427.671,209.795h-11.927c-3.363,0-6.1-2.701-6.1-6.018v-11.77c0-3.317,2.736-6.018,6.1-6.018h11.927
		c3.363,0,6.099,2.7,6.099,6.018v11.77C433.77,207.094,431.035,209.795,427.671,209.795z M415.745,188.031
		c-2.223,0-4.032,1.783-4.032,3.977v11.77c0,2.192,1.81,3.978,4.032,3.978h11.927c2.224,0,4.031-1.785,4.031-3.978v-11.77
		c0-2.193-1.808-3.977-4.031-3.977H415.745z"/>
</g>
<path fill="#FFFFFF" d="M402.82,208.775h-11.93c-2.795,0-5.063-2.239-5.063-4.998v-11.77c0-2.76,2.269-4.997,5.063-4.997h11.93
	c2.798,0,5.064,2.237,5.064,4.997v11.77C407.884,206.536,405.618,208.775,402.82,208.775z"/>
<g>
	<path fill="#414042" d="M402.82,209.795h-11.93c-3.361,0-6.097-2.701-6.097-6.018v-11.77c0-3.317,2.735-6.018,6.097-6.018h11.93
		c3.363,0,6.098,2.7,6.098,6.018v11.77C408.917,207.094,406.183,209.795,402.82,209.795z M390.89,188.031
		c-2.223,0-4.031,1.783-4.031,3.977v11.77c0,2.192,1.809,3.978,4.031,3.978h11.93c2.222,0,4.029-1.785,4.029-3.978v-11.77
		c0-2.193-1.808-3.977-4.029-3.977H390.89z"/>
</g>
<path fill="#F4A800" d="M402.82,184.551h-11.93c-2.795,0-5.063-2.237-5.063-4.997v-11.771c0-2.761,2.269-4.997,5.063-4.997h11.93
	c2.798,0,5.064,2.236,5.064,4.997v11.771C407.884,182.313,405.618,184.551,402.82,184.551z"/>
<g>
	<path fill="#414042" d="M402.82,185.57h-11.93c-3.361,0-6.097-2.699-6.097-6.017v-11.771c0-3.318,2.735-6.017,6.097-6.017h11.93
		c3.363,0,6.098,2.698,6.098,6.017v11.771C408.917,182.871,406.183,185.57,402.82,185.57z M390.89,163.807
		c-2.223,0-4.031,1.782-4.031,3.977v11.771c0,2.191,1.809,3.977,4.031,3.977h11.93c2.222,0,4.029-1.785,4.029-3.977v-11.771
		c0-2.194-1.808-3.977-4.029-3.977H390.89z"/>
</g>
<g>
	<g id="XMLID_562_">
		
			<rect x="362.096" y="93.172" transform="matrix(1 0.0061 -0.0061 1 0.6069 -2.227)" fill="#414042" width="2.068" height="9.196"/>
	</g>
	<g id="XMLID_568_">
		<polygon fill="#414042" points="377.598,108.578 376.151,107.123 382.8,100.682 384.25,102.138 		"/>
	</g>
	<g id="XMLID_570_">
		<polygon fill="#414042" points="384.442,104.889 379.648,100.266 381.093,98.808 385.889,103.43 		"/>
	</g>
	<g id="XMLID_571_">
		<polygon fill="#414042" points="342.465,104.889 341.019,103.43 345.813,98.808 347.259,100.266 		"/>
	</g>
	<g id="XMLID_569_">
		<polygon fill="#414042" points="349.56,108.578 342.909,102.138 344.357,100.682 351.009,107.123 		"/>
	</g>
	<ellipse id="XMLID_546_" fill="#FFFFFF" cx="363.028" cy="121.625" rx="24.005" ry="23.686"/>
	<path id="XMLID_560_" fill="#F4A800" d="M363.026,97.94c13.258,0,24.007,10.604,24.007,23.685h-24.007V97.94z"/>
	<ellipse id="XMLID_547_" fill="#414042" cx="362.993" cy="102.026" rx="1.079" ry="1.065"/>
	<path id="XMLID_548_" fill="#414042" d="M373.855,105.161c-0.299,0.51-0.958,0.685-1.475,0.391s-0.693-0.944-0.397-1.454
		c0.299-0.51,0.96-0.685,1.477-0.391C373.974,104,374.151,104.652,373.855,105.161z"/>
	<path id="XMLID_549_" fill="#414042" d="M380.743,112.7c-0.519,0.291-1.178,0.118-1.477-0.39c-0.298-0.509-0.121-1.161,0.393-1.456
		c0.517-0.294,1.179-0.121,1.477,0.39C381.434,111.753,381.257,112.404,380.743,112.7z"/>
	<ellipse id="XMLID_550_" fill="#414042" cx="382.89" cy="121.558" rx="1.079" ry="1.066"/>
	<path id="XMLID_551_" fill="#414042" d="M379.733,132.28c-0.519-0.293-0.697-0.944-0.4-1.454c0.297-0.512,0.956-0.686,1.475-0.395
		c0.515,0.293,0.694,0.944,0.396,1.454C380.909,132.396,380.248,132.571,379.733,132.28z"/>
	<path id="XMLID_552_" fill="#414042" d="M372.105,139.089c-0.299-0.51-0.124-1.161,0.391-1.457s1.176-0.123,1.477,0.386
		c0.298,0.508,0.123,1.162-0.392,1.456C373.067,139.77,372.405,139.598,372.105,139.089z"/>
	<ellipse id="XMLID_553_" fill="#414042" cx="363.131" cy="141.224" rx="1.08" ry="1.064"/>
	<path id="XMLID_554_" fill="#414042" d="M352.257,138.126c0.297-0.511,0.956-0.688,1.473-0.396
		c0.519,0.293,0.696,0.942,0.402,1.454c-0.296,0.511-0.955,0.688-1.474,0.396C352.142,139.288,351.962,138.637,352.257,138.126z"/>
	<path id="XMLID_555_" fill="#414042" d="M345.345,130.612c0.515-0.296,1.175-0.125,1.477,0.384c0.3,0.507,0.126,1.161-0.389,1.456
		c-0.516,0.296-1.177,0.125-1.477-0.382C344.654,131.561,344.829,130.908,345.345,130.612z"/>
	
		<ellipse id="XMLID_556_" transform="matrix(-0.005 -1 1 -0.005 223.1348 465.5342)" fill="#414042" cx="343.164" cy="121.761" rx="1.065" ry="1.081"/>
	<path id="XMLID_557_" fill="#414042" d="M346.286,111.028c0.517,0.291,0.698,0.942,0.403,1.451
		c-0.295,0.512-0.954,0.69-1.473,0.398c-0.519-0.291-0.696-0.941-0.403-1.45C345.108,110.916,345.767,110.737,346.286,111.028z"/>
	<path id="XMLID_558_" fill="#414042" d="M353.887,104.193c0.303,0.51,0.13,1.16-0.386,1.458c-0.515,0.298-1.176,0.126-1.478-0.382
		c-0.301-0.507-0.128-1.159,0.387-1.456C352.926,103.517,353.585,103.686,353.887,104.193z"/>
	<rect id="XMLID_563_" x="359.14" y="90.876" fill="#E6E7E8" width="8.032" height="3.042"/>
	<g id="XMLID_559_">
		<path fill="#414042" d="M368.208,94.938h-10.101v-5.082h10.101V94.938z M360.175,92.897h5.964v-1.001h-5.964V92.897z"/>
	</g>
	<ellipse id="XMLID_565_" fill="#A7A9AC" cx="362.994" cy="121.558" rx="2.457" ry="2.425"/>
	<g id="XMLID_564_">
		<path fill="#414042" d="M362.994,125.003c-1.925,0-3.492-1.547-3.492-3.445c0-1.899,1.567-3.444,3.492-3.444
			c1.924,0,3.49,1.545,3.49,3.444C366.484,123.456,364.917,125.003,362.994,125.003z M362.994,120.152
			c-0.785,0-1.424,0.631-1.424,1.405s0.639,1.405,1.424,1.405s1.422-0.631,1.422-1.405S363.779,120.152,362.994,120.152z"/>
	</g>
	<g id="XMLID_567_">
		<rect x="365.451" y="120.538" fill="#414042" width="12.048" height="2.04"/>
	</g>
	<g id="XMLID_107_">
		<path fill="#414042" d="M363.026,146.33c-13.805,0-25.036-11.083-25.036-24.705c0-13.621,11.231-24.704,25.036-24.704
			c13.808,0,25.039,11.083,25.039,24.704C388.065,135.247,376.833,146.33,363.026,146.33z M363.026,98.961
			c-12.666,0-22.97,10.167-22.97,22.664s10.304,22.665,22.97,22.665c12.668,0,22.972-10.168,22.972-22.665
			S375.694,98.961,363.026,98.961z"/>
	</g>
</g>
<g id="XMLID_74_">
	<path id="XMLID_190_" fill="#FFFFFF" d="M367.237,75.364c0-2.636-2.165-4.771-4.835-4.771c-0.742,0-1.422,0.192-2.049,0.484
		c-0.916-1.852-2.657-3.137-4.756-3.574c0.092-0.479,0.29-0.919,0.29-1.424c0-4.385-3.602-7.94-8.045-7.94
		c-2.104,0-3.985,0.841-5.42,2.146c-0.54-7.574-6.871-13.573-14.684-13.573c-6.792,0-12.451,4.543-14.188,10.698
		c-0.652-0.13-1.326-0.201-2.018-0.201c-4.71,0-8.633,3.18-9.78,7.472c-1.062-0.419-2.205-0.68-3.416-0.68
		c-5.097,0-9.229,4.077-9.229,9.106c0,1.704,0.602,3.21,1.428,4.574h76.008C366.946,76.985,367.237,76.223,367.237,75.364z"/>
	<path id="XMLID_183_" fill="#D1D3D4" d="M310.116,59.229c4.834,0,8.788,3.903,8.788,8.672c0,0.983-0.204,1.915-0.514,2.797
		c0.924-1.372,1.47-3.012,1.47-4.774c0-4.771-3.956-8.672-8.788-8.672l0,0c-3.84,0-7.087,2.476-8.277,5.875
		C304.373,60.784,307.067,59.229,310.116,59.229z"/>
	<path id="XMLID_492_" fill="#D1D3D4" d="M353.669,68.647c-2.164,1.509-5.186,0.997-6.715-1.14
		c-0.314-0.439-0.521-0.919-0.667-1.411c0.026,0.902,0.309,1.807,0.874,2.596c1.529,2.134,4.548,2.647,6.714,1.138l0,0
		c1.717-1.196,2.376-3.319,1.82-5.212C355.741,66.158,355.035,67.694,353.669,68.647z"/>
	<path id="XMLID_163_" fill="#F4A800" d="M340.094,74.015l-2.451-0.009c-0.292-1.259-0.793-2.436-1.47-3.49l1.736-1.713
		c0.62-0.61,0.626-1.603,0.005-2.212l-1.298-1.283c-0.62-0.609-1.625-0.615-2.243-0.006l-1.74,1.715
		c-1.067-0.668-2.261-1.163-3.527-1.448v-2.421c0-0.863-0.716-1.565-1.594-1.565h-1.832c-0.878,0-1.589,0.703-1.589,1.565v2.421
		c-1.254,0.278-2.423,0.767-3.481,1.414l-1.725-1.719c-0.618-0.612-1.626-0.625-2.247-0.009l-1.305,1.272
		c-0.62,0.605-0.627,1.6-0.012,2.212l1.725,1.724c-0.68,1.049-1.189,2.226-1.481,3.479l-2.452-0.009
		c-0.877-0.008-1.587,0.695-1.587,1.563l-0.014,1.81c-0.005,0.862,0.704,1.565,1.58,1.573l2.448,0.007
		c0.288,1.262,0.784,2.437,1.459,3.488l-1.745,1.716c-0.617,0.605-0.623,1.594-0.004,2.21l1.288,1.282
		c0.622,0.619,1.628,0.619,2.248,0.01l1.741-1.705c1.068,0.669,2.255,1.172,3.536,1.46l-0.013,2.415
		c-0.002,0.865,0.707,1.571,1.583,1.571l1.834,0.006c0.878,0,1.592-0.694,1.592-1.556l0.007-2.422
		c1.276-0.283,2.468-0.78,3.541-1.442l1.731,1.721c0.615,0.609,1.624,0.609,2.249,0l1.293-1.279
		c0.623-0.607,0.627-1.602,0.002-2.208l-1.723-1.719c0.677-1.059,1.182-2.228,1.471-3.49l2.45,0.007c0.878,0,1.587-0.698,1.59-1.563
		v-1.815C341.671,74.715,340.966,74.015,340.094,74.015z M326.598,81.429c-2.784,0-5.038-2.222-5.038-4.971
		c0-2.743,2.254-4.958,5.038-4.958c2.779,0,5.031,2.216,5.031,4.958C331.629,79.207,329.377,81.429,326.598,81.429z"/>
	<g id="XMLID_625_">
		<path fill="#414042" d="M327.468,92.361l-1.839-0.007c-0.693,0-1.351-0.27-1.845-0.758c-0.497-0.492-0.771-1.144-0.767-1.835
			l0.008-1.63c-0.807-0.24-1.587-0.563-2.336-0.965l-1.176,1.151c-0.491,0.484-1.148,0.751-1.846,0.751c0,0-0.004,0-0.005,0
			c-0.702-0.002-1.361-0.274-1.857-0.766l-1.29-1.284c-0.49-0.49-0.765-1.14-0.763-1.829c0.002-0.69,0.275-1.337,0.771-1.824
			l1.178-1.157c-0.399-0.729-0.721-1.5-0.963-2.304l-1.65-0.004c-1.451-0.014-2.618-1.179-2.611-2.6l0.015-1.811
			c0-0.691,0.273-1.344,0.774-1.833c0.497-0.486,1.134-0.74,1.854-0.744l1.651,0.007c0.244-0.798,0.572-1.569,0.979-2.301
			l-1.167-1.164c-0.487-0.486-0.758-1.136-0.754-1.827c0.003-0.693,0.279-1.341,0.774-1.826l1.308-1.273
			c0.976-0.968,2.711-0.967,3.703,0.015l1.169,1.163c0.731-0.385,1.492-0.694,2.273-0.925v-1.634c0-1.426,1.177-2.585,2.622-2.585
			h1.832c1.446,0,2.625,1.16,2.625,2.585v1.635c0.811,0.241,1.589,0.559,2.331,0.956l1.175-1.158
			c1.022-1.007,2.684-0.999,3.702,0.004l1.301,1.284c0.494,0.485,0.766,1.133,0.766,1.822c0,0.693-0.275,1.346-0.772,1.834
			l-1.171,1.156c0.402,0.732,0.728,1.505,0.972,2.308l1.654,0.006c1.439,0,2.61,1.157,2.61,2.578v1.815
			c-0.003,1.427-1.179,2.584-2.623,2.584l-1.653-0.005c-0.243,0.798-0.567,1.569-0.974,2.307l1.163,1.162
			c0.49,0.476,0.769,1.125,0.769,1.817c0,0.694-0.276,1.346-0.776,1.835l-1.29,1.274c-1.031,1.007-2.694,1.005-3.714-0.001
			l-1.169-1.164c-0.749,0.397-1.531,0.716-2.339,0.953l-0.005,1.638C330.093,91.207,328.917,92.361,327.468,92.361z M320.385,84.592
			l0.694,0.435c1.004,0.625,2.082,1.073,3.213,1.327l0.81,0.182l-0.016,3.232c0,0.146,0.059,0.284,0.162,0.389
			c0.06,0.059,0.188,0.159,0.386,0.159l1.839,0.006c0.304,0,0.554-0.241,0.554-0.537l0.007-3.239l0.806-0.178
			c1.134-0.252,2.217-0.693,3.219-1.312l0.701-0.433l2.312,2.3c0.213,0.211,0.571,0.211,0.79-0.008l1.29-1.272
			c0.145-0.143,0.166-0.303,0.166-0.387c0-0.082-0.021-0.241-0.161-0.375l-2.309-2.305l0.439-0.686
			c0.631-0.985,1.079-2.052,1.338-3.171l0.182-0.796l3.279,0.01c0.301,0,0.551-0.246,0.553-0.547v-1.812
			c0-0.296-0.245-0.538-0.545-0.538l-3.277-0.012l-0.184-0.791c-0.262-1.134-0.712-2.201-1.335-3.171l-0.44-0.689l2.32-2.291
			c0.108-0.106,0.166-0.243,0.166-0.391c0-0.083-0.02-0.243-0.159-0.379l-1.301-1.284c-0.216-0.214-0.567-0.214-0.781-0.004
			l-2.323,2.291l-0.698-0.437c-0.985-0.615-2.063-1.058-3.208-1.315l-0.803-0.181v-3.235c0-0.301-0.251-0.546-0.559-0.546h-1.832
			c-0.306,0-0.556,0.245-0.556,0.546v3.238l-0.808,0.178c-1.104,0.244-2.168,0.677-3.164,1.286l-0.697,0.428l-2.306-2.295
			c-0.106-0.105-0.247-0.164-0.398-0.164c-0.083,0-0.244,0.021-0.38,0.155l-1.312,1.279c-0.14,0.137-0.161,0.299-0.161,0.384
			c-0.001,0.085,0.021,0.248,0.158,0.384l2.306,2.306l-0.444,0.687c-0.63,0.972-1.082,2.035-1.345,3.158l-0.184,0.794l-3.279-0.012
			c-0.151-0.033-0.328,0.095-0.388,0.152c-0.105,0.104-0.163,0.242-0.163,0.391l-0.012,1.817c-0.002,0.298,0.244,0.544,0.554,0.547
			l3.268,0.009l0.179,0.792c0.26,1.138,0.707,2.204,1.327,3.166l0.443,0.69l-2.335,2.294c-0.104,0.103-0.159,0.236-0.161,0.381
			c0,0.146,0.058,0.283,0.164,0.388l1.29,1.283c0.103,0.105,0.243,0.163,0.393,0.163l0,0c0.147,0,0.284-0.056,0.388-0.156
			L320.385,84.592z M326.598,82.449c-3.348,0-6.07-2.688-6.07-5.991c0-3.296,2.723-5.979,6.07-5.979
			c3.346,0,6.065,2.683,6.065,5.979C332.664,79.76,329.944,82.449,326.598,82.449z M326.598,72.519
			c-2.206,0-4.004,1.768-4.004,3.939c0,2.178,1.798,3.951,4.004,3.951c2.204,0,3.998-1.773,3.998-3.951
			C330.596,74.286,328.802,72.519,326.598,72.519z"/>
	</g>
	<g id="XMLID_198_">
		<path fill="#414042" d="M367.147,78.701h-23.502v-2.04h22.265c0.2-0.455,0.294-0.876,0.294-1.297c0-2.069-1.704-3.752-3.802-3.752
			c-0.524,0-1.049,0.126-1.608,0.387l-0.923,0.43l-0.447-0.904c-0.761-1.546-2.236-2.648-4.04-3.025l-0.989-0.206l0.188-0.982
			c0.036-0.194,0.09-0.386,0.141-0.576c0.07-0.251,0.131-0.467,0.131-0.658c0-3.815-3.145-6.921-7.012-6.921
			c-1.715,0-3.391,0.667-4.719,1.875l-1.581,1.441l-0.149-2.118c-0.507-7.081-6.505-12.625-13.654-12.625
			c-6.114,0-11.538,4.092-13.191,9.952l-0.258,0.915l-0.942-0.188c-0.6-0.12-1.21-0.181-1.813-0.181
			c-4.115,0-7.726,2.759-8.781,6.712l-0.299,1.114l-1.084-0.428c-1.021-0.402-2.043-0.607-3.032-0.607
			c-4.52,0-8.196,3.629-8.196,8.087c0,1.167,0.317,2.308,0.996,3.554h18.352v2.04h-19.54l-0.3-0.497
			c-1.06-1.749-1.576-3.416-1.576-5.097c0-5.583,4.605-10.126,10.265-10.126c0.909,0,1.831,0.132,2.752,0.396
			c1.764-4.676,6.611-7.7,11.741-7.113c2.172-6.269,8.176-10.572,14.908-10.572c7.615,0,14.095,5.459,15.481,12.726
			c1.404-0.845,2.997-1.299,4.622-1.299c5.007,0,9.08,4.02,9.08,8.96c0,0.257-0.033,0.493-0.08,0.709
			c1.652,0.569,3.038,1.625,3.966,3.022c0.532-0.159,1.06-0.237,1.594-0.237c3.237,0,5.868,2.598,5.868,5.792
			c0,0.931-0.271,1.853-0.828,2.821L367.147,78.701z"/>
	</g>
</g>
<g id="XMLID_957_">
	<g id="XMLID_961_">
		<rect x="103.401" y="59.554" fill="#414042" width="2.554" height="2.04"/>
	</g>
	<g id="XMLID_960_">
		<rect x="110.012" y="59.554" fill="#414042" width="2.555" height="2.04"/>
	</g>
	<g id="XMLID_959_">
		<rect x="106.95" y="62.575" fill="#414042" width="2.067" height="2.521"/>
	</g>
	<g id="XMLID_958_">
		<rect x="106.95" y="56.052" fill="#414042" width="2.067" height="2.521"/>
	</g>
</g>
<g id="XMLID_87_">
	<g id="XMLID_153_">
		<rect x="36.62" y="132.397" fill="#414042" width="2.555" height="2.04"/>
	</g>
	<g id="XMLID_150_">
		<rect x="43.231" y="132.397" fill="#414042" width="2.555" height="2.04"/>
	</g>
	<g id="XMLID_146_">
		<rect x="40.169" y="135.419" fill="#414042" width="2.067" height="2.521"/>
	</g>
	<g id="XMLID_92_">
		<rect x="40.169" y="128.895" fill="#414042" width="2.067" height="2.521"/>
	</g>
</g>
<g id="XMLID_155_">
	<g id="XMLID_180_">
		<rect x="391.508" y="78.704" fill="#414042" width="2.555" height="2.04"/>
	</g>
	<g id="XMLID_179_">
		<rect x="398.121" y="78.704" fill="#414042" width="2.555" height="2.04"/>
	</g>
	<g id="XMLID_178_">
		<rect x="395.058" y="81.725" fill="#414042" width="2.067" height="2.521"/>
	</g>
	<g id="XMLID_156_">
		<rect x="395.058" y="75.201" fill="#414042" width="2.067" height="2.521"/>
	</g>
</g>
<g id="XMLID_61_">
	<g id="XMLID_237_">
		<rect x="416.139" y="50.141" fill="#414042" width="2.711" height="2.04"/>
	</g>
	<g id="XMLID_236_">
		<rect x="423.157" y="50.141" fill="#414042" width="2.714" height="2.04"/>
	</g>
	<g id="XMLID_234_">
		<rect x="419.972" y="53.286" fill="#414042" width="2.066" height="2.676"/>
	</g>
	<g id="XMLID_73_">
		<rect x="419.972" y="46.359" fill="#414042" width="2.066" height="2.676"/>
	</g>
</g>
<g id="XMLID_44_">
	<g id="XMLID_209_">
		<rect x="215.768" y="32.988" fill="#414042" width="2.554" height="2.041"/>
	</g>
	<g id="XMLID_207_">
		<rect x="222.379" y="32.988" fill="#414042" width="2.555" height="2.041"/>
	</g>
	<g id="XMLID_49_">
		<rect x="219.317" y="36.01" fill="#414042" width="2.068" height="2.521"/>
	</g>
	<g id="XMLID_48_">
		<rect x="219.317" y="29.487" fill="#414042" width="2.068" height="2.521"/>
	</g>
</g>
<g id="XMLID_210_">
	<g id="XMLID_232_">
		<rect x="245.288" y="23.062" fill="#414042" width="2.555" height="2.04"/>
	</g>
	<g id="XMLID_231_">
		<rect x="251.899" y="23.062" fill="#414042" width="2.555" height="2.04"/>
	</g>
	<g id="XMLID_213_">
		<rect x="248.836" y="26.084" fill="#414042" width="2.067" height="2.521"/>
	</g>
	<g id="XMLID_212_">
		<rect x="248.836" y="19.561" fill="#414042" width="2.067" height="2.521"/>
	</g>
</g>
<g>
	<rect x="232.523" y="32.988" fill="#414042" width="40.729" height="2.041"/>
</g>
<g>
	<rect x="275.426" y="32.988" fill="#414042" width="5.606" height="2.041"/>
</g>
<g>
	<rect x="408.095" y="134.513" fill="#414042" width="40.727" height="2.039"/>
</g>
<g>
	<rect x="399.132" y="134.513" fill="#414042" width="6.905" height="2.039"/>
</g>
<g>
	<rect x="450.876" y="134.513" fill="#414042" width="6.504" height="2.039"/>
</g>
<g>
	<rect x="47.312" y="121.806" fill="#414042" width="40.729" height="2.041"/>
</g>
<g>
	<rect x="90.095" y="121.806" fill="#414042" width="6.504" height="2.041"/>
</g>
<g>
	<g>
		<path fill="#414042" d="M410.147,115.937h-17.92v-17.68h17.92V115.937z M394.295,113.897h13.786v-13.601h-13.786V113.897z"/>
	</g>
	<g>
		<polygon fill="#414042" points="393.992,115.638 392.53,114.196 408.383,98.556 409.845,99.998 		"/>
	</g>
	<g>
		<polygon fill="#414042" points="408.383,115.638 392.53,99.998 393.992,98.556 409.845,114.196 		"/>
	</g>
</g>
<g>
	<g>
		<path fill="#414042" d="M431.43,115.937h-17.92v-17.68h17.92V115.937z M415.579,113.897h13.784v-13.601h-13.784V113.897z"/>
	</g>
	<g>
		<polygon fill="#414042" points="415.276,115.638 413.814,114.196 429.667,98.556 431.129,99.998 		"/>
	</g>
	<g>
		<polygon fill="#414042" points="429.667,115.638 413.814,99.998 415.276,98.556 431.129,114.196 		"/>
	</g>
</g>
</svg>
