<?xml version="1.0" encoding="utf-8"?>
<!-- Generator: Adobe Illustrator 15.0.0, SVG Export Plug-In . SVG Version: 6.00 Build 0)  -->
<!DOCTYPE svg PUBLIC "-//W3C//DTD SVG 1.1//EN" "http://www.w3.org/Graphics/SVG/1.1/DTD/svg11.dtd">
<svg version="1.1" id="Layer_1" xmlns="http://www.w3.org/2000/svg" xmlns:xlink="http://www.w3.org/1999/xlink" x="0px" y="0px"
	 width="493.545px" height="204.829px" viewBox="0 0 493.545 204.829" enable-background="new 0 0 493.545 204.829"
	 xml:space="preserve">
<g id="XMLID_461_">
	<g id="XMLID_463_">
		<rect x="357.151" y="33.017" fill="#414042" width="6.732" height="2.001"/>
	</g>
	<g id="XMLID_462_">
		<rect x="359.517" y="30.651" fill="#414042" width="2.001" height="6.733"/>
	</g>
</g>
<g id="XMLID_464_">
	<rect x="350.95" y="33.017" fill="#414042" width="4.414" height="2.001"/>
</g>
<g id="XMLID_298_">
	<g id="XMLID_304_">
		<rect x="33.621" y="81.471" fill="#414042" width="6.732" height="2.001"/>
	</g>
	<g id="XMLID_303_">
		<rect x="35.987" y="79.106" fill="#414042" width="2" height="6.734"/>
	</g>
</g>
<g id="XMLID_295_">
	<rect x="2.644" y="81.471" fill="#414042" width="27.992" height="2.001"/>
</g>
<g id="XMLID_465_">
	<rect x="344.323" y="33.017" fill="#414042" width="4.414" height="2.001"/>
</g>
<g id="XMLID_471_">
	<rect x="278.95" y="33.018" fill="#414042" width="62.36" height="2"/>
</g>
<g id="XMLID_260_">
	<g id="XMLID_262_">
		<rect x="214.464" y="24.553" fill="#414042" width="6.733" height="2.001"/>
	</g>
	<g id="XMLID_261_">
		<rect x="216.83" y="22.186" fill="#414042" width="2" height="6.733"/>
	</g>
</g>
<g id="XMLID_259_">
	<rect x="208.264" y="24.553" fill="#414042" width="4.414" height="2.001"/>
</g>
<g id="XMLID_272_">
	<g id="XMLID_274_">
		<rect x="127.844" y="103.87" fill="#414042" width="6.732" height="2.001"/>
	</g>
	<g id="XMLID_273_">
		<rect x="130.209" y="101.501" fill="#414042" width="2.001" height="6.734"/>
	</g>
</g>
<g id="XMLID_271_">
	<rect x="115.099" y="103.87" fill="#414042" width="9.556" height="2.001"/>
</g>
<g id="XMLID_258_">
	<rect x="201.636" y="24.553" fill="#414042" width="4.415" height="2.001"/>
</g>
<g id="XMLID_257_">
	<rect x="181.107" y="24.553" fill="#414042" width="17.516" height="2.001"/>
</g>
<g>
	<g id="XMLID_395_">
		<path id="XMLID_120_" fill="#FFFFFF" d="M395.759,75.717h-51.92v-5.518h51.92l6.865,2.613c0.136,0.05,0.136,0.243,0,0.294
			L395.759,75.717z"/>
		<rect id="XMLID_119_" x="343.839" y="70.199" fill="#F5AB35" width="51.92" height="5.518"/>
		<rect id="XMLID_118_" x="343.839" y="70.199" fill="#F7BC5D" width="51.92" height="2.759"/>
		<rect id="XMLID_117_" x="343.829" y="70.048" fill="#FFFFFF" width="6.441" height="5.822"/>
		<g id="XMLID_116_">
			<path fill="#414042" d="M395.943,76.72h-53.104v-7.521l53.276,0.065l6.865,2.613c0.449,0.169,0.744,0.591,0.747,1.076
				c0.002,0.487-0.29,0.914-0.743,1.089L395.943,76.72z M344.839,74.719h50.736l4.624-1.761l-4.624-1.758h-50.736V74.719z"/>
		</g>
		<g id="XMLID_115_">
			<rect x="349.27" y="70.199" fill="#414042" width="2.001" height="4.825"/>
		</g>
		<g id="XMLID_113_">
			<rect x="394.758" y="70.546" fill="#414042" width="2.001" height="4.825"/>
		</g>
	</g>
	<path id="XMLID_472_" fill="#FFFFFF" d="M378.872,66.677c-1.329,0-2.417,1.089-2.417,2.417v-2.537c0-1.329-1.088-2.416-2.416-2.416
		c-1.33,0-2.418,1.087-2.418,2.416v-2.536c0-1.33-1.087-2.417-2.417-2.417c-1.329,0-2.416,1.088-2.416,2.417v2.536
		c0-1.329-1.088-2.416-2.418-2.416c-1.328,0-2.416,1.087-2.416,2.416v4.999h-3.409c-0.902,0-1.633,0.732-1.633,1.633v10.762
		c0,0.864,0.501,1.648,1.285,2.011l1.984,0.915c0.784,0.361,1.286,1.148,1.286,2.011v4.66h16.081v-5.257
		c0-0.523,0.211-1.026,0.587-1.394l2.459-2.407c0.444-0.435,0.695-1.029,0.695-1.651V69.095
		C381.29,67.766,380.202,66.677,378.872,66.677z"/>
	<g id="XMLID_112_">
		<path fill="#414042" d="M362.851,75.944h-2.001v-9.386c0-1.883,1.533-3.416,3.416-3.416c1.885,0,3.418,1.533,3.418,3.416v5.833
			h-2.001v-5.833c0-0.779-0.635-1.415-1.417-1.415c-0.78,0-1.415,0.636-1.415,1.415V75.944z"/>
	</g>
	<g id="XMLID_110_">
		<path fill="#414042" d="M372.518,68.152h-2.001v-4.13c0-0.781-0.636-1.417-1.416-1.417c-0.781,0-1.417,0.636-1.417,1.417v4.13
			h-2.001v-4.13c0-1.885,1.533-3.417,3.418-3.417c1.884,0,3.417,1.533,3.417,3.417V68.152z"/>
	</g>
	<g id="XMLID_106_">
		<path fill="#414042" d="M377.353,72.39h-2.001v-5.833c0-0.779-0.636-1.415-1.417-1.415s-1.417,0.636-1.417,1.415v5.833h-2.001
			v-5.833c0-1.883,1.533-3.416,3.418-3.416s3.418,1.533,3.418,3.416V72.39z"/>
	</g>
	<g id="XMLID_105_">
		<path fill="#414042" d="M378.446,93.548h-2.001v-5.257c0-0.789,0.323-1.558,0.889-2.11l2.458-2.404
			c0.251-0.245,0.395-0.586,0.395-0.938V69.095c0-0.781-0.636-1.417-1.417-1.417c-0.78,0-1.416,0.636-1.416,1.417v2.277h-2.001
			v-2.277c0-1.883,1.533-3.417,3.417-3.417c1.885,0,3.418,1.534,3.418,3.417v13.745c0,0.886-0.363,1.748-0.997,2.368l-2.459,2.406
			c-0.181,0.178-0.285,0.423-0.285,0.678V93.548z"/>
	</g>
	<g id="XMLID_104_">
		<path fill="#414042" d="M362.365,93.548h-2.001v-4.66c0-0.472-0.277-0.904-0.706-1.102l-1.982-0.917
			c-1.134-0.524-1.867-1.668-1.867-2.918V73.19c0-1.451,1.181-2.634,2.634-2.634h3.408v2.001h-3.408
			c-0.35,0-0.634,0.284-0.634,0.633v10.762c0,0.472,0.277,0.904,0.706,1.102l1.982,0.917c1.135,0.523,1.868,1.67,1.868,2.918V93.548
			z"/>
	</g>
	<rect id="XMLID_103_" x="359.253" y="91.422" fill="#E6E7E8" width="19.907" height="121.675"/>
	<rect id="XMLID_84_" x="359.253" y="91.422" fill="#A7A9AC" width="6.014" height="121.675"/>
	<g id="XMLID_83_">
		<polygon fill="#414042" points="360.253,122.793 358.252,122.793 358.252,90.422 380.161,90.422 380.161,122.582 378.16,122.582 
			378.16,92.423 360.253,92.423 		"/>
	</g>
	<g id="XMLID_82_">
		<rect x="358.252" y="148.226" fill="#414042" width="2.001" height="64.871"/>
	</g>
	<g id="XMLID_81_">
		<rect x="378.16" y="148.229" fill="#414042" width="2.001" height="64.868"/>
	</g>
</g>
<g id="XMLID_457_">
	<g id="XMLID_460_">
		<rect x="163.398" y="44.995" fill="#414042" width="6.733" height="2.001"/>
	</g>
	<g id="XMLID_459_">
		<rect x="165.764" y="42.628" fill="#414042" width="2" height="6.733"/>
	</g>
</g>
<g id="XMLID_456_">
	<rect x="178.286" y="44.995" fill="#414042" width="34.871" height="2.001"/>
</g>
<g id="XMLID_455_">
	<rect x="172.784" y="44.995" fill="#414042" width="2.988" height="2.001"/>
</g>
<g id="XMLID_277_">
	<g id="XMLID_286_">
		<rect x="295.821" y="17.581" fill="#414042" width="6.733" height="2"/>
	</g>
	<g id="XMLID_285_">
		<rect x="298.188" y="15.215" fill="#414042" width="2.001" height="6.731"/>
	</g>
</g>
<g id="XMLID_276_">
	<rect x="310.71" y="17.581" fill="#414042" width="34.87" height="2"/>
</g>
<g id="XMLID_80_">
	<rect x="439.807" y="30.27" fill="#414042" width="34.871" height="2.001"/>
</g>
<g id="XMLID_275_">
	<rect x="305.207" y="17.581" fill="#414042" width="2.987" height="2"/>
</g>
<g id="XMLID_292_">
	<g id="XMLID_294_">
		<rect x="478.527" y="30.269" fill="#414042" width="6.732" height="2"/>
	</g>
	<g id="XMLID_293_">
		<rect x="480.894" y="27.903" fill="#414042" width="2" height="6.733"/>
	</g>
</g>
<g id="XMLID_288_">
	<rect x="487.914" y="30.27" fill="#414042" width="2.986" height="2.001"/>
</g>
<g id="XMLID_77_">
	<g id="XMLID_270_">
		<rect x="424.852" y="54.97" fill="#414042" width="6.733" height="2"/>
	</g>
	<g id="XMLID_269_">
		<rect x="427.217" y="52.603" fill="#414042" width="2.001" height="6.732"/>
	</g>
</g>
<g id="XMLID_76_">
	<rect x="381.825" y="54.97" fill="#414042" width="34.87" height="2"/>
</g>
<g id="XMLID_263_">
	<rect x="419.211" y="54.97" fill="#414042" width="2.987" height="2"/>
</g>
<g id="XMLID_254_">
	<g id="XMLID_256_">
		<rect x="83.453" y="36.384" fill="#414042" width="6.732" height="2"/>
	</g>
	<g id="XMLID_255_">
		<rect x="85.819" y="34.017" fill="#414042" width="2" height="6.733"/>
	</g>
</g>
<g id="XMLID_75_">
	<rect x="98.342" y="36.384" fill="#414042" width="34.871" height="2"/>
</g>
<g id="XMLID_72_">
	<rect x="92.839" y="36.384" fill="#414042" width="2.988" height="2"/>
</g>
<g>
	<path fill="#FFFFFF" d="M46.048,117.012c-0.395,1-1.524,1.487-2.521,1.094l-7.268-2.956c-0.996-0.394-1.487-1.524-1.091-2.521l0,0
		c0.393-0.998,1.523-1.488,2.521-1.092l7.266,2.954C45.953,114.886,46.441,116.014,46.048,117.012L46.048,117.012z"/>
	<path fill="#FFFFFF" d="M43.496,130.033c-0.342,0.864-1.32,1.289-2.186,0.948l-1.836-0.714c-0.865-0.342-1.288-1.321-0.948-2.186
		l0,0c0.342-0.865,1.32-1.29,2.186-0.946l1.838,0.712C43.414,128.188,43.839,129.167,43.496,130.033L43.496,130.033z"/>
	<path fill="#FFFFFF" d="M44.815,126.029c-0.375,0.95-1.451,1.414-2.4,1.039l-2.835-1.107c-0.95-0.378-1.417-1.451-1.041-2.401l0,0
		c0.376-0.948,1.45-1.415,2.4-1.04l2.836,1.11C44.725,124.001,45.191,125.078,44.815,126.029L44.815,126.029z"/>
	<path fill="#FFFFFF" d="M46.666,121.894c-0.394,0.998-1.524,1.485-2.521,1.092l-4.508-1.782c-0.997-0.394-1.486-1.521-1.092-2.521
		l0,0c0.396-0.998,1.523-1.487,2.521-1.092l4.507,1.782C46.572,119.766,47.06,120.894,46.666,121.894L46.666,121.894z"/>
	<g>
		<path fill="#414042" d="M44.241,119.245c-0.366,0-0.732-0.07-1.083-0.208l-7.276-2.962c-0.721-0.284-1.296-0.839-1.608-1.563
			c-0.313-0.722-0.326-1.521-0.036-2.251c0.288-0.731,0.844-1.308,1.566-1.62s1.522-0.325,2.254-0.033l7.273,2.959
			c1.499,0.591,2.242,2.306,1.647,3.813l0,0c-0.289,0.732-0.846,1.308-1.567,1.621C45.035,119.162,44.639,119.245,44.241,119.245z
			 M36.975,112.399c-0.127,0-0.255,0.025-0.376,0.078c-0.23,0.099-0.408,0.284-0.5,0.519c-0.093,0.234-0.089,0.492,0.011,0.722
			c0.1,0.231,0.284,0.408,0.517,0.502l7.277,2.96c0.225,0.089,0.481,0.086,0.712-0.016c0.23-0.1,0.409-0.284,0.501-0.519
			c0.191-0.482-0.047-1.031-0.53-1.222l-7.275-2.962C37.204,112.419,37.09,112.399,36.975,112.399z"/>
	</g>
	<g>
		<path fill="#414042" d="M41.925,132.098c-0.328,0-0.66-0.06-0.981-0.188l-1.832-0.711c-1.38-0.545-2.058-2.107-1.516-3.483
			c0.264-0.669,0.772-1.195,1.431-1.479c0.659-0.286,1.389-0.297,2.055-0.031l1.83,0.709c0.673,0.266,1.198,0.773,1.483,1.433
			c0.285,0.659,0.296,1.389,0.031,2.056C44.009,131.455,42.994,132.098,41.925,132.098z M40.089,128.016
			c-0.092,0-0.182,0.019-0.268,0.058c-0.167,0.07-0.297,0.205-0.364,0.375c-0.138,0.352,0.034,0.75,0.384,0.888l1.832,0.712
			c0.354,0.143,0.754-0.034,0.893-0.383l0-0.003c0.066-0.17,0.064-0.354-0.008-0.521c-0.073-0.166-0.206-0.297-0.376-0.364
			l-1.832-0.709C40.264,128.035,40.177,128.016,40.089,128.016z"/>
	</g>
	<g>
		<path fill="#414042" d="M43.097,128.199c-0.356,0-0.71-0.068-1.051-0.201l-2.83-1.106c-1.465-0.579-2.185-2.238-1.607-3.699
			c0.58-1.462,2.237-2.178,3.699-1.603l2.831,1.107c0.71,0.278,1.266,0.817,1.57,1.516c0.303,0.698,0.316,1.475,0.036,2.184l0,0
			c-0.28,0.708-0.818,1.266-1.518,1.568C43.865,128.121,43.481,128.199,43.097,128.199z M40.26,123.392
			c-0.339,0-0.659,0.203-0.792,0.537c-0.172,0.435,0.043,0.927,0.479,1.102l2.831,1.104c0.216,0.086,0.445,0.083,0.654-0.008
			c0.208-0.091,0.368-0.255,0.451-0.467h0.001c0.083-0.211,0.079-0.442-0.011-0.65c-0.09-0.209-0.255-0.368-0.465-0.451
			l-2.833-1.107C40.472,123.411,40.365,123.392,40.26,123.392z"/>
	</g>
	<g>
		<path fill="#414042" d="M44.861,124.125c-0.367,0-0.733-0.07-1.084-0.209l-4.507-1.781c-1.508-0.595-2.25-2.309-1.655-3.819
			c0.602-1.511,2.318-2.254,3.821-1.654l4.506,1.782c1.509,0.597,2.25,2.308,1.655,3.818c-0.289,0.729-0.845,1.306-1.566,1.618
			C45.655,124.041,45.259,124.125,44.861,124.125z M40.354,118.456c-0.376,0-0.731,0.227-0.879,0.597
			c-0.189,0.481,0.047,1.029,0.53,1.222l4.509,1.782c0.234,0.091,0.491,0.086,0.722-0.014c0.23-0.099,0.408-0.284,0.5-0.516l0,0
			c0.191-0.484-0.046-1.034-0.529-1.225l-4.507-1.781C40.586,118.476,40.469,118.456,40.354,118.456z"/>
	</g>
	<path fill="#E6E7E8" d="M61.594,143.503H52.01l0.039-1.704c0,0-3.27-1.771-4.956-2.896c-1.246-0.831-2.089-0.901-2.089-3.689
		l16.893-4.598L61.594,143.503z"/>
	<g>
		<path fill="#414042" d="M62.57,144.503H50.987l0.049-2.12c-1.009-0.555-3.191-1.777-4.497-2.647
			c-0.159-0.106-0.311-0.197-0.455-0.286c-1.256-0.766-2.08-1.478-2.08-4.236v-0.763l18.925-5.153L62.57,144.503z M53.034,142.502
			h7.582l0.25-10.568l-14.839,4.038c0.081,1.148,0.393,1.339,1.099,1.769c0.165,0.102,0.339,0.208,0.522,0.331
			c1.629,1.086,4.845,2.829,4.877,2.848l0.537,0.291L53.034,142.502z"/>
	</g>
	<path id="XMLID_71_" fill="#FFFFFF" d="M63.51,136.178H42.625c-0.734,0-1.334-0.6-1.334-1.334V98.005
		c0-0.734,0.6-1.333,1.334-1.333H63.51c0.733,0,1.334,0.599,1.334,1.333v36.839C64.844,135.579,64.244,136.178,63.51,136.178z"/>
	<g id="XMLID_70_">
		<path fill="#414042" d="M54.894,137.178H42.625c-1.287,0-2.334-1.047-2.334-2.334V98.005c0-1.286,1.047-2.334,2.334-2.334H63.51
			c1.287,0,2.334,1.048,2.334,2.334v21.453h-2.001V98.005c0-0.182-0.152-0.333-0.333-0.333H42.625c-0.181,0-0.333,0.151-0.333,0.333
			v36.839c0,0.182,0.152,0.333,0.333,0.333h12.269V137.178z"/>
	</g>
	<g id="XMLID_69_">
		<rect x="49.72" y="98.107" fill="#414042" width="5.795" height="2.001"/>
	</g>
	<rect id="XMLID_68_" x="43.029" y="101.126" fill="#F3C649" width="19.822" height="30.766"/>
	<polygon id="XMLID_67_" fill="#B69537" points="43.917,101.126 43.917,131.001 62.188,131.001 62.188,131.892 43.029,131.892 
		43.029,101.126 	"/>
	<path fill="#FFFFFF" d="M66.711,143.146v-17.112l-2.991-4.918h-7.88c-0.923,0.763,0.528,3.795,1.643,3.795s3.266,0.112,3.266,0.112
		l0.747,3.465L66.711,143.146z"/>
	<path fill="#FFFFFF" d="M66.376,144.461c0,3.027-1.038,2.196-3.595,2.196l0,0c-4.728,0.104-5.694-4.937-5.694-7.964v-1.87
		c0-4.066,4.078-9.214,6.634-9.214l0,0c2.555,0,2.622,2.456,2.622,5.48L66.376,144.461z"/>
	<g>
		<path fill="#414042" d="M67.711,143.146h-2v-16.831l-2.553-4.199h-6.661c0.123,0.544,0.694,1.648,1.08,1.808
			c1.047,0.006,3.224,0.1,3.224,0.1l0.867,0.044l0.458,5.025l-1.993,0.182l-0.3-3.292c-0.712-0.031-1.705-0.07-2.349-0.07
			c-1.363,0-2.319-1.649-2.669-2.624c-0.461-1.284-0.32-2.357,0.39-2.943l0.277-0.229h8.802l3.428,5.641V143.146z"/>
	</g>
	<g>
		<path fill="#414042" d="M62.635,147.659c-1.635,0-3.012-0.534-4.094-1.595c-2.216-2.167-2.456-5.874-2.456-7.37v-1.87
			c0-3.396,2.461-7.289,4.841-9.089l1.206,1.597c-1.946,1.472-4.046,4.754-4.046,7.492v1.87c0,0.97,0.133,4.257,1.854,5.939
			c0.73,0.714,1.643,1.061,2.818,1.024l0.044,2.001C62.747,147.659,62.691,147.659,62.635,147.659z"/>
	</g>
	<rect id="XMLID_66_" x="48.162" y="143.474" fill="#47C4FE" width="20.71" height="69.175"/>
	<rect id="XMLID_65_" x="48.162" y="143.474" fill="#19B5FE" width="8.257" height="69.175"/>
	<g id="XMLID_64_">
		<polygon fill="#414042" points="69.873,212.649 67.872,212.649 67.872,144.477 49.162,144.477 49.162,212.649 47.161,212.649 
			47.161,142.477 69.873,142.477 		"/>
	</g>
</g>
<g>
	<circle id="XMLID_444_" fill="#F0B81B" cx="427.714" cy="130.848" r="18.167"/>
	<g id="XMLID_433_">
		<g>
			<path fill="#414042" d="M426.88,139.114v-1.467c-1.701-0.269-3.267-1.037-4.699-2.311l1.867-2.27
				c1.045,0.912,1.988,1.493,2.832,1.748v-2.993c-1.406-0.361-2.438-0.847-3.094-1.456c-0.655-0.609-0.983-1.487-0.983-2.631
				c0-1.146,0.374-2.09,1.124-2.832c0.751-0.745,1.734-1.19,2.953-1.336v-0.985h2.13v1.024c1.338,0.188,2.67,0.745,3.996,1.667
				l-1.646,2.371c-0.844-0.603-1.627-1.006-2.35-1.207v2.895c1.445,0.375,2.514,0.878,3.203,1.506
				c0.688,0.631,1.035,1.519,1.035,2.673c0,1.151-0.386,2.103-1.155,2.853c-0.771,0.747-1.798,1.195-3.083,1.344v1.407H426.88z
				 M426.88,126.359c-0.576,0.201-0.863,0.568-0.863,1.104c0,0.534,0.287,0.943,0.863,1.225V126.359z M430.033,133.669
				c0-0.281-0.073-0.517-0.222-0.704c-0.146-0.188-0.414-0.359-0.802-0.521v2.47C429.693,134.701,430.033,134.287,430.033,133.669z"
				/>
		</g>
	</g>
	<g id="XMLID_429_">
		
			<rect x="444.686" y="141.018" transform="matrix(0.8667 0.4989 -0.4989 0.8667 130.5827 -204.5629)" fill="#414042" width="6.622" height="2.001"/>
	</g>
	<g id="XMLID_424_">
		
			<rect x="441.113" y="145.86" transform="matrix(0.7084 0.7059 -0.7059 0.7084 233.2746 -270.8689)" fill="#414042" width="6.626" height="2"/>
	</g>
	<g id="XMLID_423_">
		
			<rect x="436.415" y="149.615" transform="matrix(0.5021 0.8648 -0.8648 0.5021 349.1689 -305.2834)" fill="#414042" width="6.622" height="2.001"/>
	</g>
	<g id="XMLID_422_">
		
			<rect x="430.904" y="152.029" transform="matrix(0.262 0.9651 -0.9651 0.262 468.1432 -306.1121)" fill="#414042" width="6.624" height="2"/>
	</g>
	<g id="XMLID_420_">
		
			<rect x="424.957" y="152.938" transform="matrix(0.0038 1 -1 0.0038 580.5658 -274.9171)" fill="#414042" width="6.625" height="2.001"/>
	</g>
	<g id="XMLID_419_">
		
			<rect x="421.288" y="149.972" transform="matrix(0.9669 0.2551 -0.2551 0.9669 53.085 -102.6705)" fill="#414042" width="2.002" height="6.622"/>
	</g>
	<g id="XMLID_418_">
		
			<rect x="415.68" y="147.792" transform="matrix(0.8683 0.4961 -0.4961 0.8683 129.8485 -186.8056)" fill="#414042" width="2.002" height="6.623"/>
	</g>
	<g id="XMLID_417_">
		
			<rect x="410.826" y="144.239" transform="matrix(0.711 0.7032 -0.7032 0.711 222.7749 -246.9511)" fill="#414042" width="2.001" height="6.624"/>
	</g>
	<g id="XMLID_404_">
		
			<rect x="404.169" y="118.824" transform="matrix(0.8704 0.4924 -0.4924 0.8704 111.8237 -185.111)" fill="#414042" width="6.622" height="1.999"/>
	</g>
	<g id="XMLID_403_">
		
			<rect x="407.703" y="113.955" transform="matrix(0.7136 0.7005 -0.7005 0.7136 198.2263 -255.002)" fill="#414042" width="6.622" height="2.001"/>
	</g>
	<g id="XMLID_402_">
		
			<rect x="412.374" y="110.164" transform="matrix(0.5085 0.861 -0.861 0.5085 300.0188 -303.2913)" fill="#414042" width="6.623" height="2"/>
	</g>
	<g id="XMLID_401_">
		
			<rect x="417.865" y="107.709" transform="matrix(0.2691 0.9631 -0.9631 0.2691 412.561 -326.1855)" fill="#414042" width="6.624" height="2.002"/>
	</g>
	<g id="XMLID_400_">
		
			<rect x="423.807" y="106.754" transform="matrix(0.0112 0.9999 -0.9999 0.0112 530.0793 -320.5438)" fill="#414042" width="6.622" height="2.001"/>
	</g>
	<g id="XMLID_399_">
		
			<rect x="432.102" y="105.056" transform="matrix(0.9689 0.2475 -0.2475 0.9689 40.2892 -103.8095)" fill="#414042" width="2.001" height="6.622"/>
	</g>
	<g id="XMLID_398_">
		
			<rect x="437.725" y="107.193" transform="matrix(0.872 0.4895 -0.4895 0.872 110.2298 -200.5933)" fill="#414042" width="2.001" height="6.623"/>
	</g>
	<g id="XMLID_397_">
		
			<rect x="442.607" y="110.709" transform="matrix(0.7161 0.698 -0.698 0.7161 205.5376 -277.2734)" fill="#414042" width="2.001" height="6.622"/>
	</g>
	<g id="XMLID_63_">
		
			<rect x="446.419" y="115.395" transform="matrix(0.5116 0.8592 -0.8592 0.5116 320.5042 -326.4542)" fill="#414042" width="2" height="6.623"/>
	</g>
	<g id="XMLID_62_">
		
			<rect x="448.891" y="120.908" transform="matrix(0.2706 0.9627 -0.9627 0.2706 447.7397 -342.5003)" fill="#414042" width="1.999" height="6.623"/>
	</g>
	<g id="XMLID_60_">
		
			<rect x="449.849" y="126.873" transform="matrix(0.0127 0.9999 -0.9999 0.0127 575.3035 -322.2808)" fill="#414042" width="2.001" height="6.624"/>
	</g>
	<g id="XMLID_59_">
		
			<rect x="446.922" y="135.195" transform="matrix(0.9693 0.2458 -0.2458 0.9693 47.2973 -106.5016)" fill="#414042" width="6.622" height="2"/>
	</g>
	<path id="XMLID_393_" fill="#FFFFFF" d="M409.893,144.496c0-1.287-1.054-2.339-2.34-2.339h2.455c1.287,0,2.34-1.056,2.34-2.34
		c0-1.289-1.053-2.342-2.34-2.342h2.456c1.286,0,2.339-1.053,2.339-2.34c0-1.286-1.053-2.339-2.339-2.339h7.435
		c1.287,0,2.341-1.053,2.341-2.339c0-1.287-1.054-2.34-2.341-2.34h-14.729v-3.301c0-0.872-0.708-1.581-1.581-1.581h-10.417
		c-0.837,0-1.596,0.487-1.946,1.245l-0.888,1.92c-0.35,0.761-1.109,1.245-1.945,1.245h-4.511v15.568h5.089
		c0.507,0,0.994,0.205,1.348,0.567l2.331,2.381c0.42,0.43,0.996,0.673,1.6,0.673h13.305
		C408.839,146.835,409.893,145.783,409.893,144.496z"/>
	<g id="XMLID_392_">
		<path fill="#414042" d="M419.899,133.695h-15.535v-2h15.535c0.738,0,1.34-0.6,1.34-1.34c0-0.736-0.602-1.339-1.34-1.339h-18.977
			v-2h18.977c1.842,0,3.341,1.498,3.341,3.339C423.24,132.197,421.74,133.695,419.899,133.695z"/>
	</g>
	<g id="XMLID_385_">
		<path fill="#414042" d="M412.464,138.376h-3.998v-2.001h3.998c0.738,0,1.339-0.602,1.339-1.339c0-0.739-0.601-1.342-1.339-1.342
			h-3.998v-2h3.998c1.842,0,3.339,1.5,3.339,3.342S414.306,138.376,412.464,138.376z"/>
	</g>
	<g id="XMLID_384_">
		<path fill="#414042" d="M410.008,143.055h-5.645v-2.001h5.645c0.739,0,1.34-0.602,1.34-1.339c0-0.74-0.601-1.339-1.34-1.339
			h-5.645v-2.001h5.645c1.842,0,3.34,1.498,3.34,3.34S411.85,143.055,410.008,143.055z"/>
	</g>
	<g id="XMLID_383_">
		<path fill="#414042" d="M407.553,147.734h-13.305c-0.866,0-1.709-0.354-2.315-0.972l-2.33-2.381
			c-0.165-0.17-0.396-0.266-0.633-0.266h-5.089v-2.001h5.089c0.773,0,1.526,0.315,2.064,0.867l2.329,2.381
			c0.234,0.24,0.548,0.37,0.885,0.37h13.305c0.739,0,1.339-0.599,1.339-1.339c0-0.737-0.6-1.339-1.339-1.339h-2.205v-2.001h2.205
			c1.842,0,3.34,1.498,3.34,3.34S409.395,147.734,407.553,147.734z"/>
	</g>
	<g id="XMLID_382_">
		<path fill="#414042" d="M388.392,128.547h-4.511v-2.001h4.511c0.444,0,0.851-0.26,1.038-0.666l0.887-1.918
			c0.512-1.109,1.632-1.826,2.854-1.826h10.416c1.424,0,2.583,1.157,2.583,2.582v3.298h-2.001v-3.298
			c0-0.32-0.262-0.581-0.582-0.581h-10.416c-0.444,0-0.853,0.261-1.039,0.664l-0.887,1.918
			C390.734,127.829,389.614,128.547,388.392,128.547z"/>
	</g>
	<g>
		<path fill="#47C4FE" d="M332.607,210.12h-21.341v-48.915c0-20.893,16.678-36.646,38.795-36.646h37.558V145.9h-37.558
			c-8.406,0-17.454,4.788-17.454,15.305V210.12z"/>
	</g>
	<path fill="#19B5FE" d="M387.618,145.9v-8.061H354.93c-30.05-0.427-32.168,15.756-32.168,36.646v35.635h9.845v-48.915
		c0-10.517,9.048-15.305,17.454-15.305H387.618z"/>
	<g>
		<g>
			<path fill="#414042" d="M333.608,161.205h-2.001c0-11.204,9.565-16.305,18.454-16.305h36.557v-19.341h-36.557
				c-5.342,0-10.441,0.931-15.155,2.77l-0.727-1.865c4.947-1.928,10.29-2.904,15.882-2.904h38.558V146.9h-38.558
				C342.136,146.9,333.608,151.375,333.608,161.205z"/>
		</g>
	</g>
</g>
<g id="XMLID_859_">
	<path id="XMLID_865_" fill="#E6E7E8" d="M298.763,63.071v9.65c-0.72-0.136-1.371-0.326-1.827-0.597
		c-1.131-0.675-2.257-1.443-3.679-1.443c-3.002,0-5.434,2.433-5.434,5.432c0,3.004,2.432,5.437,5.434,5.437
		c1.422,0,2.532-0.794,3.682-1.445c0.439-0.25,1.093-0.43,1.824-0.562v9.615h26.089V63.071H298.763z"/>
</g>
<path id="XMLID_858_" fill="#19B5FE" d="M285.104,62.596v10.206c-1.244-0.123-2.479-0.354-3.214-0.792
	c-1.133-0.672-2.256-1.443-3.681-1.443c-3,0-5.433,2.433-5.433,5.434c0,3.001,2.433,5.435,5.433,5.435
	c1.425,0,2.535-0.795,3.681-1.443c0.706-0.401,1.95-0.625,3.214-0.75v9.44h-26.085V62.596H285.104z"/>
<g id="XMLID_369_">
	<g id="XMLID_379_">
		<path fill="#414042" d="M306.999,90.157h-9.236v-9.331c-0.147,0.055-0.253,0.104-0.328,0.148l-0.491,0.284
			c-1.031,0.604-2.2,1.292-3.687,1.292c-3.548,0-6.435-2.89-6.435-6.438c0-3.545,2.887-6.432,6.435-6.432
			c1.57,0,2.798,0.745,3.883,1.399l0.31,0.188c0.074,0.042,0.176,0.094,0.313,0.148v-9.345h28.089v3.343h-2.001v-1.342h-24.087
			v9.861l-1.187-0.227c-0.925-0.174-1.629-0.411-2.15-0.719l-0.322-0.193c-0.944-0.573-1.837-1.112-2.848-1.112
			c-2.444,0-4.434,1.988-4.434,4.431c0,2.446,1.989,4.437,4.434,4.437c0.942,0,1.783-0.495,2.673-1.016l0.517-0.3
			c0.496-0.284,1.196-0.506,2.139-0.678l1.179-0.213v9.812h7.235V90.157z"/>
	</g>
	<g id="XMLID_370_">
		<rect x="317.178" y="88.156" fill="#414042" width="4.827" height="2.001"/>
	</g>
</g>
<g id="XMLID_376_">
	<rect x="258.019" y="63.156" fill="#414042" width="2.001" height="24.073"/>
</g>
<g id="XMLID_58_">
	<path fill="#414042" d="M286.104,89.683h-21.252v-2.001h19.251v-7.305c-1.028,0.167-1.508,0.364-1.719,0.484l-0.487,0.281
		c-1.03,0.607-2.198,1.292-3.688,1.292c-3.547,0-6.433-2.886-6.433-6.435c0-3.548,2.886-6.434,6.433-6.434
		c1.567,0,2.791,0.74,3.871,1.394l0.322,0.193c0.216,0.127,0.7,0.339,1.7,0.508v-8.064h-12.664v-2h14.665v12.308l-1.098-0.107
		c-1.666-0.164-2.853-0.466-3.625-0.925l-0.335-0.201c-0.94-0.568-1.827-1.104-2.837-1.104c-2.443,0-4.433,1.99-4.433,4.434
		c0,2.444,1.989,4.435,4.433,4.435c0.945,0,1.784-0.495,2.674-1.017l0.515-0.297c0.742-0.422,1.923-0.708,3.607-0.875l1.099-0.109
		V89.683z"/>
</g>
<g>
	<g id="XMLID_57_">
		<circle id="XMLID_391_" fill="#F0B81B" cx="99.982" cy="133.32" r="9.088"/>
		<circle id="XMLID_320_" fill="#F3C649" cx="99.982" cy="133.32" r="5.742"/>
		<g id="XMLID_390_">
			<path fill="#414042" d="M99.983,143.527c-5.629,0-10.208-4.58-10.208-10.207c0-5.629,4.58-10.209,10.208-10.209
				s10.208,4.58,10.208,10.209C110.191,138.947,105.612,143.527,99.983,143.527z M99.983,125.112c-4.525,0-8.208,3.681-8.208,8.208
				c0,4.525,3.682,8.206,8.208,8.206c4.526,0,8.208-3.681,8.208-8.206C108.19,128.792,104.509,125.112,99.983,125.112z"/>
		</g>
		<g id="XMLID_380_">
			<g>
				<path fill="#414042" d="M99.565,137.455v-0.735c-0.851-0.133-1.634-0.518-2.351-1.153l0.934-1.136
					c0.523,0.455,0.995,0.747,1.417,0.872v-1.495c-0.703-0.183-1.219-0.425-1.547-0.729s-0.492-0.742-0.492-1.315
					s0.187-1.047,0.562-1.417c0.375-0.373,0.868-0.594,1.477-0.67v-0.492h1.065v0.514c0.67,0.094,1.336,0.372,2,0.833l-0.824,1.186
					c-0.422-0.303-0.813-0.503-1.176-0.602v1.445c0.723,0.188,1.258,0.44,1.603,0.756c0.345,0.315,0.518,0.761,0.518,1.336
					c0,0.576-0.192,1.053-0.578,1.428c-0.385,0.375-0.899,0.6-1.542,0.672v0.704H99.565z M99.565,131.072
					c-0.288,0.102-0.432,0.286-0.432,0.555s0.144,0.472,0.432,0.612V131.072z M101.143,134.732c0-0.141-0.037-0.258-0.111-0.354
					c-0.073-0.091-0.208-0.18-0.402-0.261v1.238C100.972,135.248,101.143,135.04,101.143,134.732z"/>
			</g>
		</g>
	</g>
	<g>
		<g id="XMLID_366_">
			<rect x="99.54" y="119.458" fill="#414042" width="2.001" height="3.079"/>
		</g>
		<g id="XMLID_365_">
			
				<rect x="103.931" y="120.481" transform="matrix(0.9332 0.3594 -0.3594 0.9332 50.8655 -29.5596)" fill="#414042" width="2" height="3.077"/>
		</g>
		<g id="XMLID_364_">
			
				<rect x="107.661" y="123.014" transform="matrix(0.7416 0.6708 -0.6708 0.7416 111.6291 -40.71)" fill="#414042" width="2" height="3.077"/>
		</g>
		<g id="XMLID_363_">
			
				<rect x="110.23" y="126.717" transform="matrix(0.4503 0.8929 -0.8929 0.4503 175.6544 -28.8156)" fill="#414042" width="2.002" height="3.077"/>
		</g>
		<g id="XMLID_362_">
			
				<rect x="111.298" y="131.096" transform="matrix(0.0996 0.995 -0.995 0.0996 233.088 7.6851)" fill="#414042" width="2" height="3.078"/>
		</g>
		<g id="XMLID_361_">
			
				<rect x="110.18" y="136.104" transform="matrix(0.9643 0.265 -0.265 0.9643 40.3241 -24.7025)" fill="#414042" width="3.077" height="2.002"/>
		</g>
		<g id="XMLID_360_">
			
				<rect x="108.032" y="140.069" transform="matrix(0.8048 0.5935 -0.5935 0.8048 105.1045 -37.4983)" fill="#414042" width="3.077" height="2"/>
		</g>
		<g id="XMLID_359_">
			
				<rect x="104.602" y="142.995" transform="matrix(0.5372 0.8435 -0.8435 0.5372 170.5836 -22.8818)" fill="#414042" width="3.08" height="2.001"/>
		</g>
		<g id="XMLID_358_">
			
				<rect x="100.351" y="144.493" transform="matrix(0.1983 0.9801 -0.9801 0.1983 224.2879 16.7742)" fill="#414042" width="3.078" height="2"/>
		</g>
		<g id="XMLID_357_">
			
				<rect x="96.384" y="143.824" transform="matrix(0.9858 0.1679 -0.1679 0.9858 25.7921 -14.2887)" fill="#414042" width="2.001" height="3.076"/>
		</g>
		<g id="XMLID_356_">
			
				<rect x="92.226" y="142.082" transform="matrix(0.8599 0.5105 -0.5105 0.8599 86.3757 -27.4675)" fill="#414042" width="2.001" height="3.078"/>
		</g>
		<g id="XMLID_355_">
			
				<rect x="88.973" y="138.961" transform="matrix(0.6191 0.7854 -0.7854 0.6191 144.6166 -17.1371)" fill="#414042" width="2" height="3.077"/>
		</g>
		<g id="XMLID_354_">
			
				<rect x="87.059" y="134.88" transform="matrix(0.295 0.9555 -0.9555 0.295 192.4303 12.0358)" fill="#414042" width="2.001" height="3.078"/>
		</g>
		<g id="XMLID_353_">
			
				<rect x="86.202" y="130.922" transform="matrix(0.9976 0.0686 -0.0686 0.9976 9.2499 -5.7044)" fill="#414042" width="3.077" height="2.001"/>
		</g>
		<g id="XMLID_328_">
			
				<rect x="87.521" y="126.61" transform="matrix(0.9064 0.4224 -0.4224 0.9064 62.2304 -25.6743)" fill="#414042" width="3.078" height="2.001"/>
		</g>
		<g id="XMLID_56_">
			
				<rect x="90.301" y="123.062" transform="matrix(0.6941 0.7198 -0.7198 0.6941 117.3966 -28.1639)" fill="#414042" width="3.077" height="2.001"/>
		</g>
		<g id="XMLID_321_">
			
				<rect x="94.172" y="120.752" transform="matrix(0.3888 0.9213 -0.9213 0.3888 170.6742 -13.7632)" fill="#414042" width="3.077" height="2"/>
		</g>
	</g>
</g>
<g>
	<path id="XMLID_317_" fill="#FFFFFF" d="M94.677,158.667l9.466-10.103c2.271-2.97,7.1,0.102,4.541,2.899l-7.543,10.47l3.661-0.016
		l8.725-9.318c0,0,0.833-5.835,1.05-6.653l0.208-7.456c-0.578-1.281-0.012-2.784,1.266-3.365c1.281-0.581,2.786-0.014,3.368,1.266
		l0.059,8.407c0.3,0.664,0.225,10.701,0.225,10.701l-10.481,21.672H93.292l-0.026-15.521
		C93.391,160.702,94.023,159.366,94.677,158.667z"/>
	<g id="XMLID_302_">
		<path fill="#414042" d="M109.848,178.171H92.293l-0.028-16.587l0.008-0.064c0.154-1.165,0.875-2.687,1.674-3.538l9.466-10.103
			c0.873-1.148,2.262-1.719,3.754-1.477c1.438,0.231,2.646,1.178,3.077,2.415c0.395,1.13,0.103,2.311-0.823,3.321l-6.322,8.787
			l1.266-0.006l8.569-9.154c0.132-1.404,0.506-5.283,0.721-6.361l-0.145-7.302l0.008-0.07c0.032-0.266,0.051-0.526,0.07-0.776
			c0.089-1.188,0.199-2.665,1.777-3.382c0.861-0.393,1.826-0.424,2.711-0.091c0.885,0.333,1.589,0.992,1.98,1.854l0.082,0.18
			l0.335,8.862c0.122,0.654,0.289,2.799,0.229,10.827l-0.002,0.224L109.848,178.171z M94.29,176.17h14.304l10.11-20.905
			c0.03-4.525-0.026-9.506-0.175-10.16l-0.081-0.177l0.03-0.094l-0.323-8.523c-0.179-0.3-0.451-0.529-0.783-0.654
			c-0.383-0.146-0.803-0.13-1.179,0.039c-0.449,0.206-0.521,0.526-0.609,1.712c-0.019,0.255-0.039,0.521-0.07,0.792l0.146,7.424
			l-0.036,0.136c-0.122,0.464-0.467,3.687-0.73,6.533l-0.032,0.342l-9.626,10.282l-6.057,0.028l8.692-12.064
			c0.491-0.547,0.628-0.989,0.483-1.403c-0.187-0.534-0.806-0.985-1.505-1.1c-0.434-0.065-1.261-0.058-1.913,0.794l-9.531,10.181
			c-0.5,0.531-1.022,1.623-1.141,2.371L94.29,176.17z"/>
	</g>
	<rect id="XMLID_55_" x="89.22" y="176.239" fill="#D1D3D4" width="23.524" height="35.897"/>
	<rect id="XMLID_318_" x="89.22" y="176.239" fill="#939598" width="7.309" height="35.897"/>
	<g id="XMLID_316_">
		<polygon fill="#414042" points="113.744,212.136 111.743,212.136 111.743,177.239 90.22,177.239 90.22,212.136 88.219,212.136 
			88.219,175.238 113.744,175.238 		"/>
	</g>
</g>
<g id="XMLID_1158_">
	<path id="XMLID_1242_" fill="#FFFFFF" d="M291.688,180.583c0,0.662-0.536,1.196-1.193,1.196H189.942
		c-0.663,0-1.194-0.534-1.194-1.196v-69.667c0-0.656,0.532-1.19,1.194-1.19h100.552c0.657,0,1.193,0.534,1.193,1.19V180.583z"/>
	<path id="XMLID_54_" fill="#D1D3D4" d="M207.588,109.726v1.198c0,1.584,1.288,2.868,2.871,2.868h61.49
		c1.587,0,2.874-1.284,2.874-2.868v-1.198H207.588z"/>
	<path id="XMLID_1240_" fill="#D1D3D4" d="M250.186,179.463h-22.148c-1.281,0-2.322,1.034-2.322,2.316h26.793
		C252.509,180.498,251.47,179.463,250.186,179.463z"/>
	<path id="XMLID_53_" fill="#E6E7E8" d="M252.509,162.651c0-1.59-1.288-2.871-2.875-2.871h-21.046c-1.586,0-2.872,1.281-2.872,2.871
		v9.177c0,1.584,1.286,2.874,2.872,2.874h21.046c1.587,0,2.875-1.29,2.875-2.874V162.651z"/>
	<g id="XMLID_1166_">
		<path id="XMLID_52_" fill="#F6B933" d="M204.35,126.826c0,0.216-0.175,0.391-0.391,0.391h-4.554c-0.215,0-0.389-0.175-0.389-0.391
			v-3.649c0-0.209,0.173-0.383,0.389-0.383h4.554c0.216,0,0.391,0.174,0.391,0.383V126.826z"/>
		<path id="XMLID_51_" fill="#F6B933" d="M204.35,121.288c0,0.106-0.175,0.195-0.391,0.195h-4.554c-0.215,0-0.389-0.089-0.389-0.195
			v-1.824c0-0.106,0.173-0.192,0.389-0.192h4.554c0.216,0,0.391,0.086,0.391,0.192V121.288z"/>
		<path id="XMLID_50_" fill="#F6B933" d="M211.187,121.288c0,0.106-0.175,0.195-0.392,0.195h-4.555
			c-0.213,0-0.389-0.089-0.389-0.195v-1.824c0-0.106,0.175-0.192,0.389-0.192h4.555c0.217,0,0.392,0.086,0.392,0.192V121.288z"/>
		<path id="XMLID_47_" fill="#F6B933" d="M218.024,121.288c0,0.106-0.175,0.195-0.39,0.195h-4.556c-0.215,0-0.39-0.089-0.39-0.195
			v-1.824c0-0.106,0.175-0.192,0.39-0.192h4.556c0.215,0,0.39,0.086,0.39,0.192V121.288z"/>
		<path id="XMLID_46_" fill="#F6B933" d="M224.857,121.288c0,0.106-0.173,0.195-0.389,0.195h-4.557
			c-0.213,0-0.389-0.089-0.389-0.195v-1.824c0-0.106,0.176-0.192,0.389-0.192h4.557c0.216,0,0.389,0.086,0.389,0.192V121.288z"/>
		<path id="XMLID_45_" fill="#F6B933" d="M231.694,121.288c0,0.106-0.175,0.195-0.391,0.195h-4.554c-0.214,0-0.39-0.089-0.39-0.195
			v-1.824c0-0.106,0.176-0.192,0.39-0.192h4.554c0.215,0,0.391,0.086,0.391,0.192V121.288z"/>
		<path id="XMLID_43_" fill="#F6B933" d="M238.529,121.288c0,0.106-0.172,0.195-0.39,0.195h-4.555c-0.216,0-0.39-0.089-0.39-0.195
			v-1.824c0-0.106,0.174-0.192,0.39-0.192h4.555c0.218,0,0.39,0.086,0.39,0.192V121.288z"/>
		<path id="XMLID_42_" fill="#F6B933" d="M245.37,121.288c0,0.106-0.178,0.195-0.391,0.195h-4.559c-0.215,0-0.39-0.089-0.39-0.195
			v-1.824c0-0.106,0.175-0.192,0.39-0.192h4.559c0.213,0,0.391,0.086,0.391,0.192V121.288z"/>
		<path id="XMLID_1230_" fill="#F6B933" d="M252.204,121.288c0,0.106-0.176,0.195-0.391,0.195h-4.557
			c-0.213,0-0.387-0.089-0.387-0.195v-1.824c0-0.106,0.173-0.192,0.387-0.192h4.557c0.215,0,0.391,0.086,0.391,0.192V121.288z"/>
		<path id="XMLID_1229_" fill="#F6B933" d="M259.037,121.288c0,0.106-0.173,0.195-0.386,0.195h-4.555
			c-0.22,0-0.395-0.089-0.395-0.195v-1.824c0-0.106,0.175-0.192,0.395-0.192h4.555c0.213,0,0.386,0.086,0.386,0.192V121.288z"/>
		<path id="XMLID_1228_" fill="#F6B933" d="M265.871,121.288c0,0.106-0.173,0.195-0.388,0.195h-4.554
			c-0.215,0-0.39-0.089-0.39-0.195v-1.824c0-0.106,0.175-0.192,0.39-0.192h4.554c0.215,0,0.388,0.086,0.388,0.192V121.288z"/>
		<path id="XMLID_1227_" fill="#F6B933" d="M272.71,121.288c0,0.106-0.172,0.195-0.39,0.195h-4.555c-0.217,0-0.39-0.089-0.39-0.195
			v-1.824c0-0.106,0.173-0.192,0.39-0.192h4.555c0.218,0,0.39,0.086,0.39,0.192V121.288z"/>
		<path id="XMLID_1226_" fill="#F6B933" d="M279.547,121.288c0,0.106-0.177,0.195-0.391,0.195h-4.554
			c-0.218,0-0.39-0.089-0.39-0.195v-1.824c0-0.106,0.172-0.192,0.39-0.192h4.554c0.214,0,0.391,0.086,0.391,0.192V121.288z"/>
		<path id="XMLID_1225_" fill="#F6B933" d="M207.764,132.674c0,0.213-0.287,0.388-0.638,0.388h-7.469
			c-0.353,0-0.638-0.175-0.638-0.388v-3.65c0-0.213,0.285-0.391,0.638-0.391h7.469c0.351,0,0.638,0.178,0.638,0.391V132.674z"/>
		<path id="XMLID_1224_" fill="#F6B933" d="M211.187,138.517c0,0.214-0.397,0.388-0.887,0.388h-10.395
			c-0.489,0-0.886-0.174-0.886-0.388v-3.647c0-0.216,0.397-0.393,0.886-0.393H210.3c0.49,0,0.887,0.177,0.887,0.393V138.517z"/>
		<path id="XMLID_1223_" fill="#F6B933" d="M211.187,144.358c0,0.219-0.396,0.391-0.887,0.391h-10.395
			c-0.489,0-0.886-0.172-0.886-0.391v-3.643c0-0.213,0.397-0.388,0.886-0.388H210.3c0.491,0,0.887,0.175,0.887,0.388V144.358z"/>
		<path id="XMLID_1222_" fill="#F6B933" d="M204.35,156.054c0,0.209-0.175,0.386-0.391,0.386h-4.554
			c-0.215,0-0.389-0.177-0.389-0.386v-3.649c0-0.217,0.173-0.391,0.389-0.391h4.554c0.216,0,0.391,0.174,0.391,0.391V156.054z"/>
		<path id="XMLID_1221_" fill="#F6B933" d="M211.187,126.826c0,0.216-0.175,0.391-0.392,0.391h-4.555
			c-0.213,0-0.387-0.175-0.387-0.391v-3.649c0-0.209,0.173-0.383,0.387-0.383h4.555c0.217,0,0.392,0.174,0.392,0.383V126.826z"/>
		<path id="XMLID_41_" fill="#F6B933" d="M214.6,132.674c0,0.213-0.174,0.388-0.389,0.388h-4.556c-0.214,0-0.389-0.175-0.389-0.388
			v-3.65c0-0.213,0.175-0.391,0.389-0.391h4.556c0.215,0,0.389,0.178,0.389,0.391V132.674z"/>
		<path id="XMLID_40_" fill="#F6B933" d="M211.187,156.054c0,0.209-0.175,0.386-0.392,0.386h-4.555
			c-0.213,0-0.387-0.177-0.387-0.386v-3.649c0-0.217,0.173-0.391,0.387-0.391h4.555c0.217,0,0.392,0.174,0.392,0.391V156.054z"/>
		<path id="XMLID_1218_" fill="#F6B933" d="M218.024,126.826c0,0.216-0.175,0.391-0.39,0.391h-4.556c-0.215,0-0.39-0.175-0.39-0.391
			v-3.649c0-0.209,0.175-0.383,0.39-0.383h4.556c0.215,0,0.39,0.174,0.39,0.383V126.826z"/>
		<path id="XMLID_1217_" fill="#F6B933" d="M221.437,132.674c0,0.213-0.175,0.388-0.389,0.388h-4.556
			c-0.213,0-0.388-0.175-0.388-0.388v-3.65c0-0.213,0.175-0.391,0.388-0.391h4.556c0.214,0,0.389,0.178,0.389,0.391V132.674z"/>
		<path id="XMLID_1216_" fill="#F6B933" d="M218.024,138.517c0,0.214-0.175,0.388-0.39,0.388h-4.556c-0.215,0-0.39-0.174-0.39-0.388
			v-3.647c0-0.216,0.175-0.393,0.39-0.393h4.556c0.215,0,0.39,0.177,0.39,0.393V138.517z"/>
		<path id="XMLID_39_" fill="#F6B933" d="M220.687,144.358c0,0.219-0.172,0.391-0.391,0.391h-4.554
			c-0.215,0-0.389-0.172-0.389-0.391v-3.643c0-0.213,0.173-0.388,0.389-0.388h4.554c0.219,0,0.391,0.175,0.391,0.388V144.358z"/>
		<path id="XMLID_38_" fill="#F6B933" d="M218.024,156.054c0,0.209-0.175,0.386-0.39,0.386h-4.556c-0.215,0-0.39-0.177-0.39-0.386
			v-3.649c0-0.217,0.175-0.391,0.39-0.391h4.556c0.215,0,0.39,0.174,0.39,0.391V156.054z"/>
		<path id="XMLID_37_" fill="#F6B933" d="M224.86,126.826c0,0.216-0.175,0.391-0.389,0.391h-4.559c-0.214,0-0.386-0.175-0.386-0.391
			v-3.649c0-0.209,0.171-0.383,0.386-0.383h4.559c0.214,0,0.389,0.174,0.389,0.383V126.826z"/>
		<path id="XMLID_36_" fill="#F6B933" d="M228.272,132.674c0,0.213-0.174,0.388-0.389,0.388h-4.554
			c-0.216,0-0.391-0.175-0.391-0.388v-3.65c0-0.213,0.175-0.391,0.391-0.391h4.554c0.215,0,0.389,0.178,0.389,0.391V132.674z"/>
		<path id="XMLID_1211_" fill="#F6B933" d="M224.86,138.517c0,0.214-0.175,0.388-0.389,0.388h-4.559
			c-0.214,0-0.386-0.174-0.386-0.388v-3.647c0-0.216,0.171-0.393,0.386-0.393h4.559c0.214,0,0.389,0.177,0.389,0.393V138.517z"/>
		<path id="XMLID_1210_" fill="#F6B933" d="M227.522,144.358c0,0.219-0.172,0.391-0.388,0.391h-4.556
			c-0.216,0-0.387-0.172-0.387-0.391v-3.643c0-0.213,0.17-0.388,0.387-0.388h4.556c0.215,0,0.388,0.175,0.388,0.388V144.358z"/>
		<path id="XMLID_1209_" fill="#F6B933" d="M224.86,150.208c0,0.209-0.175,0.389-0.389,0.389h-4.559
			c-0.214,0-0.386-0.18-0.386-0.389v-3.652c0-0.211,0.171-0.386,0.386-0.386h4.559c0.214,0,0.389,0.175,0.389,0.386V150.208z"/>
		<path id="XMLID_1208_" fill="#F6B933" d="M224.86,156.054c0,0.209-0.175,0.386-0.389,0.386h-4.559
			c-0.214,0-0.386-0.177-0.386-0.386v-3.649c0-0.217,0.171-0.391,0.386-0.391h4.559c0.214,0,0.389,0.174,0.389,0.391V156.054z"/>
		<path id="XMLID_1207_" fill="#F6B933" d="M231.696,126.826c0,0.216-0.172,0.391-0.391,0.391h-4.555
			c-0.213,0-0.384-0.175-0.384-0.391v-3.649c0-0.209,0.171-0.383,0.384-0.383h4.555c0.219,0,0.391,0.174,0.391,0.383V126.826z"/>
		<path id="XMLID_1206_" fill="#F6B933" d="M235.109,132.674c0,0.213-0.173,0.388-0.389,0.388h-4.554
			c-0.216,0-0.392-0.175-0.392-0.388v-3.65c0-0.213,0.176-0.391,0.392-0.391h4.554c0.216,0,0.389,0.178,0.389,0.391V132.674z"/>
		<path id="XMLID_1205_" fill="#F6B933" d="M231.696,138.517c0,0.214-0.172,0.388-0.391,0.388h-4.555
			c-0.213,0-0.384-0.174-0.384-0.388v-3.647c0-0.216,0.171-0.393,0.384-0.393h4.555c0.219,0,0.391,0.177,0.391,0.393V138.517z"/>
		<path id="XMLID_1204_" fill="#F6B933" d="M234.36,144.358c0,0.219-0.173,0.391-0.392,0.391h-4.554
			c-0.212,0-0.385-0.172-0.385-0.391v-3.643c0-0.213,0.173-0.388,0.385-0.388h4.554c0.218,0,0.392,0.175,0.392,0.388V144.358z"/>
		<path id="XMLID_1203_" fill="#F6B933" d="M231.696,150.208c0,0.209-0.172,0.389-0.391,0.389h-4.555
			c-0.213,0-0.384-0.18-0.384-0.389v-3.652c0-0.211,0.171-0.386,0.384-0.386h4.555c0.219,0,0.391,0.175,0.391,0.386V150.208z"/>
		<path id="XMLID_1202_" fill="#F6B933" d="M238.531,126.826c0,0.216-0.173,0.391-0.389,0.391h-4.554
			c-0.215,0-0.387-0.175-0.387-0.391v-3.649c0-0.209,0.172-0.383,0.387-0.383h4.554c0.216,0,0.389,0.174,0.389,0.383V126.826z"/>
		<path id="XMLID_1201_" fill="#F6B933" d="M241.946,132.674c0,0.213-0.174,0.388-0.39,0.388h-4.553c-0.218,0-0.39-0.175-0.39-0.388
			v-3.65c0-0.213,0.172-0.391,0.39-0.391h4.553c0.216,0,0.39,0.178,0.39,0.391V132.674z"/>
		<path id="XMLID_1200_" fill="#F6B933" d="M238.531,138.517c0,0.214-0.173,0.388-0.389,0.388h-4.554
			c-0.215,0-0.387-0.174-0.387-0.388v-3.647c0-0.216,0.172-0.393,0.387-0.393h4.554c0.216,0,0.389,0.177,0.389,0.393V138.517z"/>
		<path id="XMLID_1199_" fill="#F6B933" d="M241.196,144.358c0,0.219-0.173,0.391-0.389,0.391h-4.556
			c-0.215,0-0.385-0.172-0.385-0.391v-3.643c0-0.213,0.169-0.388,0.385-0.388h4.556c0.216,0,0.389,0.175,0.389,0.388V144.358z"/>
		<path id="XMLID_1198_" fill="#F6B933" d="M238.531,150.208c0,0.209-0.173,0.389-0.389,0.389h-4.554
			c-0.215,0-0.387-0.18-0.387-0.389v-3.652c0-0.211,0.172-0.386,0.387-0.386h4.554c0.216,0,0.389,0.175,0.389,0.386V150.208z"/>
		<path id="XMLID_1197_" fill="#F6B933" d="M245.372,126.826c0,0.216-0.175,0.391-0.389,0.391h-4.56
			c-0.214,0-0.388-0.175-0.388-0.391v-3.649c0-0.209,0.173-0.383,0.388-0.383h4.56c0.214,0,0.389,0.174,0.389,0.383V126.826z"/>
		<path id="XMLID_1196_" fill="#F6B933" d="M248.786,132.674c0,0.213-0.175,0.388-0.392,0.388h-4.559
			c-0.212,0-0.386-0.175-0.386-0.388v-3.65c0-0.213,0.173-0.391,0.386-0.391h4.559c0.217,0,0.392,0.178,0.392,0.391V132.674z"/>
		<path id="XMLID_1195_" fill="#F6B933" d="M245.372,138.517c0,0.214-0.175,0.388-0.389,0.388h-4.56
			c-0.214,0-0.388-0.174-0.388-0.388v-3.647c0-0.216,0.173-0.393,0.388-0.393h4.56c0.214,0,0.389,0.177,0.389,0.393V138.517z"/>
		<path id="XMLID_1194_" fill="#F6B933" d="M248.033,144.358c0,0.219-0.172,0.391-0.388,0.391h-4.558
			c-0.212,0-0.386-0.172-0.386-0.391v-3.643c0-0.213,0.174-0.388,0.386-0.388h4.558c0.216,0,0.388,0.175,0.388,0.388V144.358z"/>
		<path id="XMLID_1193_" fill="#F6B933" d="M245.372,150.208c0,0.209-0.175,0.389-0.389,0.389h-4.56
			c-0.214,0-0.388-0.18-0.388-0.389v-3.652c0-0.211,0.173-0.386,0.388-0.386h4.56c0.214,0,0.389,0.175,0.389,0.386V150.208z"/>
		<path id="XMLID_1192_" fill="#F6B933" d="M252.207,126.826c0,0.216-0.172,0.391-0.389,0.391h-4.558
			c-0.211,0-0.388-0.175-0.388-0.391v-3.649c0-0.209,0.177-0.383,0.388-0.383h4.558c0.217,0,0.389,0.174,0.389,0.383V126.826z"/>
		<path id="XMLID_1191_" fill="#F6B933" d="M255.622,132.674c0,0.213-0.176,0.388-0.39,0.388h-4.558
			c-0.212,0-0.387-0.175-0.387-0.388v-3.65c0-0.213,0.175-0.391,0.387-0.391h4.558c0.214,0,0.39,0.178,0.39,0.391V132.674z"/>
		<path id="XMLID_1190_" fill="#F6B933" d="M252.207,138.517c0,0.214-0.172,0.388-0.389,0.388h-4.558
			c-0.211,0-0.388-0.174-0.388-0.388v-3.647c0-0.216,0.177-0.393,0.388-0.393h4.558c0.217,0,0.389,0.177,0.389,0.393V138.517z"/>
		<path id="XMLID_1189_" fill="#F6B933" d="M254.869,144.358c0,0.219-0.169,0.391-0.386,0.391h-4.559
			c-0.214,0-0.386-0.172-0.386-0.391v-3.643c0-0.213,0.172-0.388,0.386-0.388h4.559c0.217,0,0.386,0.175,0.386,0.388V144.358z"/>
		<path id="XMLID_1188_" fill="#F6B933" d="M252.207,150.208c0,0.209-0.172,0.389-0.389,0.389h-4.558
			c-0.211,0-0.388-0.18-0.388-0.389v-3.652c0-0.211,0.177-0.386,0.388-0.386h4.558c0.217,0,0.389,0.175,0.389,0.386V150.208z"/>
		<path id="XMLID_1187_" fill="#F6B933" d="M259.042,126.826c0,0.216-0.173,0.391-0.391,0.391h-4.554
			c-0.211,0-0.388-0.175-0.388-0.391v-3.649c0-0.209,0.177-0.383,0.388-0.383h4.554c0.218,0,0.391,0.174,0.391,0.383V126.826z"/>
		<path id="XMLID_1186_" fill="#F6B933" d="M262.456,132.674c0,0.213-0.17,0.388-0.39,0.388h-4.555c-0.214,0-0.39-0.175-0.39-0.388
			v-3.65c0-0.213,0.176-0.391,0.39-0.391h4.555c0.22,0,0.39,0.178,0.39,0.391V132.674z"/>
		<path id="XMLID_1185_" fill="#F6B933" d="M259.042,138.517c0,0.214-0.173,0.388-0.391,0.388h-4.554
			c-0.211,0-0.388-0.174-0.388-0.388v-3.647c0-0.216,0.177-0.393,0.388-0.393h4.554c0.218,0,0.391,0.177,0.391,0.393V138.517z"/>
		<path id="XMLID_1184_" fill="#F6B933" d="M261.707,144.358c0,0.219-0.17,0.391-0.386,0.391h-4.559
			c-0.213,0-0.388-0.172-0.388-0.391v-3.643c0-0.213,0.175-0.388,0.388-0.388h4.559c0.216,0,0.386,0.175,0.386,0.388V144.358z"/>
		<path id="XMLID_1183_" fill="#F6B933" d="M259.042,150.208c0,0.209-0.173,0.389-0.391,0.389h-4.554
			c-0.211,0-0.388-0.18-0.388-0.389v-3.652c0-0.211,0.177-0.386,0.388-0.386h4.554c0.218,0,0.391,0.175,0.391,0.386V150.208z"/>
		<path id="XMLID_1182_" fill="#F6B933" d="M259.042,156.054c0,0.209-0.173,0.386-0.391,0.386h-4.554
			c-0.211,0-0.388-0.177-0.388-0.386v-3.649c0-0.217,0.177-0.391,0.388-0.391h4.554c0.218,0,0.391,0.174,0.391,0.391V156.054z"/>
		<path id="XMLID_1181_" fill="#F6B933" d="M265.881,126.826c0,0.216-0.175,0.391-0.389,0.391h-4.558
			c-0.215,0-0.389-0.175-0.389-0.391v-3.649c0-0.209,0.174-0.383,0.389-0.383h4.558c0.214,0,0.389,0.174,0.389,0.383V126.826z"/>
		<path id="XMLID_1180_" fill="#F6B933" d="M269.296,132.674c0,0.213-0.176,0.388-0.393,0.388h-4.555
			c-0.213,0-0.387-0.175-0.387-0.388v-3.65c0-0.213,0.174-0.391,0.387-0.391h4.555c0.217,0,0.393,0.178,0.393,0.391V132.674z"/>
		<path id="XMLID_1179_" fill="#F6B933" d="M265.881,138.517c0,0.214-0.175,0.388-0.389,0.388h-4.558
			c-0.215,0-0.389-0.174-0.389-0.388v-3.647c0-0.216,0.174-0.393,0.389-0.393h4.558c0.214,0,0.389,0.177,0.389,0.393V138.517z"/>
		<path id="XMLID_1178_" fill="#F6B933" d="M268.547,144.358c0,0.219-0.175,0.391-0.391,0.391h-4.558
			c-0.216,0-0.387-0.172-0.387-0.391v-3.643c0-0.213,0.171-0.388,0.387-0.388h4.558c0.216,0,0.391,0.175,0.391,0.388V144.358z"/>
		<path id="XMLID_1177_" fill="#F6B933" d="M265.881,156.054c0,0.209-0.175,0.386-0.389,0.386h-4.558
			c-0.215,0-0.389-0.177-0.389-0.386v-3.649c0-0.217,0.174-0.391,0.389-0.391h4.558c0.214,0,0.389,0.174,0.389,0.391V156.054z"/>
		<path id="XMLID_1176_" fill="#F6B933" d="M279.547,132.674c0,0.213-0.288,0.388-0.639,0.388h-7.474
			c-0.352,0-0.637-0.175-0.637-0.388v-3.65c0-0.213,0.285-0.391,0.637-0.391h7.474c0.351,0,0.639,0.178,0.639,0.391V132.674z"/>
		<path id="XMLID_1175_" fill="#F6B933" d="M272.716,138.517c0,0.214-0.174,0.388-0.388,0.388h-4.557
			c-0.216,0-0.392-0.174-0.392-0.388v-3.647c0-0.216,0.176-0.393,0.392-0.393h4.557c0.214,0,0.388,0.177,0.388,0.393V138.517z"/>
		<path id="XMLID_1174_" fill="#F6B933" d="M272.716,156.054c0,0.209-0.174,0.386-0.388,0.386h-4.557
			c-0.216,0-0.392-0.177-0.392-0.386v-3.649c0-0.217,0.176-0.391,0.392-0.391h4.557c0.214,0,0.388,0.174,0.388,0.391V156.054z"/>
		<path id="XMLID_1173_" fill="#F6B933" d="M279.554,126.826c0,0.216-0.397,0.391-0.889,0.391h-10.4
			c-0.493,0-0.889-0.175-0.889-0.391v-3.649c0-0.209,0.396-0.383,0.889-0.383h10.4c0.491,0,0.889,0.174,0.889,0.383V126.826z"/>
		<path id="XMLID_1172_" fill="#F6B933" d="M279.552,138.517c0,0.214-0.173,0.388-0.388,0.388h-4.556
			c-0.216,0-0.392-0.174-0.392-0.388v-3.647c0-0.216,0.176-0.393,0.392-0.393h4.556c0.215,0,0.388,0.177,0.388,0.393V138.517z"/>
		<path id="XMLID_1171_" fill="#F6B933" d="M279.547,144.358c0,0.219-0.324,0.391-0.719,0.391h-8.397
			c-0.395,0-0.718-0.172-0.718-0.391v-3.643c0-0.213,0.323-0.388,0.718-0.388h8.397c0.395,0,0.719,0.175,0.719,0.388V144.358z"/>
		<path id="XMLID_1170_" fill="#F6B933" d="M279.552,156.054c0,0.209-0.173,0.386-0.388,0.386h-4.556
			c-0.216,0-0.392-0.177-0.392-0.386v-3.649c0-0.217,0.176-0.391,0.392-0.391h4.556c0.215,0,0.388,0.174,0.388,0.391V156.054z"/>
		<path id="XMLID_1169_" fill="#F6B933" d="M252.207,155.085c0,0.75-0.604,1.354-1.351,1.354h-23.14
			c-0.748,0-1.357-0.604-1.357-1.354v-1.584c0-0.748,0.609-1.353,1.357-1.353h23.14c0.746,0,1.351,0.604,1.351,1.353V155.085z"/>
		<path id="XMLID_1168_" fill="#F6B933" d="M218.021,149.24c0,0.75-0.605,1.357-1.354,1.357h-16.298
			c-0.748,0-1.352-0.607-1.352-1.357v-1.714c0-0.751,0.604-1.355,1.352-1.355h16.298c0.748,0,1.354,0.604,1.354,1.355V149.24z"/>
		<path id="XMLID_1167_" fill="#F6B933" d="M279.552,149.24c0,0.75-0.603,1.357-1.354,1.357h-16.294
			c-0.753,0-1.358-0.607-1.358-1.357v-1.714c0-0.751,0.605-1.355,1.358-1.355h16.294c0.751,0,1.354,0.604,1.354,1.355V149.24z"/>
	</g>
	<path id="XMLID_1162_" fill="#FFFFFF" d="M298.981,110.254v-3.482c0-0.404-0.282-0.729-0.632-0.729H183.574
		c-0.348,0-0.632,0.325-0.632,0.729v3.482H298.981z"/>
	<g id="XMLID_238_">
		<path fill="#414042" d="M299.981,111.255H181.943v-4.483c0-0.953,0.732-1.729,1.632-1.729h114.774c0.9,0,1.632,0.776,1.632,1.729
			V111.255z M183.943,109.254h114.038v-2.212H183.943V109.254z"/>
	</g>
	<g id="XMLID_239_">
		<path fill="#414042" d="M290.494,182.78H189.942c-1.21,0-2.195-0.984-2.195-2.196v-68.341h2v68.341
			c0,0.109,0.085,0.195,0.194,0.195h100.552c0.107,0,0.193-0.089,0.193-0.195v-68.341h2.001v68.341
			C292.689,181.795,291.704,182.78,290.494,182.78z"/>
	</g>
</g>
<g id="XMLID_168_">
	<path id="XMLID_244_" fill="#FFFFFF" d="M279.065,151.538c-1.472,0-2.677,1.203-2.677,2.675v-2.808
		c0-1.473-1.204-2.679-2.676-2.679c-1.473,0-2.677,1.206-2.677,2.679v-2.809c0-1.472-1.204-2.678-2.677-2.678
		s-2.677,1.206-2.677,2.678v-8.508c0-1.473-1.204-2.676-2.677-2.676c-1.472,0-2.676,1.203-2.676,2.676v16.852h-3.774
		c-0.999,0-1.81,0.811-1.81,1.808v11.919c0,0.956,0.557,1.826,1.425,2.225l2.195,1.016c0.87,0.398,1.425,1.269,1.425,2.225v5.161
		h17.81v-5.822c0-0.579,0.234-1.136,0.648-1.543l2.724-2.665c0.492-0.481,0.77-1.141,0.77-1.828v-15.222
		C281.741,152.741,280.537,151.538,279.065,151.538z"/>
	<g id="XMLID_243_">
		<path fill="#414042" d="M261.215,161.798h-2.001v-21.71c0-2.027,1.649-3.676,3.676-3.676c2.028,0,3.678,1.648,3.678,3.676v17.773
			h-2.001v-17.773c0-0.925-0.752-1.676-1.677-1.676s-1.675,0.751-1.675,1.676V161.798z"/>
	</g>
	<g id="XMLID_242_">
		<path fill="#414042" d="M271.921,153.168h-2.001v-4.572c0-0.925-0.752-1.678-1.677-1.678s-1.676,0.753-1.676,1.678v4.572h-2.001
			v-4.572c0-2.029,1.649-3.679,3.677-3.679c2.028,0,3.678,1.649,3.678,3.679V153.168z"/>
	</g>
	<g id="XMLID_241_">
		<path fill="#414042" d="M277.274,157.862h-2v-6.457c0-0.925-0.752-1.678-1.677-1.678s-1.676,0.753-1.676,1.678v6.457h-2.001
			v-6.457c0-2.029,1.648-3.679,3.677-3.679s3.677,1.649,3.677,3.679V157.862z"/>
	</g>
	<g id="XMLID_240_">
		<path fill="#414042" d="M278.486,181.292h-2.001v-5.822c0-0.845,0.347-1.668,0.95-2.256l2.723-2.665
			c0.299-0.292,0.47-0.698,0.47-1.115v-15.222c0-0.925-0.752-1.675-1.677-1.675s-1.677,0.75-1.677,1.675v2.521h-2v-2.521
			c0-2.026,1.648-3.676,3.677-3.676s3.677,1.649,3.677,3.676v15.222c0,0.951-0.391,1.878-1.07,2.545l-2.724,2.665
			c-0.222,0.216-0.348,0.516-0.348,0.826V181.292z"/>
	</g>
	<g id="XMLID_35_">
		<path fill="#414042" d="M260.676,181.292h-2.001v-5.161c0-0.562-0.331-1.081-0.841-1.315l-2.199-1.016
			c-1.217-0.561-2.005-1.793-2.005-3.134v-11.919c0-1.547,1.26-2.808,2.81-2.808h3.775v2h-3.775c-0.445,0-0.809,0.362-0.809,0.808
			v11.919c0,0.564,0.331,1.081,0.843,1.315l2.196,1.016c1.219,0.561,2.006,1.792,2.006,3.134V181.292z"/>
	</g>
	<rect id="XMLID_170_" x="257.308" y="176.673" fill="#47C4FE" width="22.773" height="36.893"/>
	<rect id="XMLID_169_" x="257.308" y="176.673" fill="#19B5FE" width="6.879" height="36.893"/>
	<g id="XMLID_245_">
		<polygon fill="#414042" points="281.081,213.566 279.08,213.566 279.08,177.673 258.308,177.673 258.308,213.566 256.307,213.566 
			256.307,175.673 281.081,175.673 		"/>
	</g>
</g>
<g id="XMLID_166_">
	<path id="XMLID_34_" fill="#FFFFFF" d="M205.225,139.531c1.472,0,2.676,1.203,2.676,2.675v-2.808c0-1.473,1.205-2.679,2.677-2.679
		c1.473,0,2.677,1.206,2.677,2.679v-2.809c0-1.475,1.204-2.678,2.677-2.678c1.472,0,2.677,1.203,2.677,2.678v-8.508
		c0-1.472,1.204-2.676,2.677-2.676c1.472,0,2.676,1.204,2.676,2.676v16.852h3.773c1,0,1.81,0.811,1.81,1.809v11.918
		c0,0.956-0.556,1.823-1.425,2.225l-2.196,1.014c-0.868,0.4-1.424,1.271-1.424,2.227v5.161H206.69v-5.822
		c0-0.581-0.234-1.136-0.649-1.542l-2.723-2.665c-0.492-0.482-0.77-1.142-0.77-1.829v-15.222
		C202.548,140.734,203.752,139.531,205.225,139.531z"/>
	<g id="XMLID_264_">
		<path fill="#414042" d="M225.076,149.792h-2v-21.71c0-0.925-0.752-1.676-1.677-1.676c-0.924,0-1.676,0.751-1.676,1.676v17.774h-2
			v-17.774c0-2.027,1.649-3.676,3.676-3.676s3.677,1.648,3.677,3.676V149.792z"/>
	</g>
	<g id="XMLID_253_">
		<path fill="#414042" d="M219.723,141.162h-2v-4.575c0-0.922-0.752-1.675-1.676-1.675c-0.924,0-1.676,0.753-1.676,1.675v4.575
			h-2.001v-4.575c0-2.026,1.65-3.676,3.677-3.676s3.677,1.649,3.677,3.676V141.162z"/>
	</g>
	<g id="XMLID_252_">
		<path fill="#414042" d="M214.37,145.856h-2.001v-6.458c0-0.925-0.752-1.678-1.676-1.678c-0.924,0-1.676,0.753-1.676,1.678v6.458
			h-2v-6.458c0-2.029,1.649-3.679,3.676-3.679s3.677,1.649,3.677,3.679V145.856z"/>
	</g>
	<g id="XMLID_251_">
		<path fill="#414042" d="M207.805,169.286h-2v-5.822c0-0.312-0.124-0.607-0.348-0.826l-2.724-2.665
			c-0.68-0.667-1.07-1.594-1.07-2.545v-15.222c0-2.026,1.65-3.676,3.677-3.676s3.677,1.649,3.677,3.676v2.522h-2v-2.522
			c0-0.925-0.752-1.675-1.676-1.675c-0.924,0-1.677,0.75-1.677,1.675v15.222c0,0.417,0.171,0.823,0.469,1.115l2.723,2.665
			c0.604,0.589,0.95,1.411,0.95,2.256V169.286z"/>
	</g>
	<g id="XMLID_249_">
		<path fill="#414042" d="M225.614,169.286h-2.001v-5.161c0-1.341,0.788-2.571,2.006-3.134l2.196-1.013
			c0.512-0.237,0.843-0.756,0.843-1.318v-11.918c0-0.446-0.363-0.808-0.809-0.808h-3.774v-2.001h3.774
			c1.549,0,2.81,1.261,2.81,2.809v11.918c0,1.342-0.788,2.571-2.005,3.134l-2.196,1.014c-0.512,0.236-0.844,0.755-0.844,1.317
			V169.286z"/>
	</g>
	<rect id="XMLID_33_" x="204.209" y="164.665" fill="#47C4FE" width="22.773" height="48.823"/>
	<rect id="XMLID_247_" x="220.103" y="164.665" fill="#19B5FE" width="6.879" height="48.823"/>
	<g id="XMLID_246_">
		<polygon fill="#414042" points="227.983,213.488 225.982,213.488 225.982,165.665 205.209,165.665 205.209,213.488 
			203.208,213.488 203.208,163.664 227.983,163.664 		"/>
	</g>
</g>
<g>
	<path id="XMLID_374_" fill="#FFFFFF" d="M260.532,94.179c4.434,0.8,5.799-4.611,0.206-5.252l-5.205-1.141l-5.872-5.703
		l0.025-12.624l4.102-6.009c0,0,3.878-1.7,4.645-1.903l8.342,1.157c1.404-0.168,2.611,0.012,3.156-1.188
		c0.545-1.201,0.014-2.614-1.188-3.159l-8.203-1.411c-0.625-0.281-10.04-0.211-10.04-0.211l-16.293,13.151V84.83l8.758,1.889
		l11.342,6.841L260.532,94.179z"/>
	<g id="XMLID_373_">
		<path fill="#414042" d="M261.387,95.257c-0.323,0-0.653-0.028-0.991-0.086l-6.413-0.641l-11.392-6.87l-9.385-2.023v-16.23
			l16.938-13.669l0.349-0.002c7.894-0.06,9.725,0.112,10.25,0.23l8.414,1.481c1.701,0.77,2.457,2.781,1.686,4.482
			c-0.688,1.512-2.093,1.618-3.223,1.702c-0.232,0.018-0.477,0.037-0.727,0.066l-0.128,0.014l-8.248-1.144
			c-0.71,0.245-2.71,1.093-4.064,1.683l-3.767,5.518l-0.023,11.892l5.363,5.208l4.928,1.081c2.063,0.229,3.641,1.195,4.229,2.634
			c0.446,1.091,0.259,2.3-0.499,3.237C263.931,94.752,262.741,95.257,261.387,95.257z M254.63,92.584l6.08,0.609
			c1.044,0.19,1.945-0.047,2.417-0.63c0.297-0.367,0.37-0.812,0.203-1.222c-0.304-0.742-1.289-1.259-2.705-1.423l-5.584-1.219
			l-6.38-6.195l0.026-13.356l4.437-6.5l0.262-0.115c0.66-0.289,3.989-1.743,4.792-1.954l0.194-0.052l8.415,1.167
			c0.233-0.025,0.463-0.043,0.683-0.059c1.151-0.087,1.383-0.167,1.552-0.535c0.152-0.336,0.165-0.713,0.035-1.059
			c-0.118-0.312-0.338-0.565-0.626-0.724l-8.302-1.46c-0.514-0.099-5.08-0.156-9.271-0.125l-15.651,12.63v13.659l8.274,1.839
			L254.63,92.584z"/>
	</g>
	<g>
		<path fill="#D1D3D4" d="M164.988,153.786h-21.34v-48.915c0-21.394,17.404-38.795,38.795-38.795h53.721v21.341h-53.721
			c-9.624,0-17.455,7.828-17.455,17.454V153.786z"/>
	</g>
	<path fill="#939598" d="M182.443,87.417h53.721v-8.151h-48.99c-21.392,0-38.795,17.404-38.795,38.794v35.727h16.61v-48.915
		C164.988,95.245,172.819,87.417,182.443,87.417z"/>
	<g>
		<g>
			<path fill="#414042" d="M165.989,104.871h-2c0-10.176,8.279-18.455,18.455-18.455h52.721v-19.34h-52.721
				c-4.774,0-10.619,0.526-17.763,4.442l-0.961-1.756c7.54-4.129,13.696-4.687,18.724-4.687h54.721v23.341h-54.721
				C173.37,88.417,165.989,95.796,165.989,104.871z"/>
		</g>
	</g>
</g>
<g>
	<path id="XMLID_32_" fill="#FFFFFF" d="M105.044,106.667l-9.467,10.103c-2.271,2.97-7.099-0.102-4.54-2.899l7.543-10.47
		l-3.661,0.016l-8.724,9.318c0,0-0.834,5.835-1.051,6.653l-0.208,7.456c0.578,1.278,0.013,2.784-1.266,3.365
		c-1.281,0.581-2.786,0.013-3.368-1.266l-0.059-8.407c-0.3-0.664-0.225-10.701-0.225-10.701L90.5,88.164h15.93l0.026,15.521
		C106.33,104.633,105.698,105.969,105.044,106.667z"/>
	<g id="XMLID_31_">
		<path fill="#414042" d="M82.891,131.781c-0.42,0-0.842-0.078-1.247-0.229c-0.885-0.334-1.588-0.992-1.98-1.854l-0.081-0.181
			l-0.335-8.862c-0.122-0.653-0.289-2.795-0.229-10.826l0.002-0.224l10.852-22.44h17.555l0.028,16.586l-0.009,0.065
			c-0.154,1.165-0.874,2.684-1.674,3.535l-9.466,10.105c-0.874,1.148-2.263,1.717-3.754,1.477c-1.438-0.231-2.646-1.178-3.077-2.415
			c-0.395-1.13-0.103-2.311,0.822-3.321l6.322-8.787l-1.267,0.006l-8.568,9.154c-0.132,1.403-0.506,5.282-0.722,6.361l0.145,7.302
			l-0.008,0.07c-0.032,0.266-0.051,0.526-0.07,0.776c-0.088,1.188-0.199,2.665-1.776,3.382
			C83.887,131.673,83.39,131.781,82.891,131.781z M81.566,129.024c0.179,0.3,0.451,0.529,0.783,0.654
			c0.384,0.144,0.804,0.13,1.179-0.039c0.45-0.206,0.521-0.526,0.61-1.712c0.019-0.255,0.039-0.521,0.07-0.792l-0.147-7.427
			l0.036-0.136c0.123-0.461,0.468-3.684,0.73-6.53l0.032-0.342l9.625-10.282l6.058-0.028l-8.692,12.064
			c-0.49,0.547-0.627,0.989-0.483,1.403c0.186,0.534,0.806,0.985,1.505,1.1c0.437,0.065,1.262,0.058,1.913-0.795l9.531-10.18
			c0.5-0.532,1.022-1.623,1.141-2.371l-0.024-14.447H91.127L81.017,110.07c-0.031,4.525,0.025,9.506,0.175,10.16l0.081,0.177
			l-0.03,0.094L81.566,129.024z"/>
	</g>
	<g>
		<path fill="#F3C649" d="M165.261,212.827h-21.34V87.692c0-9.623-7.831-17.454-17.455-17.454c-9.625,0-17.455,7.831-17.455,17.454
			H87.671c0-21.39,17.404-38.793,38.795-38.793c21.391,0,38.795,17.404,38.795,38.793V212.827z"/>
	</g>
	<g>
		<path fill="#F0B81B" d="M153.568,212.844h-9.336V87.718c0-9.568-7.787-17.355-17.357-17.355s-17.357,7.787-17.357,17.355h-9.336
			c0-14.718,11.975-26.692,26.693-26.692S153.568,73,153.568,87.718V212.844z"/>
	</g>
	<g>
		<g>
			<path fill="#414042" d="M166.261,212.827h-2V87.692c0-20.837-16.955-37.793-37.795-37.793c-20.506,0-37.25,16.414-37.782,36.793
				h19.354c0.521-9.712,8.587-17.454,18.428-17.454c10.176,0,18.455,8.279,18.455,18.454v125.135h-2V87.692
				c0-9.07-7.381-16.453-16.454-16.453s-16.455,7.383-16.455,16.453v1.001H86.67v-1.001c0-21.942,17.853-39.794,39.796-39.794
				c21.943,0,39.795,17.852,39.795,39.794V212.827z"/>
		</g>
	</g>
</g>
<g>
	<path id="XMLID_1088_" fill="#FFFFFF" d="M314.031,111.302l-5.638-11.129v-19.65c0,0,6.072-0.516,6.417,2.913l1.706,12.059
		l4.824-2.811l3.879-5.619l0.135-13.276l-0.293-6.776c0,0,5.521,0.55,6.905,4.835l2.324,14.161l-4.849,25.29L314.031,111.302z"/>
	<g id="XMLID_377_">
		<path fill="#414042" d="M313.417,112.302l-6.023-11.892V79.604l0.916-0.078c2.622-0.225,7.146,0.333,7.496,3.811l1.492,10.543
			l3.347-1.948l3.578-5.185l0.131-12.968l-0.342-7.875l1.148,0.114c0.251,0.026,6.19,0.67,7.759,5.523l0.035,0.146l2.353,14.336
			l-5.037,26.276L313.417,112.302z M309.395,99.933l5.252,10.368l13.97-0.002l4.658-24.303l-2.281-13.909
			c-0.835-2.459-3.374-3.464-4.878-3.853l0.238,5.509l-0.136,13.635l-4.18,6.055l-6.303,3.673l-1.915-13.53
			c-0.177-1.751-2.946-2.043-4.426-2.071V99.933z"/>
	</g>
	<rect id="XMLID_1084_" x="311.843" y="110.409" fill="#F3C649" width="20.711" height="102.496"/>
	<rect id="XMLID_378_" x="311.843" y="110.409" fill="#F0B81B" width="8.257" height="102.496"/>
	<g id="XMLID_375_">
		<path fill="#414042" d="M333.554,213.905h-22.711V109.408h22.711V213.905z M312.844,211.904h18.709V111.409h-18.709V211.904z"/>
	</g>
</g>
<g id="XMLID_297_">
	<g id="XMLID_300_">
		<g id="XMLID_449_">
			<rect x="57.778" y="58.621" fill="#414042" width="2.001" height="5.297"/>
		</g>
		<g id="XMLID_448_">
			
				<rect x="62.429" y="59.871" transform="matrix(0.8654 0.501 -0.501 0.8654 39.8614 -23.3672)" fill="#414042" width="2.001" height="5.298"/>
		</g>
		<g id="XMLID_447_">
			
				<rect x="65.826" y="63.284" transform="matrix(0.4975 0.8675 -0.8675 0.4975 90.7797 -24.8372)" fill="#414042" width="2" height="5.298"/>
		</g>
		<g id="XMLID_446_">
			
				<rect x="65.407" y="69.588" transform="matrix(1 0.0044 -0.0044 1 0.313 -0.3004)" fill="#414042" width="5.297" height="2.001"/>
		</g>
		<g id="XMLID_445_">
			
				<rect x="57.695" y="77.174" transform="matrix(1 0.0088 -0.0088 1 0.7036 -0.5126)" fill="#414042" width="2.001" height="5.299"/>
		</g>
		<g id="XMLID_432_">
			
				<rect x="53.055" y="75.884" transform="matrix(0.8607 0.5091 -0.5091 0.8607 47.507 -16.5806)" fill="#414042" width="2.001" height="5.299"/>
		</g>
		<g id="XMLID_431_">
			
				<rect x="49.688" y="72.44" transform="matrix(0.4893 0.8721 -0.8721 0.4893 91.369 -5.8608)" fill="#414042" width="2.002" height="5.298"/>
		</g>
		<g id="XMLID_394_">
			
				<rect x="46.853" y="69.422" transform="matrix(0.9999 0.0133 -0.0133 0.9999 0.9391 -0.6508)" fill="#414042" width="5.297" height="2.001"/>
		</g>
		<g id="XMLID_381_">
			
				<rect x="48.165" y="64.79" transform="matrix(0.8585 0.5128 -0.5128 0.8585 40.9226 -16.7482)" fill="#414042" width="5.298" height="1.999"/>
		</g>
		<g id="XMLID_305_">
			
				<rect x="51.623" y="61.438" transform="matrix(0.4857 0.8742 -0.8742 0.4857 82.4951 -15.3271)" fill="#414042" width="5.298" height="2.001"/>
		</g>
	</g>
	<polygon id="XMLID_299_" fill="#414042" points="65.59,75.728 70.222,80.359 68.606,81.977 63.973,77.345 63.069,80.755 
		58.776,70.53 69,74.823 	"/>
</g>
<g>
	<path fill="#E6E7E8" d="M473.054,102.143h-9.583l0.039-1.707c0,0-3.271-1.771-4.956-2.894c-1.247-0.831-2.09-0.904-2.09-3.689
		v-6.682l16.893,2.081L473.054,102.143z"/>
	<g>
		<path fill="#414042" d="M474.031,103.143h-11.584l0.05-2.121c-1.009-0.557-3.191-1.776-4.497-2.648
			c-0.159-0.104-0.312-0.198-0.455-0.287c-1.257-0.766-2.08-1.475-2.08-4.233v-7.812l18.914,2.332L474.031,103.143z
			 M464.494,101.142h7.582l0.26-11.006l-14.871-1.834v5.551c0,1.842,0.282,2.014,1.121,2.527c0.166,0.099,0.34,0.206,0.522,0.328
			c1.628,1.086,4.846,2.832,4.878,2.85l0.538,0.289L464.494,101.142z"/>
	</g>
	<path id="XMLID_181_" fill="#A7A9AC" d="M469.215,80.401v8.258c0,2.532-2.072,4.605-4.607,4.605l0,0
		c-2.533,0-4.606-2.073-4.606-4.605v-8.258H469.215z"/>
	<g id="XMLID_30_">
		<path fill="#414042" d="M464.608,94.265c-3.092,0-5.607-2.514-5.607-5.606v-9.258h11.215v9.258
			C470.215,91.751,467.7,94.265,464.608,94.265z M461.001,81.401v7.258c0,1.988,1.618,3.605,3.606,3.605
			c1.989,0,3.606-1.617,3.606-3.605v-7.258H461.001z"/>
	</g>
	<circle id="XMLID_29_" fill="#F0B81B" cx="464.797" cy="56.988" r="16.688"/>
	<rect id="XMLID_28_" x="456.733" y="60.625" fill="#F0B81B" width="16.13" height="18.343"/>
	<g>
		<path fill="#414042" d="M473.863,78.306h-2.001v-7.302l0.516-0.284c5.001-2.767,8.107-8.028,8.107-13.732
			c0-8.65-7.038-15.688-15.688-15.688c-8.65,0-15.688,7.038-15.688,15.688c0,5.703,3.107,10.965,8.108,13.732l0.517,0.284v1.336
			h-1.414l-0.071,0.13c-0.077-0.044-0.152-0.086-0.229-0.13h-0.286v-0.167c-5.335-3.188-8.624-8.953-8.624-15.186
			c0-9.753,7.935-17.688,17.688-17.688c9.753,0,17.688,7.935,17.688,17.688c0,6.233-3.289,11.997-8.623,15.186V78.306z"/>
	</g>
	<rect id="XMLID_174_" x="456.624" y="78.106" fill="#A7A9AC" width="16.5" height="4.538"/>
	<path fill="#FFFFFF" d="M478.171,101.786V84.67l-2.992-4.916H467.3c-0.923,0.761,0.527,3.796,1.644,3.796
		c1.115,0,3.265,0.109,3.265,0.109l0.748,3.468L478.171,101.786z"/>
	<path fill="#FFFFFF" d="M477.835,103.099c0,3.026-1.037,2.195-3.595,2.195l0,0c-4.728,0.104-5.695-4.937-5.695-7.963v-1.868
		c0-4.069,4.078-9.214,6.634-9.214l0,0c2.556,0,2.622,2.454,2.622,5.479L477.835,103.099z"/>
	<g>
		<path fill="#414042" d="M479.171,101.786h-2V84.952l-2.555-4.196h-6.661c0.122,0.542,0.694,1.646,1.081,1.808
			c1.046-0.008,3.224,0.099,3.224,0.099l0.865,0.045l0.46,5.024l-1.993,0.183l-0.301-3.295c-0.711-0.031-1.704-0.068-2.348-0.068
			c-1.363,0-2.319-1.651-2.67-2.626c-0.462-1.284-0.32-2.357,0.39-2.94l0.277-0.229h8.801l3.43,5.638V101.786z"/>
	</g>
	<g>
		<path fill="#414042" d="M474.094,106.297c-1.635,0-3.01-0.536-4.094-1.597c-2.216-2.167-2.455-5.874-2.455-7.369v-1.868
			c0-3.399,2.462-7.292,4.842-9.089l1.206,1.597c-1.954,1.477-4.047,4.838-4.047,7.492v1.868c0,0.969,0.134,4.256,1.854,5.939
			c0.73,0.716,1.672,1.055,2.818,1.023l0.044,2.001C474.206,106.297,474.151,106.297,474.094,106.297z"/>
	</g>
	<rect id="XMLID_27_" x="459.622" y="102.114" fill="#47C4FE" width="20.71" height="111.591"/>
	<rect id="XMLID_26_" x="459.62" y="102.114" fill="#19B5FE" width="8.258" height="111.591"/>
	<g id="XMLID_25_">
		<polygon fill="#414042" points="481.332,213.705 479.331,213.705 479.331,103.115 460.622,103.115 460.622,213.705 
			458.621,213.705 458.621,101.114 481.332,101.114 		"/>
	</g>
	<path fill="#FFFFFF" d="M460.842,75.566c0.033,1.073-0.604,1.962-1.42,1.985l-8.987,0.067c-0.815,0.026-1.502-0.823-1.533-1.899
		l0,0c-0.032-1.074,0.604-1.962,1.42-1.985l8.987-0.068C460.124,73.643,460.811,74.493,460.842,75.566L460.842,75.566z"/>
	<path fill="#FFFFFF" d="M464.288,80.932c0.031,1.073-0.604,1.962-1.419,1.985l-13.021,0.034c-0.814,0.023-1.502-0.826-1.533-1.899
		l0,0c-0.032-1.073,0.604-1.962,1.42-1.985l13.019-0.031C463.572,79.009,464.257,79.862,464.288,80.932L464.288,80.932z"/>
	<path fill="#FFFFFF" d="M463.17,86.231c0.031,1.073-0.604,1.962-1.42,1.985l-10.501,0.057c-0.814,0.023-1.501-0.825-1.532-1.898
		l0,0c-0.032-1.073,0.604-1.962,1.42-1.985l10.499-0.055C462.452,84.308,463.137,85.161,463.17,86.231L463.17,86.231z"/>
	<path fill="#FFFFFF" d="M460.054,91.363c0.031,1.073-0.604,1.962-1.42,1.985l-5.964,0.096c-0.814,0.024-1.502-0.825-1.532-1.898
		l0,0c-0.033-1.073,0.604-1.962,1.419-1.985l5.963-0.097C459.336,89.44,460.022,90.29,460.054,91.363L460.054,91.363z"/>
	<g>
		<path fill="#414042" d="M450.382,78.622c-0.546,0-1.097-0.227-1.537-0.641c-0.573-0.542-0.917-1.354-0.943-2.233
			c-0.026-0.873,0.269-1.704,0.811-2.277c0.431-0.458,0.992-0.719,1.581-0.737l9.008-0.067c1.388-0.021,2.492,1.219,2.542,2.868l0,0
			c0.025,0.875-0.269,1.706-0.811,2.279c-0.432,0.458-0.992,0.719-1.581,0.737l-9.009,0.067
			C450.422,78.619,450.403,78.622,450.382,78.622z M459.342,74.667c-0.002,0-0.003,0-0.004,0l-9.009,0.068
			c-0.052,0.002-0.125,0.068-0.162,0.109c-0.136,0.143-0.278,0.443-0.265,0.847c0.012,0.406,0.171,0.695,0.315,0.834
			c0.037,0.033,0.115,0.08,0.188,0.094l9.009-0.068c0.053-0.002,0.126-0.067,0.163-0.109c0.136-0.144,0.277-0.442,0.265-0.847l0,0
			C459.825,75.014,459.511,74.667,459.342,74.667z"/>
	</g>
	<g>
		<path fill="#414042" d="M449.791,83.952c-0.54,0-1.091-0.227-1.531-0.641c-0.574-0.542-0.919-1.355-0.944-2.23
			c-0.026-0.875,0.269-1.703,0.81-2.279c0.432-0.456,0.993-0.719,1.582-0.734l13.045-0.031c0.57,0.01,1.137,0.208,1.594,0.641
			c0.573,0.539,0.917,1.352,0.943,2.228l0,0c0.021,0.737-0.186,1.445-0.58,1.998c-0.446,0.625-1.106,0.995-1.812,1.016
			l-13.046,0.034C449.832,83.952,449.811,83.952,449.791,83.952z M462.788,80.036c-0.001,0-0.003,0-0.004,0l-13.046,0.031
			c-0.047,0-0.12,0.068-0.158,0.107c-0.135,0.146-0.277,0.442-0.264,0.847c0.012,0.406,0.17,0.698,0.314,0.833
			c0.038,0.037,0.111,0.076,0.188,0.097l13.048-0.034c0.046,0,0.137-0.067,0.216-0.18c0.14-0.195,0.215-0.477,0.206-0.776l0,0
			c-0.012-0.403-0.171-0.692-0.315-0.828C462.936,80.096,462.86,80.036,462.788,80.036z"/>
	</g>
	<g>
		<path fill="#414042" d="M451.192,89.274c-1.336,0-2.427-1.248-2.475-2.871c-0.026-0.875,0.269-1.706,0.809-2.279
			c0.432-0.456,0.994-0.719,1.583-0.734l10.521-0.055c0.022-0.003,0.045-0.003,0.065-0.003c1.334,0,2.425,1.245,2.475,2.871l0,0
			c0.024,0.878-0.271,1.709-0.812,2.281c-0.432,0.456-0.993,0.717-1.58,0.732l-10.523,0.058
			C451.234,89.274,451.213,89.274,451.192,89.274z M461.669,85.334c-0.001,0-0.002,0-0.004,0l-10.523,0.055
			c-0.049,0-0.122,0.068-0.16,0.107c-0.135,0.143-0.277,0.442-0.264,0.847c0.017,0.581,0.33,0.93,0.499,0.93
			c0.001,0,0.002,0,0.004,0l10.524-0.058c0.049,0,0.121-0.064,0.158-0.104c0.136-0.146,0.277-0.446,0.266-0.853
			C462.152,85.681,461.837,85.334,461.669,85.334z"/>
	</g>
	<g>
		<path fill="#414042" d="M452.623,94.448c-1.347,0-2.438-1.248-2.486-2.874c-0.026-0.875,0.27-1.706,0.812-2.279
			c0.431-0.456,0.992-0.717,1.581-0.734l5.975-0.097c0.022,0,0.044,0,0.065,0c1.344,0,2.436,1.245,2.485,2.868v0.003
			c0.021,0.734-0.186,1.445-0.58,1.995c-0.446,0.628-1.107,0.998-1.812,1.019l-5.977,0.097
			C452.665,94.445,452.644,94.448,452.623,94.448z M458.554,90.464c-0.002,0-0.003,0-0.004,0l-5.978,0.097
			c-0.06,0.002-0.133,0.067-0.169,0.106c-0.137,0.146-0.279,0.442-0.266,0.849c0.017,0.584,0.325,0.907,0.504,0.928l5.976-0.097
			c0.06-0.002,0.151-0.07,0.23-0.182c0.14-0.193,0.215-0.477,0.206-0.774C459.035,90.811,458.722,90.464,458.554,90.464z"/>
	</g>
</g>
<g id="XMLID_11_">
	<g id="XMLID_22_">
		<g id="XMLID_24_">
			
				<rect x="408.891" y="168.114" transform="matrix(0.7071 0.7071 -0.7071 0.7071 239.8681 -240.8634)" fill="#414042" width="3.581" height="2.001"/>
		</g>
		<g id="XMLID_23_">
			
				<rect x="409.681" y="167.324" transform="matrix(0.7071 0.7071 -0.7071 0.7071 239.8681 -240.8634)" fill="#414042" width="2.001" height="3.581"/>
		</g>
	</g>
	<g id="XMLID_19_">
		<g id="XMLID_21_">
			
				<rect x="427.415" y="172.122" transform="matrix(0.7068 0.7074 -0.7074 0.7068 248.292 -252.858)" fill="#414042" width="3.582" height="2.001"/>
		</g>
		<g id="XMLID_20_">
			
				<rect x="428.206" y="171.331" transform="matrix(0.7074 0.7069 -0.7069 0.7074 247.9807 -252.7257)" fill="#414042" width="2" height="3.583"/>
		</g>
	</g>
	<g id="XMLID_18_">
		<path fill="#414042" d="M411.823,189.949c-0.075-0.086-0.396-0.242-0.587-0.339c-0.619-0.302-1.653-0.81-1.653-1.972
			c0-1.159,1.034-1.667,1.653-1.972c0.099-0.047,0.23-0.112,0.347-0.178c-0.115-0.062-0.248-0.128-0.346-0.175
			c-0.618-0.305-1.654-0.812-1.654-1.972c0-1.162,1.036-1.67,1.654-1.972c0.191-0.094,0.512-0.25,0.586-0.336
			c-0.021,0.023-0.052,0.091-0.052,0.161h2.001c0,1.159-1.036,1.667-1.654,1.972c-0.098,0.047-0.229,0.112-0.344,0.175
			c0.115,0.062,0.246,0.128,0.344,0.175c0.618,0.302,1.654,0.81,1.654,1.972c0,1.159-1.036,1.67-1.654,1.973
			c-0.098,0.049-0.23,0.114-0.346,0.177c0.115,0.065,0.248,0.13,0.346,0.177c0.618,0.305,1.654,0.813,1.654,1.975h-2.001
			C411.771,189.858,411.802,189.925,411.823,189.949z"/>
	</g>
	<g id="XMLID_17_">
		<path fill="#414042" d="M421.421,176.842c-0.075-0.086-0.396-0.242-0.587-0.338c-0.619-0.303-1.653-0.811-1.653-1.973
			c0-1.159,1.035-1.67,1.654-1.972c0.098-0.05,0.229-0.114,0.345-0.177c-0.115-0.062-0.247-0.128-0.345-0.175
			c-0.619-0.305-1.654-0.812-1.654-1.972c0-1.162,1.035-1.67,1.654-1.973c0.191-0.094,0.512-0.25,0.586-0.336
			c-0.021,0.023-0.052,0.091-0.052,0.161h2c0,1.159-1.035,1.668-1.653,1.973c-0.098,0.047-0.229,0.111-0.345,0.175
			c0.116,0.062,0.247,0.127,0.345,0.174c0.618,0.303,1.653,0.811,1.653,1.973c0,1.159-1.034,1.667-1.652,1.972
			c-0.099,0.047-0.232,0.114-0.348,0.177c0.115,0.062,0.249,0.131,0.347,0.178c0.618,0.305,1.653,0.812,1.653,1.975h-2
			C421.369,176.751,421.401,176.819,421.421,176.842z"/>
	</g>
	<g id="XMLID_16_">
		<path fill="#414042" d="M416.558,205.626h-9.079v-8.706h9.079V205.626z M409.48,203.625h5.077v-4.705h-5.077V203.625z"/>
	</g>
	<g id="XMLID_94_">
		<path fill="#414042" d="M426.377,205.626h-9.078v-18.851h9.078V205.626z M419.299,203.625h5.077v-14.849h-5.077V203.625z"/>
	</g>
	<g id="XMLID_93_">
		<path fill="#414042" d="M435.856,205.626h-9.08V177.71h9.08V205.626z M428.777,203.625h5.078V179.71h-5.078V203.625z"/>
	</g>
	<g id="XMLID_15_">
		<rect x="401.85" y="203.667" fill="#414042" width="40.147" height="2"/>
	</g>
	<g id="XMLID_14_">
		<rect x="404.084" y="167.219" fill="#414042" width="2.001" height="39.311"/>
	</g>
	<g id="XMLID_13_">
		<polygon fill="#414042" points="437.557,173.826 436.135,172.419 439.791,168.728 443.355,172.43 441.914,173.818 439.77,171.591 
					"/>
	</g>
	<g id="XMLID_12_">
		<rect x="438.741" y="170.583" fill="#414042" width="2" height="32.017"/>
	</g>
</g>
<g>
	<g id="XMLID_173_">
		<path fill="#414042" d="M403.402,46.656l-1.421-0.005c-0.59,0-1.148-0.232-1.568-0.654c-0.42-0.422-0.651-0.982-0.648-1.579
			l0.005-1.125c-0.537-0.172-1.06-0.391-1.563-0.655l-0.802,0.794c-0.416,0.417-0.973,0.647-1.565,0.647c-0.003,0-0.004,0-0.005,0
			c-0.597-0.001-1.157-0.236-1.577-0.661l-0.995-1.003c-0.419-0.422-0.649-0.983-0.646-1.579c0.003-0.593,0.235-1.149,0.656-1.565
			l0.801-0.799c-0.259-0.499-0.474-1.02-0.645-1.563l-1.124-0.002c-1.232-0.012-2.224-1.016-2.217-2.236l0.009-1.417
			c0-0.594,0.234-1.155,0.659-1.576c0.422-0.418,0.952-0.637,1.578-0.641l1.121,0.005c0.172-0.54,0.391-1.061,0.655-1.562
			l-0.793-0.802c-0.417-0.42-0.646-0.98-0.643-1.576c0.003-0.595,0.235-1.152,0.658-1.569l1.008-0.997
			c0.413-0.413,0.971-0.645,1.562-0.645l0,0c0.597,0,1.16,0.234,1.582,0.658l0.797,0.804c0.489-0.251,0.995-0.46,1.514-0.623v-1.129
			c0-1.227,0.999-2.225,2.226-2.225h1.415c1.229,0,2.229,0.998,2.229,2.225v1.129c0.538,0.17,1.061,0.387,1.559,0.647l0.802-0.799
			c0.421-0.418,0.977-0.647,1.569-0.647c0.001,0,0.004,0,0.005,0c0.595,0.001,1.151,0.233,1.571,0.654l1.002,1.001
			c0.419,0.418,0.649,0.976,0.649,1.571c0,0.596-0.233,1.156-0.655,1.576l-0.797,0.796c0.262,0.503,0.478,1.026,0.649,1.567
			l1.128,0.005c1.224,0,2.218,0.997,2.218,2.219v1.42c-0.006,1.229-1.003,2.224-2.227,2.224l-1.128-0.003
			c-0.171,0.538-0.388,1.062-0.652,1.564l0.795,0.804c0.414,0.408,0.648,0.966,0.649,1.562c0,0.599-0.233,1.161-0.659,1.582
			l-0.995,0.995c-0.88,0.866-2.29,0.865-3.152-0.001l-0.797-0.804c-0.504,0.262-1.026,0.478-1.565,0.646l-0.003,1.132
			C405.629,45.66,404.63,46.656,403.402,46.656z M397.906,40.12l0.673,0.426c0.755,0.477,1.567,0.816,2.417,1.011l0.781,0.178
			l-0.012,2.691c0,0.077,0.035,0.129,0.065,0.159c0.029,0.03,0.08,0.065,0.154,0.065l1.421,0.005c0.121,0,0.223-0.096,0.223-0.216
			l0.008-2.696l0.779-0.174c0.854-0.193,1.669-0.529,2.42-1l0.678-0.424l1.9,1.913c0.085,0.085,0.229,0.083,0.324-0.008l0.994-0.994
			c0.057-0.057,0.068-0.119,0.068-0.16c0-0.039-0.012-0.098-0.062-0.148l-1.897-1.919l0.423-0.672
			c0.475-0.751,0.813-1.566,1.008-2.417l0.177-0.782l2.692,0.008c0.121,0,0.223-0.102,0.223-0.227v-1.416
			c0-0.121-0.098-0.219-0.218-0.219l-2.69-0.012l-0.178-0.773c-0.196-0.862-0.534-1.676-1.003-2.417l-0.427-0.677l1.905-1.906
			c0.056-0.056,0.067-0.119,0.067-0.16c0-0.042-0.01-0.102-0.062-0.154l-1.004-1.004c-0.089-0.088-0.23-0.088-0.316-0.002
			l-1.908,1.904l-0.676-0.427c-0.741-0.47-1.553-0.806-2.411-1.001l-0.779-0.177v-2.692c0-0.124-0.103-0.224-0.228-0.224h-1.415
			c-0.123,0-0.226,0.1-0.226,0.224v2.695l-0.781,0.175c-0.831,0.188-1.632,0.517-2.38,0.979l-0.676,0.419l-1.893-1.91
			c-0.128-0.127-0.219-0.1-0.313-0.005l-1.014,1.002c-0.056,0.053-0.063,0.121-0.065,0.156c0,0.043,0.012,0.104,0.064,0.157
			l1.893,1.917l-0.429,0.673c-0.473,0.741-0.814,1.552-1.012,2.411l-0.18,0.779l-2.69-0.012c-0.094-0.016-0.129,0.031-0.156,0.061
			c-0.03,0.03-0.066,0.082-0.066,0.162l-0.009,1.422c-0.002,0.122,0.102,0.223,0.228,0.224l2.68,0.008l0.176,0.777
			c0.196,0.869,0.531,1.68,0.995,2.413l0.431,0.677l-1.916,1.909c-0.055,0.054-0.064,0.113-0.064,0.154
			c0,0.043,0.01,0.105,0.066,0.16l0.995,1.004c0.055,0.057,0.117,0.069,0.16,0.069c0.006-0.009,0.102-0.01,0.154-0.063
			L397.906,40.12z M402.729,38.901c-2.695,0-4.888-2.193-4.888-4.888c0-2.691,2.192-4.881,4.888-4.881
			c2.692,0,4.883,2.19,4.883,4.881C407.612,36.708,405.421,38.901,402.729,38.901z M402.729,31.133c-1.592,0-2.887,1.292-2.887,2.88
			c0,1.592,1.295,2.888,2.887,2.888c1.589,0,2.882-1.296,2.882-2.888C405.611,32.425,404.318,31.133,402.729,31.133z"/>
	</g>
	<g id="XMLID_10_">
		<path fill="#414042" d="M402.726,49.929c-2.149,0-4.233-0.42-6.193-1.25c-1.897-0.804-3.601-1.951-5.058-3.41
			c-1.463-1.462-2.61-3.165-3.41-5.058c-0.831-1.964-1.252-4.048-1.252-6.193h2.001c0,1.875,0.367,3.698,1.093,5.415
			c0.699,1.654,1.704,3.142,2.982,4.422c1.275,1.276,2.765,2.28,4.423,2.982c3.426,1.449,7.403,1.449,10.829,0
			c1.656-0.702,3.144-1.705,4.422-2.982l1.415,1.414c-1.461,1.46-3.163,2.608-5.059,3.41
			C406.959,49.508,404.875,49.929,402.726,49.929z"/>
	</g>
	<g id="XMLID_9_">
		<path fill="#414042" d="M416.22,46.633l-1.422-1.407c0.305-0.309,0.583-0.615,0.84-0.923l1.537,1.282
			C416.882,45.935,416.567,46.283,416.22,46.633z M418.036,44.442l-1.654-1.125c0.23-0.34,0.443-0.69,0.646-1.058l1.753,0.967
			C418.548,43.648,418.303,44.05,418.036,44.442z M419.41,41.972l-1.816-0.841c0.105-0.226,0.208-0.458,0.311-0.701
			c0.063-0.153,0.126-0.309,0.187-0.463l1.867,0.719c-0.067,0.176-0.138,0.349-0.211,0.522
			C419.635,41.471,419.524,41.726,419.41,41.972z M420.417,39.351l-1.915-0.579c0.12-0.398,0.226-0.802,0.315-1.214l1.953,0.427
			C420.671,38.447,420.552,38.903,420.417,39.351z M421.02,36.6l-1.982-0.276c0.059-0.414,0.102-0.831,0.129-1.253l1.996,0.127
			C421.132,35.67,421.084,36.139,421.02,36.6z M386.253,34.017h-2.001c0-0.474,0.019-0.943,0.054-1.411l1.995,0.154
			C386.269,33.176,386.253,33.595,386.253,34.017z M419.198,33.814c-0.005-0.423-0.025-0.842-0.062-1.256l1.993-0.177
			c0.042,0.464,0.065,0.934,0.07,1.41L419.198,33.814z M386.442,31.511l-1.978-0.302c0.072-0.466,0.16-0.926,0.264-1.378
			l1.951,0.443C386.586,30.681,386.505,31.094,386.442,31.511z M418.975,31.305c-0.067-0.414-0.152-0.823-0.251-1.227l1.943-0.477
			c0.111,0.456,0.207,0.917,0.282,1.383L418.975,31.305z M387.011,29.065l-1.909-0.602c0.142-0.449,0.301-0.892,0.474-1.326
			l1.857,0.742C387.278,28.267,387.137,28.663,387.011,29.065z M418.377,28.867c-0.13-0.397-0.276-0.789-0.437-1.173l1.848-0.771
			c0.181,0.434,0.345,0.875,0.49,1.325L418.377,28.867z M387.945,26.735l-1.792-0.889c0.208-0.422,0.434-0.835,0.671-1.236
			l1.722,1.019C388.331,25.988,388.132,26.357,387.945,26.735z M417.413,26.551c-0.19-0.375-0.395-0.741-0.612-1.098l1.709-1.04
			c0.243,0.401,0.475,0.812,0.688,1.231L417.413,26.551z M389.228,24.572l-1.639-1.146c0.27-0.386,0.554-0.759,0.85-1.122
			l1.55,1.266C389.724,23.894,389.469,24.229,389.228,24.572z M416.106,24.404c-0.244-0.34-0.502-0.669-0.771-0.99l1.529-1.29
			c0.304,0.359,0.593,0.73,0.867,1.112L416.106,24.404z M390.821,22.63l-1.442-1.383l0.285-0.293c0.235-0.237,0.479-0.468,0.73-0.69
			l1.328,1.495c-0.22,0.197-0.435,0.401-0.645,0.61L390.821,22.63z M414.495,22.49l-0.121-0.121c-0.258-0.258-0.524-0.507-0.8-0.748
			l1.318-1.506c0.309,0.27,0.607,0.55,0.896,0.839l0.121,0.121L414.495,22.49z M392.694,20.95l-1.222-1.584
			c0.373-0.287,0.756-0.56,1.15-0.818l1.094,1.675C393.366,20.453,393.025,20.695,392.694,20.95z M412.598,20.828
			c-0.336-0.251-0.682-0.49-1.035-0.716l1.075-1.686c0.396,0.252,0.783,0.52,1.158,0.8L412.598,20.828z M394.795,19.576
			l-0.964-1.753c0.41-0.227,0.831-0.438,1.262-0.632l0.823,1.824C395.534,19.188,395.161,19.375,394.795,19.576z M410.478,19.479
			c-0.37-0.197-0.747-0.38-1.133-0.55l0.808-1.831c0.431,0.19,0.854,0.395,1.266,0.615L410.478,19.479z M397.081,18.538
			l-0.683-1.881c0.438-0.159,0.887-0.303,1.341-0.431l0.537,1.928C397.871,18.266,397.473,18.395,397.081,18.538z M408.18,18.467
			c-0.395-0.138-0.795-0.262-1.201-0.37l0.513-1.933c0.456,0.121,0.906,0.261,1.348,0.414L408.18,18.467z M399.498,17.86
			l-0.388-1.961c0.458-0.091,0.923-0.166,1.392-0.222l0.235,1.988C400.321,17.713,399.907,17.78,399.498,17.86z M405.75,17.823
			c-0.407-0.076-0.821-0.138-1.242-0.183l0.216-1.99c0.471,0.052,0.937,0.12,1.394,0.206L405.75,17.823z M401.996,17.56
			l-0.091-1.998c0.466-0.022,0.941-0.026,1.413-0.009l-0.07,2.001C402.831,17.538,402.409,17.542,401.996,17.56z"/>
	</g>
</g>
<g>
	<g id="XMLID_8_">
		<path fill="#414042" d="M246.208,47.494v-2c6.327,0,11.476-5.149,11.476-11.477h2.001
			C259.685,41.448,253.64,47.494,246.208,47.494z"/>
	</g>
	<g id="XMLID_7_">
		<path fill="#414042" d="M247.208,50.537h-1c-9.109,0-16.521-7.412-16.521-16.52c0-9.11,7.411-16.521,16.521-16.521
			s16.521,7.412,16.521,16.521v1h-15.521V50.537z M246.208,19.497c-8.007,0-14.52,6.514-14.52,14.521
			c0,7.669,5.978,13.97,13.52,14.485V33.017h15.487C260.178,25.475,253.878,19.497,246.208,19.497z"/>
	</g>
	<g id="XMLID_6_">
		<path fill="#414042" d="M246.208,43.482c-5.219,0-9.464-4.246-9.464-9.465c0-5.218,4.246-9.464,9.464-9.464
			c5.22,0,9.465,4.247,9.465,9.464h-2.001c0-4.116-3.349-7.463-7.464-7.463s-7.464,3.347-7.464,7.463s3.349,7.465,7.464,7.465
			V43.482z"/>
	</g>
</g>
<g>
	<g id="XMLID_776_">
		
			<rect x="132.78" y="21.129" transform="matrix(0.5068 0.8621 -0.8621 0.5068 88.9506 -111.2218)" fill="#414042" width="17.8" height="2"/>
	</g>
	<g id="XMLID_739_">
		<path fill="#414042" d="M146.338,31.437L128.984,14.75l2.687-8.632h29.041l2.685,8.625L146.338,31.437z M131.262,14.164
			l15.064,14.485l14.795-14.479l-1.884-6.052h-26.095L131.262,14.164z"/>
	</g>
	<g id="XMLID_5_">
		<rect x="130.123" y="13.457" fill="#414042" width="32.136" height="2.001"/>
	</g>
	<g id="XMLID_4_">
		<rect x="145.19" y="6.951" fill="#414042" width="2.001" height="22.988"/>
	</g>
	<g id="XMLID_3_">
		
			<rect x="132.78" y="21.129" transform="matrix(0.5068 0.8621 -0.8621 0.5068 88.9506 -111.2218)" fill="#414042" width="17.8" height="2"/>
	</g>
	<g id="XMLID_172_">
		
			<rect x="149.875" y="13.229" transform="matrix(0.8622 0.5065 -0.5065 0.8622 31.9975 -73.375)" fill="#414042" width="2" height="17.801"/>
	</g>
	<g id="XMLID_2_">
		
			<rect x="137.316" y="6.944" transform="matrix(0.9545 0.2982 -0.2982 0.9545 9.5117 -40.7596)" fill="#414042" width="2.001" height="7.689"/>
	</g>
	<g id="XMLID_1_">
		
			<rect x="150.358" y="9.787" transform="matrix(0.2983 0.9545 -0.9545 0.2983 118.5005 -139.612)" fill="#414042" width="7.688" height="2.001"/>
	</g>
</g>
<g>
	<g>
		<path fill="#414042" d="M434.638,89.743h-20.115V69.629h20.115V89.743z M416.524,87.742h16.113V71.629h-16.113V87.742z"/>
	</g>
	<g>
		
			<rect x="423.58" y="66.876" transform="matrix(0.7074 0.7069 -0.7069 0.7074 180.5798 -276.8)" fill="#414042" width="2" height="25.619"/>
	</g>
	<g>
		
			<rect x="411.771" y="78.685" transform="matrix(0.7071 0.7071 -0.7071 0.7071 180.7125 -276.8908)" fill="#414042" width="25.618" height="2.001"/>
	</g>
</g>
<g>
	<g>
		<path fill="#414042" d="M39.828,49.448H21.444V31.063h18.384V49.448z M23.444,47.447h14.383V33.063H23.444V47.447z"/>
	</g>
	<g>
		
			<rect x="29.636" y="28.67" transform="matrix(0.7071 0.7071 -0.7071 0.7071 37.438 -9.8721)" fill="#414042" width="2" height="23.171"/>
	</g>
	<g>
		
			<rect x="19.05" y="39.255" transform="matrix(0.7071 0.7071 -0.7071 0.7071 37.4395 -9.8719)" fill="#414042" width="23.171" height="2"/>
	</g>
</g>
<g>
	<rect x="72.297" y="21.433" fill="#414042" width="1.891" height="1.889"/>
	<rect x="76.283" y="21.433" fill="#414042" width="1.891" height="1.889"/>
	<rect x="80.27" y="21.433" fill="#414042" width="1.891" height="1.889"/>
	<rect x="84.257" y="21.433" fill="#414042" width="1.891" height="1.889"/>
	<rect x="88.243" y="21.433" fill="#414042" width="1.891" height="1.889"/>
	<rect x="92.23" y="21.433" fill="#414042" width="1.891" height="1.889"/>
	<rect x="96.217" y="21.433" fill="#414042" width="1.891" height="1.889"/>
	<rect x="100.203" y="21.433" fill="#414042" width="1.891" height="1.889"/>
	<rect x="104.19" y="21.433" fill="#414042" width="1.891" height="1.889"/>
	<rect x="108.177" y="21.433" fill="#414042" width="1.891" height="1.889"/>
</g>
<g>
	<rect x="304.48" y="51.659" fill="#414042" width="1.891" height="1.89"/>
	<rect x="308.466" y="51.659" fill="#414042" width="1.891" height="1.89"/>
	<rect x="312.452" y="51.659" fill="#414042" width="1.892" height="1.89"/>
	<rect x="316.44" y="51.659" fill="#414042" width="1.891" height="1.89"/>
	<rect x="320.426" y="51.659" fill="#414042" width="1.891" height="1.89"/>
	<rect x="324.412" y="51.659" fill="#414042" width="1.892" height="1.89"/>
	<rect x="328.4" y="51.659" fill="#414042" width="1.89" height="1.89"/>
	<rect x="332.386" y="51.659" fill="#414042" width="1.891" height="1.89"/>
	<rect x="336.372" y="51.659" fill="#414042" width="1.892" height="1.89"/>
	<rect x="340.36" y="51.659" fill="#414042" width="1.89" height="1.89"/>
</g>
</svg>
