<?xml version="1.0" encoding="utf-8"?>
<!-- Generator: Adobe Illustrator 15.0.0, SVG Export Plug-In . SVG Version: 6.00 Build 0)  -->
<!DOCTYPE svg PUBLIC "-//W3C//DTD SVG 1.1//EN" "http://www.w3.org/Graphics/SVG/1.1/DTD/svg11.dtd">
<svg version="1.1" id="Layer_1" xmlns="http://www.w3.org/2000/svg" xmlns:xlink="http://www.w3.org/1999/xlink" x="0px" y="0px"
	 width="493.545px" height="204.829px" viewBox="0 0 493.545 204.829" enable-background="new 0 0 493.545 204.829"
	 xml:space="preserve">
<g>
	<rect id="XMLID_815_" x="29.787" y="144.527" fill="#939598" width="97.963" height="62.302"/>
	
		<rect id="XMLID_910_" x="29.787" y="145.82" opacity="0.22" fill="#231F20" enable-background="new    " width="97.963" height="24.288"/>
	<rect id="XMLID_816_" x="29.787" y="144.527" fill="#A7A9AC" width="97.963" height="24.291"/>
	<rect id="XMLID_817_" x="74.884" y="163.118" fill="#F6B933" width="7.77" height="12.559"/>
	<g id="XMLID_47_">
		<polygon fill="#414042" points="30.866,153.467 28.708,153.467 28.708,143.448 101.291,143.448 101.291,145.604 30.866,145.604 		
			"/>
	</g>
	<g id="XMLID_820_">
		<path fill="#414042" d="M94.388,145.436H92.23v-5.805c0-2.104-1.711-3.813-3.813-3.813H69.121c-2.103,0-3.813,1.71-3.813,3.813
			v5.805h-2.159v-5.805c0-3.297,2.679-5.975,5.972-5.975h19.295c3.294,0,5.972,2.678,5.972,5.975V145.436z"/>
	</g>
	<g>
		<rect x="49.727" y="167.737" fill="#414042" width="23.649" height="2.158"/>
	</g>
	<g>
		<rect x="83.644" y="167.737" fill="#414042" width="19.056" height="2.158"/>
	</g>
</g>
<g>
	<rect id="XMLID_922_" x="13.447" y="156.702" fill="#FFFFFF" width="34.164" height="50.127"/>
	<g id="XMLID_38_">
		<polygon fill="#414042" points="48.689,206.829 46.531,206.829 46.531,157.778 14.526,157.778 14.526,206.829 12.367,206.829 
			12.367,155.622 48.689,155.622 		"/>
	</g>
	<g id="XMLID_921_">
		<rect x="31.246" y="163.396" fill="#D1D3D4" width="12.513" height="1.438"/>
	</g>
	<g id="XMLID_920_">
		<rect x="31.246" y="168.438" fill="#D1D3D4" width="12.513" height="1.438"/>
	</g>
	<g id="XMLID_919_">
		<rect x="31.246" y="173.48" fill="#D1D3D4" width="12.513" height="1.44"/>
	</g>
	<g id="XMLID_918_">
		<rect x="18.592" y="178.523" fill="#D1D3D4" width="25.167" height="1.438"/>
	</g>
	<g id="XMLID_917_">
		<rect x="18.592" y="183.567" fill="#D1D3D4" width="25.167" height="1.438"/>
	</g>
	<g id="XMLID_916_">
		<rect x="18.592" y="188.608" fill="#D1D3D4" width="25.167" height="1.438"/>
	</g>
	<g id="XMLID_915_">
		<rect x="18.592" y="193.649" fill="#D1D3D4" width="25.167" height="1.439"/>
	</g>
	<g id="XMLID_914_">
		<rect x="18.592" y="198.692" fill="#D1D3D4" width="11.937" height="1.438"/>
	</g>
	<rect id="XMLID_36_" x="18.12" y="162.717" fill="#19B5FE" width="11.376" height="12.881"/>
</g>
<rect x="133.13" y="205.11" fill="#E6E7E8" width="58.716" height="1.719"/>
<rect x="133.13" y="205.11" fill="#E6E7E8" width="26.526" height="1.719"/>
<g>
	<rect x="117.069" y="52.002" fill="#FFFFFF" width="106.582" height="154.827"/>
	<rect x="117.069" y="52.002" fill="#19B5FE" width="106.582" height="44.695"/>
	<g>
		<polygon fill="#414042" points="118.149,113.147 115.99,113.147 115.99,50.922 224.73,50.922 224.73,85.974 222.572,85.974 
			222.572,53.081 118.149,53.081 		"/>
	</g>
	<circle fill="#FFFFFF" cx="136.695" cy="72.347" r="12.606"/>
	<g id="XMLID_2_">
		<g id="XMLID_250_">
			<path fill="#D1D3D4" d="M136.695,81.975c-5.309,0-9.627-4.319-9.627-9.628s4.318-9.629,9.627-9.629s9.628,4.32,9.628,9.629
				S142.004,81.975,136.695,81.975z M136.695,64.877c-4.119,0-7.469,3.351-7.469,7.469c0,4.118,3.351,7.47,7.469,7.47
				c4.118,0,7.47-3.352,7.47-7.47C144.164,68.228,140.813,64.877,136.695,64.877z"/>
		</g>
		<g id="XMLID_4_">
			<path fill="#D1D3D4" d="M136.523,72.459c-1.807,0-3.276-1.469-3.276-3.276s1.469-3.276,3.276-3.276
				c1.806,0,3.276,1.469,3.276,3.276S138.329,72.459,136.523,72.459z M136.523,68.065c-0.616,0-1.117,0.501-1.117,1.118
				c0,0.616,0.501,1.117,1.117,1.117c0.616,0,1.118-0.501,1.118-1.117C137.64,68.566,137.139,68.065,136.523,68.065z"/>
		</g>
		<g id="XMLID_3_">
			<path fill="#D1D3D4" d="M141.339,78.677h-2.158v-2.048c0-1.37-1.116-2.485-2.486-2.485c-1.371,0-2.484,1.115-2.484,2.485v2.048
				h-2.16v-2.048c0-2.56,2.083-4.643,4.644-4.643s4.644,2.083,4.644,4.643V78.677z"/>
		</g>
	</g>
	<rect x="158.222" y="66.844" fill="#FFFFFF" width="17.354" height="4.261"/>
	<rect x="178.574" y="66.844" fill="#FFFFFF" width="24.066" height="4.261"/>
	<rect x="158.222" y="72.976" fill="#FFFFFF" width="32.193" height="2.54"/>
	<rect x="158.222" y="79.725" fill="#FFFFFF" width="32.193" height="1.718"/>
	<rect x="158.222" y="79.725" fill="#FFFFFF" width="32.193" height="1.718"/>
	<rect x="158.222" y="83.235" fill="#FFFFFF" width="37.001" height="1.719"/>
	<rect x="133.13" y="117.918" fill="#E6E7E8" width="37" height="1.719"/>
	<rect x="133.13" y="121.624" fill="#E6E7E8" width="20.922" height="1.719"/>
	<rect x="157.759" y="121.624" fill="#E6E7E8" width="26.391" height="1.719"/>
	<rect x="133.13" y="125.329" fill="#E6E7E8" width="26.526" height="1.719"/>
	<rect x="171.561" y="117.918" fill="#E6E7E8" width="7.15" height="1.719"/>
	<rect x="180.896" y="117.918" fill="#E6E7E8" width="10.95" height="1.719"/>
	<rect x="191.846" y="79.725" fill="#FFFFFF" width="9.763" height="1.718"/>
	<rect x="203.738" y="79.725" fill="#FFFFFF" width="5.465" height="1.718"/>
	<rect x="133.13" y="108.429" fill="#75D3FE" width="33.769" height="6.235"/>
	<rect x="133.13" y="150.036" fill="#E6E7E8" width="37" height="1.717"/>
	<rect x="133.13" y="153.741" fill="#E6E7E8" width="20.922" height="1.719"/>
	<rect x="157.759" y="153.741" fill="#E6E7E8" width="22.61" height="1.719"/>
	<rect x="184.15" y="153.741" fill="#E6E7E8" width="19.588" height="1.719"/>
	<rect x="133.13" y="157.446" fill="#E6E7E8" width="53.241" height="1.717"/>
	<rect x="133.13" y="161.793" fill="#E6E7E8" width="26.526" height="1.717"/>
	<rect x="171.561" y="150.036" fill="#E6E7E8" width="23.662" height="1.717"/>
	<rect x="199.5" y="150.036" fill="#E6E7E8" width="16.162" height="1.717"/>
	<rect x="133.13" y="140.545" fill="#75D3FE" width="33.769" height="6.236"/>
	<rect x="133.13" y="182.152" fill="#E6E7E8" width="37" height="1.72"/>
	<rect x="133.13" y="185.881" fill="#E6E7E8" width="20.922" height="1.722"/>
	<rect x="157.759" y="185.856" fill="#E6E7E8" width="26.391" height="1.721"/>
	<rect x="133.13" y="189.613" fill="#E6E7E8" width="66.37" height="1.72"/>
	<rect x="133.13" y="193.346" fill="#E6E7E8" width="26.526" height="1.717"/>
	<rect x="164.844" y="193.346" fill="#E6E7E8" width="18.548" height="1.717"/>
	<rect x="185.159" y="193.346" fill="#E6E7E8" width="14.34" height="1.717"/>
	<rect x="171.561" y="182.152" fill="#E6E7E8" width="7.15" height="1.72"/>
	<rect x="180.896" y="182.152" fill="#E6E7E8" width="10.95" height="1.72"/>
	<rect x="133.13" y="172.661" fill="#75D3FE" width="33.769" height="6.237"/>
	<g>
		<rect x="117.069" y="95.619" fill="#414042" width="92.976" height="2.158"/>
	</g>
</g>
<g>
	<path fill="#808285" d="M349.433,204.793c0,1.125-0.912,2.035-2.037,2.035h-87.143c-1.123,0-2.035-0.91-2.035-2.035v-52.861
		c0-1.129,0.912-2.038,2.035-2.038h87.143c1.125,0,2.037,0.909,2.037,2.038V204.793z"/>
	<g>
		<rect x="348.353" y="159.084" fill="#414042" width="2.158" height="21.396"/>
	</g>
	<g>
		<rect x="266.692" y="148.812" fill="#414042" width="61.795" height="2.159"/>
	</g>
	<rect x="263.149" y="153.683" fill="#FFFFFF" width="81.354" height="49.354"/>
	<g>
		<path fill="#58595B" d="M273.677,194.808c0.084-0.062,0.146-0.101,0.199-0.115c0.039-0.009,0.086-0.009,0.127-0.009
			c0.191,0,0.473,0.068,0.83,0.225c0.049,0.014,0.299,0.135,0.76,0.35c0.227-0.609,0.42-1.075,0.572-1.412
			c0.354-0.814,0.684-1.374,0.973-1.678c0.08-0.086,0.195-0.17,0.357-0.258c0.209-0.113,0.385-0.168,0.529-0.175
			c0.449-0.013,0.844,0.347,1.049,0.979c0.008,0.021,0.02,0.041,0.02,0.06c0,0.031-0.02,0.05-0.033,0.05
			c-0.02,0-0.041-0.019-0.061-0.062c-0.09-0.246-0.238-0.45-0.424-0.634c-0.184-0.178-0.375-0.282-0.561-0.295
			c-0.234-0.023-0.488,0.111-0.764,0.42c-0.297,0.332-0.629,0.899-0.992,1.699c-0.104,0.229-0.289,0.68-0.562,1.36
			c0.299,0.162,0.604,0.334,0.902,0.495c0.562,0.298,1.068,0.541,1.523,0.713c0.633,0.25,1.174,0.38,1.617,0.389
			c0.344,0.008,0.635-0.08,0.873-0.266c0.201-0.148,0.389-0.529,0.416-0.887c0.012-0.062,0.021-0.098,0.039-0.098
			c0.02,0,0.033,0.035,0.033,0.103c0,0.177-0.043,0.366-0.123,0.565c-0.088,0.196-0.178,0.334-0.291,0.42
			c-0.066,0.041-0.182,0.094-0.354,0.14c-0.203,0.057-0.395,0.077-0.58,0.082c-0.871,0.024-2.254-0.464-4.139-1.449
			c-0.061,0.173-0.152,0.313-0.299,0.438c-0.137,0.121-0.27,0.188-0.418,0.193c-0.281,0.003-0.574-0.136-0.889-0.427
			c-0.281-0.274-0.449-0.509-0.461-0.724C273.542,194.95,273.587,194.883,273.677,194.808z M275.509,195.477
			c-0.697-0.34-1.223-0.532-1.566-0.583c-0.145-0.021-0.221,0.015-0.221,0.121c0,0.044,0.016,0.085,0.029,0.131
			c0.107,0.248,0.283,0.465,0.525,0.658c0.227,0.179,0.438,0.269,0.635,0.276C275.188,196.084,275.388,195.883,275.509,195.477z"/>
		<path fill="#58595B" d="M277.333,195.899c-0.045,0-0.066-0.005-0.09-0.182c-0.018-0.092-0.021-0.146,0-0.172
			c0.021-0.037,0.182-0.109,0.254-0.109c0.01,0,0.02,0.003,0.033,0.006c0.027,0.034,0.049,0.15,0.049,0.352
			C277.579,195.842,277.429,195.899,277.333,195.899z"/>
		<path fill="#58595B" d="M279.61,195.697c-0.416,0.269-0.93,0.32-1.184,0.112c-0.088-0.066-0.139-0.238-0.166-0.37
			c-0.021-0.063,0.057-0.09,0.074-0.022c0.031,0.123,0.125,0.244,0.217,0.32c0.191,0.157,0.627,0.135,0.992-0.109
			c0.953-0.653,1.939-2.568,2.441-3.78c-0.918,0.174-1.846,0.59-2.406,1.021c-0.186,0.152-0.408,0.346-0.463,0.643
			c-0.029,0.148,0.02,0.295,0.062,0.383c0.016,0.035-0.014,0.068-0.043,0.031c-0.066-0.082-0.119-0.266-0.123-0.408
			c-0.014-0.26,0.166-0.501,0.467-0.758c0.525-0.444,1.553-0.877,2.584-1.107c0.057-0.013,0.1-0.037,0.121-0.07
			c0.072-0.061,0.188,0.041,0.162,0.105C281.665,193.168,280.685,195.004,279.61,195.697z"/>
		<path fill="#58595B" d="M280.663,196.403c-0.064,0.145-0.121,0.299-0.184,0.453c-0.922,2.282-1.891,3.689-2.869,4.229
			c-0.264,0.138-0.521,0.209-0.781,0.209c-0.41,0-0.758-0.164-1.029-0.494c-0.285-0.34-0.422-0.73-0.422-1.199
			c0-0.678,0.301-1.273,0.904-1.803c0.615-0.531,1.393-0.938,2.318-1.188c0.662-0.176,1.301-0.284,1.945-0.293
			c0.141-0.271,0.199-0.421,0.379-0.729c0.162-0.285,0.318-0.592,0.482-0.885c-0.074-0.068-0.109-0.125-0.1-0.173
			c0.023-0.062,0.119-0.131,0.305-0.204c0.188-0.293,0.094-0.164,0.488-0.752c0.023-0.037,0.09-0.07,0.205-0.115
			c0.053-0.018,0.074-0.011,0.074,0.018c0,0.027-0.021,0.016-0.068,0.088c-0.229,0.329-0.105,0.164-0.398,0.659
			c0.309-0.12,0.553-0.169,0.748-0.169c0.271,0,0.408,0.123,0.408,0.371c0,0.197-0.084,0.416-0.262,0.662
			c0.463-0.115,0.725-0.18,0.799-0.188c0.016-0.006,0.029-0.006,0.037,0c0.01,0.008,0.01,0.008,0,0.014
			c-0.008,0.017-0.021,0.019-0.037,0.026c-0.271,0.073-0.6,0.177-0.984,0.308c-0.311,0.291-0.715,0.479-1.211,0.53
			c-0.078,0.013-0.121-0.026-0.121-0.11c0-0.019,0.008-0.039,0.025-0.057c0.096-0.062,0.512-0.213,1.236-0.447
			c0.191-0.224,0.289-0.455,0.289-0.695c0-0.198-0.113-0.307-0.342-0.307c-0.174,0-0.398,0.084-0.684,0.232
			c-0.287,0.488-0.621,0.854-1.131,1.922c0.121,0,0.238,0,0.34,0.018c0.227,0.041,0.371,0.229,0.371,0.424
			c0,0.047-0.016,0.094-0.031,0.123c-0.049,0.102-0.176,0.226-0.371,0.382c-0.039,0.032-0.061,0.046-0.082,0.046
			c-0.006,0-0.016,0-0.016-0.008c0-0.027,0.02-0.047,0.059-0.075c0.229-0.213,0.336-0.397,0.336-0.563
			c0-0.138-0.068-0.221-0.256-0.242C280.868,196.396,280.796,196.403,280.663,196.403z M280.519,196.403
			c-0.576,0.01-1.152,0.104-1.773,0.283c-0.889,0.27-1.643,0.67-2.26,1.197c-0.688,0.594-1.041,1.195-1.041,1.844
			c0,0.409,0.148,0.74,0.439,1.029c0.279,0.279,0.611,0.412,0.986,0.412c0.236,0,0.473-0.058,0.688-0.178
			c0.422-0.229,0.861-0.668,1.307-1.314c0.324-0.471,0.658-1.039,0.971-1.73c0.164-0.355,0.332-0.744,0.498-1.115
			C280.388,196.719,280.442,196.575,280.519,196.403z"/>
		<path fill="#58595B" d="M285.813,194.684l0.006,0.009c-0.533,0.104-1.09,0.331-1.693,0.683c0.098,0.131,0.135,0.213,0.135,0.265
			c0,0.11-0.125,0.212-0.373,0.319c-0.219,0.101-0.395,0.146-0.52,0.146c-0.053,0-0.088-0.009-0.119-0.021
			c-0.102,0.021-0.172,0.033-0.205,0.023c-0.059-0.004-0.062-0.025-0.035-0.074c0.068-0.084,0.326-0.281,0.771-0.591l-0.184-0.241
			c-0.08-0.109-0.129-0.205-0.139-0.308c-0.033-0.253,0.23-0.536,0.777-0.862c0.539-0.316,1.029-0.477,1.449-0.469
			c0.021,0,0.045,0.012,0.062,0.029c0.018,0.037,0.018,0.061,0,0.072c-0.047,0.082-0.205,0.181-0.258,0.166
			c-0.168-0.059-0.293-0.084-0.375-0.084c-0.043,0-0.09,0.006-0.123,0.012c-0.209,0.052-0.463,0.175-0.752,0.381
			c-0.361,0.246-0.533,0.462-0.502,0.65c0.014,0.084,0.057,0.185,0.123,0.295c0.074,0.106,0.139,0.178,0.195,0.209
			C284.669,194.95,285.247,194.784,285.813,194.684z M283.325,196.04c0.064,0.02,0.186-0.008,0.344-0.063
			c0.154-0.054,0.256-0.104,0.301-0.16c0.014-0.022,0.02-0.043,0.02-0.063c0-0.058-0.045-0.129-0.129-0.211
			c-0.061,0.033-0.15,0.099-0.281,0.196c-0.146,0.107-0.244,0.185-0.277,0.238C283.271,196.011,283.28,196.032,283.325,196.04z"/>
		<path fill="#58595B" d="M286.909,195.479c-0.047,0.271,0.084,0.229,0.189,0.199c0.055-0.018,0.531-0.348,0.576-0.374
			c0.121-0.082,0.133,0.003,0.039,0.093c-0.078,0.082-0.586,0.438-0.68,0.473c-0.1,0.024-0.289-0.142-0.289-0.285
			c0-0.297,0.162-0.641,0.27-0.9c0.047-0.105,0-0.223-0.141-0.085c-0.365,0.364-1.252,1.217-1.488,1.296
			c-0.207,0.07-0.348-0.102-0.338-0.29c0.039-0.537,0.762-1.547,1.043-1.886c0.08-0.09,0.297-0.069,0.152,0.104
			c-0.34,0.426-0.818,1.174-0.936,1.575c-0.088,0.312,0.029,0.396,0.221,0.288c0.6-0.357,1.354-1.292,1.816-1.699
			c0.145-0.133,0.217,0.143,0.166,0.217C287.302,194.524,286.958,195.174,286.909,195.479z"/>
		<path fill="#58595B" d="M289.558,196.17c-0.039,0-0.068-0.018-0.068-0.062c0-0.018,0.006-0.025,0.018-0.04
			c0.26-0.493,0.678-0.938,0.807-1.375c0.027-0.052,0.039-0.106,0.039-0.151c0-0.074-0.025-0.097-0.076-0.097
			c-0.033,0-0.066,0.019-0.111,0.05c-0.572,0.455-0.936,0.799-1.094,1.027c-0.016,0.018-0.059,0.05-0.143,0.079
			c-0.096,0.048-0.156,0.065-0.191,0.094c-0.043,0.017-0.115-0.062-0.086-0.094c0.229-0.331,0.393-0.638,0.486-0.931
			c0.018-0.037,0.02-0.078,0.02-0.109c0-0.066-0.025-0.1-0.08-0.1c-0.021,0-0.043,0.006-0.076,0.016
			c-0.074,0.033-0.209,0.13-0.414,0.3c-0.223,0.194-0.412,0.372-0.566,0.552c-0.086,0.088-0.188,0.231-0.32,0.422
			c-0.01,0.015-0.051,0.041-0.133,0.074c-0.078,0.026-0.125,0.053-0.146,0.065c-0.012,0.005-0.018,0-0.021-0.021
			c-0.008-0.033-0.008-0.055,0-0.076c0.004-0.029,0.031-0.076,0.062-0.133c0.111-0.205,0.273-0.461,0.496-0.773
			c0.223-0.319,0.398-0.541,0.521-0.659c0.045-0.043,0.152-0.089,0.188-0.067c0.018,0.016,0,0.034-0.023,0.057
			c-0.033,0.023-0.109,0.109-0.234,0.25c-0.146,0.175-0.279,0.365-0.395,0.574c-0.051,0.088-0.051,0.127-0.01,0.127
			c0.023,0,0.039-0.014,0.062-0.037c0.227-0.23,0.504-0.446,0.834-0.653c0.238-0.147,0.416-0.207,0.52-0.167
			c0.041,0.009,0.055,0.036,0.055,0.084c0,0.072-0.092,0.271-0.256,0.6c-0.023,0.03-0.033,0.065-0.033,0.094
			c0,0.045,0.016,0.062,0.051,0.062c0.018,0,0.039-0.003,0.059-0.021c0.525-0.48,0.996-0.811,1.375-0.991
			c0.023-0.015,0.047-0.019,0.064-0.019c0.064,0,0.094,0.034,0.074,0.121c-0.027,0.028-0.061,0.073-0.107,0.122
			c-0.215,0.524-0.672,1.265-1.09,1.791C289.591,196.165,289.581,196.17,289.558,196.17z"/>
	</g>
	<rect x="282.349" y="158.284" fill="#BCBEC0" width="43.885" height="4.186"/>
	<rect x="271.569" y="168.653" fill="#F1F2F2" width="64.426" height="2.723"/>
	<rect x="271.573" y="174.04" fill="#F1F2F2" width="64.424" height="2.726"/>
	<rect x="271.575" y="179.428" fill="#F1F2F2" width="45.891" height="2.725"/>
	<rect x="271.579" y="184.815" fill="#F1F2F2" width="29.238" height="2.721"/>
	<g>
		<polygon id="XMLID_896_" fill="#EEEEEE" points="328.882,202.756 323.483,200.564 318.087,202.756 318.087,187.729 
			328.882,187.729 		"/>
		<g id="XMLID_1_">
			<polygon fill="#414042" points="329.96,204.357 323.483,201.729 317.007,204.357 317.007,194.971 319.167,194.971 
				319.167,201.152 323.483,199.398 327.802,201.151 327.802,194.971 329.96,194.971 			"/>
		</g>
		<path id="XMLID_894_" fill="#F6B933" d="M331.653,187.299c0,1.019-1.467,1.738-1.834,2.625c-0.381,0.918,0.135,2.462-0.559,3.154
			c-0.693,0.691-2.234,0.176-3.152,0.557c-0.889,0.367-1.605,1.836-2.625,1.836s-1.736-1.469-2.625-1.836
			c-0.918-0.381-2.459,0.136-3.154-0.557c-0.689-0.692-0.178-2.236-0.557-3.154c-0.369-0.887-1.834-1.606-1.834-2.625
			c0-1.018,1.465-1.737,1.834-2.625c0.379-0.916-0.133-2.461,0.557-3.151c0.695-0.692,2.236-0.178,3.154-0.56
			c0.889-0.368,1.605-1.836,2.625-1.836s1.736,1.468,2.625,1.836c0.918,0.382,2.459-0.133,3.154,0.561
			c0.689,0.689,0.176,2.234,0.557,3.15C330.187,185.562,331.653,186.282,331.653,187.299z"/>
		<g id="XMLID_892_">
			<path fill="#414042" d="M323.483,196.549c-1.045,0-1.76-0.723-2.336-1.307c-0.236-0.24-0.533-0.539-0.703-0.609
				c-0.191-0.077-0.605-0.082-0.982-0.077c-0.812,0.008-1.807,0-2.521-0.714c-0.713-0.715-0.711-1.717-0.711-2.518
				c0-0.373,0-0.796-0.08-0.988c-0.068-0.168-0.369-0.465-0.607-0.701c-0.584-0.576-1.309-1.293-1.309-2.336s0.725-1.76,1.309-2.336
				c0.238-0.236,0.539-0.532,0.607-0.699c0.08-0.195,0.08-0.616,0.08-0.986c0-0.804,0-1.804,0.713-2.52
				c0.713-0.713,1.707-0.723,2.52-0.711c0.324,0.01,0.791,0.002,0.982-0.08c0.17-0.071,0.467-0.369,0.703-0.61
				c0.576-0.583,1.291-1.308,2.336-1.308c1.043,0,1.76,0.725,2.336,1.308c0.236,0.241,0.533,0.539,0.701,0.61
				c0.195,0.082,0.635,0.074,0.984,0.08c0.816,0.024,1.807,0,2.52,0.711c0.715,0.716,0.713,1.716,0.713,2.52
				c0,0.37,0,0.791,0.078,0.985c0.07,0.168,0.371,0.464,0.611,0.7c0.584,0.576,1.307,1.293,1.307,2.336
				c0,1.047-0.725,1.762-1.307,2.336c-0.24,0.238-0.541,0.533-0.609,0.701c-0.08,0.192-0.08,0.615-0.08,0.986
				c0,0.803,0,1.805-0.715,2.52c-0.711,0.714-1.715,0.716-2.518,0.714c-0.35,0-0.791-0.003-0.984,0.077
				c-0.168,0.07-0.465,0.369-0.701,0.609C325.243,195.827,324.526,196.549,323.483,196.549z M319.528,192.395
				c0.557,0,1.178,0.009,1.742,0.243c0.572,0.237,1.02,0.688,1.414,1.089c0.223,0.227,0.643,0.652,0.801,0.665
				c0.156-0.019,0.574-0.438,0.797-0.663c0.395-0.398,0.84-0.854,1.414-1.091c0.588-0.244,1.223-0.251,1.812-0.243
				c0.344,0.006,0.863,0,0.998-0.088c0.072-0.117,0.072-0.659,0.072-0.982c0-0.574,0-1.223,0.244-1.812
				c0.236-0.57,0.688-1.02,1.084-1.412c0.229-0.225,0.648-0.639,0.666-0.801c-0.018-0.159-0.438-0.574-0.664-0.799
				c-0.398-0.396-0.85-0.84-1.088-1.412c-0.244-0.588-0.242-1.24-0.242-1.813c0-0.323,0-0.862-0.09-0.998
				c-0.115-0.071-0.674-0.084-0.98-0.071c-0.592,0.004-1.225,0.002-1.812-0.242c-0.574-0.237-1.021-0.688-1.414-1.088
				c-0.223-0.229-0.641-0.648-0.799-0.666c-0.156,0.018-0.576,0.438-0.799,0.666c-0.395,0.398-0.842,0.851-1.414,1.088
				c-0.586,0.244-1.229,0.248-1.811,0.242c-0.32-0.011-0.865,0-0.998,0.088c-0.074,0.119-0.074,0.658-0.074,0.984
				c0,0.571,0,1.223-0.244,1.812c-0.234,0.572-0.688,1.017-1.086,1.41c-0.227,0.227-0.648,0.645-0.664,0.803
				c0.018,0.156,0.438,0.574,0.664,0.797c0.398,0.395,0.852,0.841,1.088,1.413c0.244,0.59,0.242,1.237,0.242,1.812
				c0,0.323,0,0.867,0.09,1c0.117,0.07,0.656,0.074,0.982,0.07C319.479,192.395,319.507,192.395,319.528,192.395z"/>
		</g>
		<circle id="XMLID_895_" fill="#FAD585" cx="323.483" cy="187.3" r="3.977"/>
	</g>
</g>
<g>
	<path id="XMLID_1355_" fill="#E6E7E8" d="M281.987,206.829v-19.223c0-21.398-17.504-38.906-38.902-38.906l0,0
		c-21.398,0-38.906,17.508-38.906,38.906v19.223H281.987L281.987,206.829z"/>
	<g id="XMLID_1366_">
		<path fill="#414042" d="M283.069,206.829h-2.158v-19.223c0-20.855-16.969-37.827-37.826-37.827
			c-20.858,0-37.827,16.972-37.827,37.827v19.223H203.1v-19.223c0-22.049,17.937-39.984,39.985-39.984
			c22.046,0,39.984,17.937,39.984,39.984V206.829L283.069,206.829z"/>
	</g>
	<g id="XMLID_1368_">
		<rect x="223.262" y="184.904" fill="#414042" width="2.159" height="21.925"/>
	</g>
	<g id="XMLID_1367_">
		<rect x="262.964" y="184.904" fill="#414042" width="2.158" height="21.925"/>
	</g>
	<polygon fill="#19B5FE" points="239.382,181.762 238.018,205.814 249.897,205.75 246.353,181.366 	"/>
	<g>
		
			<rect x="237.387" y="180.539" transform="matrix(-0.9972 -0.0751 0.0751 -0.9972 461.7942 402.5721)" fill="#414042" width="2.158" height="24.127"/>
	</g>
	<g>
		
			<rect x="236.358" y="191.933" transform="matrix(-0.1506 -0.9886 0.9886 -0.1506 94.6934 467.3849)" fill="#414042" width="23.55" height="2.159"/>
	</g>
	<polygon fill="#FFFFFF" points="242.669,174.088 226.39,159.043 233.152,151.641 253.618,153.79 258.634,159.043 	"/>
	<path id="XMLID_1396_" fill="#FFFFFF" d="M218.417,129.338c0,1.896-1.536,3.435-3.431,3.435l0,0c-1.899,0-3.434-1.538-3.434-3.435
		v-3.328c0-1.898,1.535-3.434,3.434-3.434l0,0c1.895,0,3.431,1.534,3.431,3.434V129.338z"/>
	<g id="XMLID_1395_">
		<path fill="#414042" d="M214.986,133.851c-2.489,0-4.513-2.022-4.513-4.513v-3.33c0-2.486,2.024-4.512,4.513-4.512
			c2.488,0,4.512,2.024,4.512,4.512v3.33C219.498,131.827,217.474,133.851,214.986,133.851z M214.986,123.655
			c-1.298,0-2.354,1.059-2.354,2.354v3.33c0,1.297,1.056,2.354,2.354,2.354c1.298,0,2.352-1.058,2.352-2.354v-3.33
			C217.338,124.713,216.283,123.655,214.986,123.655z"/>
	</g>
	<path id="XMLID_1394_" fill="#FFFFFF" d="M272.675,129.338c0,1.896-1.543,3.435-3.438,3.435l0,0c-1.896,0-3.438-1.538-3.438-3.435
		v-3.328c0-1.898,1.539-3.434,3.438-3.434l0,0c1.895,0,3.438,1.534,3.438,3.434V129.338z"/>
	<g id="XMLID_1393_">
		<path fill="#414042" d="M269.237,133.851c-2.49,0-4.518-2.022-4.518-4.513v-3.33c0-2.486,2.025-4.512,4.518-4.512
			c2.49,0,4.516,2.024,4.516,4.512v3.33C273.753,131.827,271.726,133.851,269.237,133.851z M269.237,123.655
			c-1.303,0-2.357,1.059-2.357,2.354v3.33c0,1.297,1.057,2.354,2.357,2.354c1.299,0,2.357-1.058,2.357-2.354v-3.33
			C271.595,124.713,270.536,123.655,269.237,123.655z"/>
	</g>
	<path id="XMLID_1390_" fill="#FFFFFF" d="M268.759,104.702v27.797c0,14.66-11.883,26.545-26.551,26.545l0,0
		c-14.658,0-26.545-11.885-26.545-26.545v-27.797H268.759L268.759,104.702z"/>
	<path fill="#F1F2F2" d="M241.261,156.349c0,0.889,0.015,1.771,0.04,2.647c0.304,0.012,0.601,0.047,0.907,0.047
		c14.668,0,26.551-11.885,26.551-26.545v-27.797h-27.498V156.349z"/>
	<g id="XMLID_1389_">
		<path fill="#414042" d="M242.207,160.122c-15.233,0-27.625-12.392-27.625-27.623v-28.877h55.255v28.877
			C269.839,147.73,257.444,160.122,242.207,160.122z M216.741,105.78v26.719c0,14.043,11.424,25.465,25.466,25.465
			c14.044,0,25.472-11.422,25.472-25.465V105.78H216.741z"/>
	</g>
	<path id="XMLID_1388_" fill="#F6B933" d="M278.286,86.675v11.232c0,5.97-4.838,10.812-10.812,10.812h-43.012
		c-2.982,0-5.404,2.423-5.404,5.408v7.076c0,0.598-0.484,1.082-1.083,1.082h-5.383c-0.592,0-1.079-0.484-1.079-1.082v-20.542
		c1.698-5.086,7.544-3.175,7.544-3.175c0-5.97,4.844-10.813,10.812-10.813L278.286,86.675L278.286,86.675z"/>
	<path id="XMLID_1387_" fill="#FAD585" d="M266.335,104.282c6.463,0,11.703-5.242,11.703-11.702v-5.905H229.87
		c-5.968,0-10.812,4.843-10.812,10.813c0,0-5.847-1.911-7.544,3.175v21.082h2.358c0.646,0,1.171-0.521,1.171-1.172v-10.437
		c0-3.234,2.625-5.854,5.851-5.854H266.335z"/>
	<g id="XMLID_1386_">
		<path fill="#414042" d="M217.976,123.366h-5.384c-1.19,0-2.159-0.97-2.159-2.16l0.057-20.884c1.349-4.04,5.007-4.563,7.563-4.174
			c0.667-5.929,5.713-10.552,11.816-10.552h49.497v12.311c0,6.556-5.336,11.89-11.893,11.89h-43.012
			c-2.384,0-4.325,1.941-4.325,4.33v7.078C220.137,122.396,219.168,123.366,217.976,123.366z M212.592,100.847v20.358l5.384,0.002
			l0.002-7.08c0-3.578,2.909-6.488,6.484-6.488h43.011c5.367,0,9.732-4.366,9.732-9.731V87.755H229.87
			c-5.367,0-9.732,4.367-9.732,9.733v1.489l-1.415-0.463C218.235,98.359,213.967,97.113,212.592,100.847z"/>
	</g>
	<polygon fill="#19B5FE" points="243.228,170.875 241.988,170.875 237.557,178.939 242.653,184.956 247.782,178.939 	"/>
	<polygon fill="#E6E7E8" points="243.228,170.875 248.817,179.513 260.899,161.122 256.759,157.329 	"/>
	<g>
		<path fill="#414042" d="M248.757,181.571l-6.893-11.988l14.893-13.723l5.551,5.088L248.757,181.571z M244.595,170l4.283,7.455
			l10.615-16.158l-2.734-2.506L244.595,170z"/>
	</g>
	<polygon fill="#E6E7E8" points="241.988,170.875 236.399,179.513 224.317,161.122 228.102,157.329 	"/>
	<g>
		<path fill="#414042" d="M236.461,181.571l-13.528-20.59l5.128-5.143l15.299,13.732L236.461,181.571z M225.7,161.262l10.638,16.193
			l4.278-7.445l-12.474-11.196L225.7,161.262z"/>
	</g>
	<g>
		<polygon fill="#414042" points="242.651,186.624 236.734,179.639 238.38,178.243 242.655,183.29 246.959,178.241 248.603,179.641 
					"/>
	</g>
</g>
<g id="XMLID_319_">
	<g id="XMLID_22_">
		<rect x="359.868" y="154.413" fill="#414042" width="2.156" height="27.031"/>
	</g>
	<g id="XMLID_21_">
		<path fill="#414042" d="M336.091,150.342c-1.799,0-3.49-0.699-4.762-1.973c-1.271-1.271-1.973-2.963-1.973-4.762h2.158
			c0,1.223,0.479,2.372,1.342,3.234c1.729,1.729,4.74,1.729,6.471,0c0.863-0.862,1.338-2.014,1.338-3.234s-0.475-2.369-1.338-3.232
			c-0.549-0.549-2.354-1.129-3.463-1.365c-24.727-5.934-21.582-25.127-21.547-25.32l0.16-0.891h16.633v2.16h-14.77
			c-0.293,3.644,0.041,17.153,20.002,21.944c0.521,0.111,3.322,0.755,4.512,1.943c1.271,1.272,1.971,2.962,1.971,4.761
			s-0.699,3.49-1.971,4.762C339.581,149.643,337.89,150.342,336.091,150.342z"/>
	</g>
	<g id="XMLID_20_">
		<path fill="#414042" d="M385.401,150.342c-1.799,0-3.486-0.699-4.762-1.973c-1.27-1.271-1.971-2.963-1.971-4.762
			c0-1.797,0.699-3.486,1.971-4.761c1.189-1.188,3.988-1.832,4.537-1.949c19.938-4.785,20.27-18.296,19.979-21.938h-14.771v-2.16
			h16.635l0.158,0.891c0.035,0.193,3.18,19.389-21.523,25.314c-1.133,0.242-2.938,0.822-3.484,1.371
			c-0.865,0.865-1.34,2.013-1.34,3.232c0,1.223,0.475,2.371,1.34,3.234c1.73,1.729,4.742,1.729,6.471,0
			c0.863-0.863,1.34-2.014,1.34-3.234h2.158c0,1.798-0.701,3.489-1.973,4.762C388.892,149.643,387.202,150.342,385.401,150.342z"/>
	</g>
	<path id="XMLID_19_" fill="#F6B933" d="M329.673,105.831h62.547c0,37.455-31.176,60.775-31.176,60.775
		S329.673,143.075,329.673,105.831z"/>
	<g id="XMLID_18_">
		<path fill="#414042" d="M372.526,143.534l-1.631-1.416c6.795-7.832,11.125-16.759,12.867-26.527l2.125,0.381
			C384.075,126.127,379.583,135.402,372.526,143.534z"/>
	</g>
	<g id="XMLID_17_">
		<path fill="#414042" d="M374.255,184.493h-2.158c0-1.088-0.885-1.97-1.971-1.97h-18.359c-1.088,0-1.971,0.882-1.971,1.97h-2.158
			c0-2.275,1.852-4.127,4.129-4.127h18.359C372.401,180.366,374.255,182.217,374.255,184.493z"/>
	</g>
	<rect id="XMLID_16_" x="340.942" y="183.956" fill="#D1D3D4" width="40.006" height="20.199"/>
	<g id="XMLID_6_">
		<path fill="#414042" d="M382.026,205.234h-42.164v-22.36h42.164V205.234z M342.022,203.075h37.846v-18.043h-37.846V203.075z"/>
	</g>
	<rect id="XMLID_15_" x="336.624" y="200.917" fill="#A7A9AC" width="48.643" height="4.834"/>
	<g id="XMLID_14_">
		<path fill="#414042" d="M386.345,206.829h-50.803v-6.992h50.803V206.829z M337.704,204.67h46.482v-2.676h-46.482V204.67z"/>
	</g>
	<rect id="XMLID_13_" x="350.214" y="187.411" fill="#19B5FE" width="21.465" height="9.725"/>
	<g id="XMLID_12_">
		<rect x="357.653" y="168.851" fill="#414042" width="6.584" height="2.161"/>
	</g>
	<g id="XMLID_11_">
		<rect x="355.899" y="172.792" fill="#414042" width="10.092" height="2.16"/>
	</g>
	<g id="XMLID_8_">
		<rect x="355.755" y="191.015" fill="#FFFFFF" width="10.09" height="2.515"/>
	</g>
	<path id="XMLID_5_" fill="#FAD585" d="M329.673,105.831c0,36.043,29.381,59.244,31.271,60.701v-60.701H329.673z"/>
	<g id="XMLID_23_">
		<path fill="#414042" d="M361.042,167.956l-0.646-0.485c-0.316-0.239-31.803-24.286-31.803-61.64v-1.078h64.705v1.078
			c0,37.563-31.291,61.404-31.609,61.641L361.042,167.956z M330.761,106.911c0.549,32.73,25.877,54.738,30.283,58.319
			c4.387-3.567,29.545-25.44,30.088-58.319H330.761z"/>
	</g>
</g>
<g id="XMLID_338_">
	<rect id="XMLID_72_" x="104.415" y="115.967" fill="#F6B933" width="18.641" height="89.783"/>
	<rect id="XMLID_71_" x="104.415" y="115.967" fill="#FAD585" width="8.295" height="89.783"/>
	<g id="XMLID_70_">
		<rect x="104.415" y="189.013" fill="#414042" width="5.729" height="2.157"/>
	</g>
	<g id="XMLID_69_">
		<rect x="104.415" y="200.704" fill="#414042" width="5.729" height="2.159"/>
	</g>
	<g id="XMLID_68_">
		<rect x="104.415" y="177.318" fill="#414042" width="5.729" height="2.158"/>
	</g>
	<g id="XMLID_67_">
		<rect x="104.415" y="165.625" fill="#414042" width="5.729" height="2.156"/>
	</g>
	<g id="XMLID_66_">
		<rect x="104.415" y="153.932" fill="#414042" width="5.729" height="2.158"/>
	</g>
	<g id="XMLID_65_">
		<rect x="104.415" y="130.547" fill="#414042" width="5.729" height="2.158"/>
	</g>
	<g id="XMLID_64_">
		<rect x="104.415" y="142.239" fill="#414042" width="5.729" height="2.157"/>
	</g>
	<g id="XMLID_337_">
		<rect x="104.415" y="118.855" fill="#414042" width="5.729" height="2.157"/>
	</g>
	<g id="XMLID_50_">
		<path fill="#414042" d="M124.136,206.829h-20.799v-91.941h20.799V206.829z M105.495,204.67h16.482v-87.625h-16.482V204.67z"/>
	</g>
</g>
<g id="XMLID_60_">
	<path id="XMLID_346_" fill="#FFFFFF" d="M9.106,149.049v56.701H3.08v-56.701l2.852-7.496c0.056-0.148,0.265-0.148,0.323,0
		L9.106,149.049z"/>
	<rect id="XMLID_63_" x="3.08" y="149.049" fill="#F6B933" width="6.026" height="56.701"/>
	<rect id="XMLID_344_" x="3.08" y="149.049" fill="#FAD585" width="3.013" height="56.701"/>
	<rect id="XMLID_62_" x="2.912" y="198.725" fill="#FFFFFF" width="6.36" height="7.033"/>
	<g id="XMLID_342_">
		<path fill="#414042" d="M10.185,206.829H2l0.07-58.164l2.853-7.496c0.186-0.487,0.643-0.807,1.167-0.808c0.002,0,0.002,0,0.002,0
			c0.523,0,0.982,0.315,1.17,0.804l2.923,7.885V206.829z M4.158,204.67h3.868v-55.424l-1.934-5.082l-1.934,5.082V204.67z"/>
	</g>
	<g id="XMLID_341_">
		<rect x="3.08" y="197.646" fill="#414042" width="5.267" height="2.159"/>
	</g>
	<g id="XMLID_340_">
		<rect x="3.457" y="147.971" fill="#414042" width="5.27" height="2.158"/>
	</g>
</g>
<g id="XMLID_1287_">
	<g id="XMLID_1281_">
		<g id="XMLID_1283_">
			
				<rect x="342.478" y="48.026" transform="matrix(-0.7072 -0.707 0.707 -0.7072 554.439 327.8037)" fill="#414042" width="5.225" height="2.16"/>
		</g>
		<g id="XMLID_1282_">
			
				<rect x="343.99" y="46.478" transform="matrix(-0.7074 -0.7068 0.7068 -0.7074 554.4915 327.7037)" fill="#414042" width="2.159" height="5.226"/>
		</g>
	</g>
	<g id="XMLID_1284_">
		<g id="XMLID_1286_">
			
				<rect x="369.472" y="53.854" transform="matrix(-0.7071 -0.7071 0.7071 -0.7071 596.3434 356.8802)" fill="#414042" width="5.223" height="2.159"/>
		</g>
		<g id="XMLID_1285_">
			
				<rect x="371.02" y="52.311" transform="matrix(-0.7069 -0.7073 0.7073 -0.7069 596.2797 356.9431)" fill="#414042" width="2.158" height="5.222"/>
		</g>
	</g>
	<g id="XMLID_1241_">
		<path fill="#414042" d="M349.202,79.235h-2.158c-0.08-0.15-0.674-0.443-0.99-0.599c-0.875-0.43-2.199-1.08-2.199-2.537
			c0-1.456,1.324-2.105,2.199-2.536c0.316-0.157,0.91-0.449,0.994-0.615c-0.084-0.133-0.676-0.425-0.994-0.581
			c-0.875-0.43-2.199-1.079-2.199-2.534c0-1.456,1.324-2.105,2.199-2.535c0.318-0.156,0.91-0.447,0.996-0.612l2.152,0.017
			c0,1.455-1.322,2.104-2.197,2.534c-0.32,0.156-0.91,0.447-0.996,0.612c0.086,0.133,0.676,0.424,0.996,0.58
			c0.875,0.429,2.197,1.079,2.197,2.534c0,1.457-1.322,2.106-2.197,2.536c-0.318,0.157-0.912,0.449-0.994,0.615
			c0.082,0.135,0.676,0.427,0.994,0.584C347.88,77.129,349.202,77.78,349.202,79.235z"/>
	</g>
	<g id="XMLID_1238_">
		<path fill="#414042" d="M363.198,60.124h-2.158c-0.078-0.15-0.672-0.442-0.992-0.598c-0.875-0.431-2.197-1.082-2.197-2.537
			c0-1.455,1.322-2.106,2.197-2.537c0.32-0.157,0.914-0.448,0.998-0.613c-0.086-0.134-0.678-0.425-0.996-0.582
			c-0.877-0.43-2.199-1.079-2.199-2.534s1.322-2.104,2.199-2.534c0.318-0.156,0.91-0.447,0.996-0.612l2.152,0.016
			c0,1.455-1.322,2.104-2.199,2.534c-0.316,0.156-0.91,0.447-0.996,0.612c0.086,0.132,0.68,0.423,0.996,0.58
			c0.877,0.43,2.199,1.078,2.199,2.534s-1.32,2.106-2.197,2.537c-0.318,0.157-0.912,0.449-0.996,0.613
			c0.084,0.136,0.678,0.427,0.996,0.584C361.878,58.019,363.198,58.669,363.198,60.124z"/>
	</g>
	<rect id="XMLID_1232_" x="341.368" y="91.09" fill="#FFFFFF" width="10.32" height="9.779"/>
	<rect id="XMLID_1233_" x="355.687" y="76.3" fill="#F6B933" width="10.318" height="24.57"/>
	<rect id="XMLID_1234_" x="370.005" y="63.082" fill="#19B5FE" width="10.32" height="37.788"/>
	<g id="XMLID_40_">
		<path fill="#414042" d="M352.769,101.949h-12.48V90.011h12.48V101.949z M342.446,99.79h8.162v-7.62h-8.162V99.79z"/>
	</g>
	<g id="XMLID_39_">
		<path fill="#414042" d="M367.087,101.949h-12.48V75.22h12.48V101.949z M356.767,99.79h8.16V77.379h-8.16V99.79z"/>
	</g>
	<g id="XMLID_37_">
		<path fill="#414042" d="M381.403,101.949h-12.479V62.002h12.479V101.949z M371.083,99.79h8.164V64.161h-8.164V99.79z"/>
	</g>
	<g id="XMLID_1236_">
		<rect x="332.196" y="99.852" fill="#414042" width="58.545" height="2.159"/>
	</g>
	<g id="XMLID_1237_">
		<rect x="335.839" y="46.326" fill="#414042" width="2.158" height="55.188"/>
	</g>
	<g id="XMLID_1235_">
		<polygon fill="#414042" points="383.997,55.693 382.462,54.174 387.519,49.066 392.444,54.186 390.892,55.682 387.497,52.158 		
			"/>
	</g>
	<g id="XMLID_1239_">
		<rect x="386.372" y="51.231" fill="#414042" width="2.158" height="46.681"/>
	</g>
</g>
<g id="XMLID_41_">
	<g id="XMLID_860_">
		<path id="XMLID_866_" fill="#FFFFFF" d="M392.892,206.829V155.59c0-1.186,0.971-2.153,2.154-2.153h36.48
			c1.188,0,2.156,0.97,2.156,2.153v51.238H392.892L392.892,206.829z"/>
		<g id="XMLID_279_">
			<path fill="#414042" d="M393.972,206.814h-2.158V155.59c0-1.782,1.451-3.233,3.232-3.233h36.48c1.783,0,3.232,1.451,3.232,3.233
				v22.619h-2.158V155.59c0-0.596-0.48-1.075-1.074-1.075h-36.48c-0.592,0-1.074,0.479-1.074,1.075V206.814z"/>
		</g>
		<g id="XMLID_863_">
			<rect x="408.083" y="156.749" fill="#414042" width="10.443" height="2.158"/>
		</g>
		<rect id="XMLID_862_" x="396.022" y="161.465" fill="#E6E7E8" width="34.529" height="45.173"/>
		<polygon id="XMLID_861_" fill="#BCBEC0" points="428.948,161.465 428.948,205.036 396.022,205.036 396.022,206.638 
			430.554,206.638 430.554,161.465 		"/>
	</g>
	<rect id="XMLID_278_" x="398.444" y="186.323" fill="#BCBEC0" width="28.16" height="1.312"/>
	<rect id="XMLID_280_" x="398.444" y="189.961" fill="#BCBEC0" width="28.16" height="1.314"/>
	<rect id="XMLID_281_" x="398.444" y="193.599" fill="#BCBEC0" width="28.16" height="1.315"/>
	<rect id="XMLID_282_" x="398.444" y="197.239" fill="#BCBEC0" width="28.16" height="1.315"/>
	<rect id="XMLID_283_" x="398.444" y="200.877" fill="#BCBEC0" width="28.16" height="1.316"/>
	<rect id="XMLID_284_" x="398.444" y="166.573" fill="#F6B933" width="28.16" height="17.971"/>
</g>
<g>
	<rect id="XMLID_34_" x="413.687" y="180.18" fill="#19B5FE" width="56.791" height="25.57"/>
	<g id="XMLID_35_">
		<path fill="#414042" d="M471.56,206.829h-58.953v-27.728h58.953V206.829z M414.767,204.67h54.633v-23.41h-54.633V204.67z"/>
	</g>
	<circle id="XMLID_33_" fill="#75D3FE" cx="441.839" cy="192.964" r="8.923"/>
	<g id="XMLID_32_">
		<rect x="419.657" y="191.885" fill="#414042" width="9.666" height="2.158"/>
	</g>
	<g id="XMLID_31_">
		<rect x="454.353" y="191.885" fill="#414042" width="9.666" height="2.158"/>
	</g>
	<g id="XMLID_26_">
		<path id="XMLID_27_" fill="#414042" d="M441.565,198.122v-0.908c-1.139-0.118-2.158-0.567-3.061-1.357l0.908-1.083
			c0.697,0.608,1.412,0.968,2.15,1.083v-2.412c-0.938-0.225-1.623-0.516-2.057-0.882c-0.438-0.364-0.654-0.906-0.654-1.625
			c0-0.715,0.25-1.306,0.752-1.759c0.502-0.456,1.156-0.706,1.959-0.746v-0.623h0.795v0.635c0.914,0.066,1.775,0.379,2.59,0.934
			l-0.809,1.145c-0.549-0.389-1.141-0.63-1.781-0.723v2.338h0.039c0.953,0.227,1.654,0.529,2.102,0.908
			c0.449,0.383,0.672,0.938,0.672,1.662c0,0.727-0.258,1.313-0.77,1.772c-0.516,0.456-1.195,0.703-2.043,0.745v0.896H441.565
			L441.565,198.122z M440.688,190.092c-0.213,0.187-0.316,0.419-0.316,0.695c0,0.278,0.082,0.496,0.248,0.659
			c0.166,0.162,0.48,0.318,0.945,0.468v-2.152C441.19,189.795,440.899,189.905,440.688,190.092z M443.306,195.547
			c0.234-0.191,0.35-0.434,0.35-0.723s-0.092-0.521-0.273-0.691c-0.184-0.168-0.521-0.329-1.021-0.479v2.237
			C442.759,195.853,443.073,195.737,443.306,195.547z"/>
	</g>
</g>
<g id="XMLID_7_">
	<path id="XMLID_1329_" fill="#FFFFFF" d="M489.354,109.613c0,0-13.916,16.538-31.08,16.538s-31.078-16.538-31.078-16.538
		s13.914-16.542,31.078-16.542S489.354,109.613,489.354,109.613z"/>
	<g id="XMLID_1328_">
		<path fill="#414042" d="M458.274,127.231c-17.467,0-31.32-16.232-31.902-16.924l-0.584-0.694l0.584-0.696
			c0.582-0.688,14.438-16.924,31.902-16.924c17.467,0,31.324,16.236,31.906,16.924l0.584,0.696l-0.584,0.694
			C489.599,110.999,475.743,127.231,458.274,127.231z M428.646,109.613c2.855,3.095,15.166,15.46,29.629,15.46
			s26.775-12.365,29.631-15.46c-2.854-3.097-15.166-15.463-29.631-15.463C443.812,94.15,431.501,106.517,428.646,109.613z"/>
	</g>
	<path id="XMLID_1323_" fill="#FFFFFF" d="M458.132,102.872c3.59,0,6.498,2.908,6.498,6.498c0,3.586-2.908,6.498-6.498,6.498
		c-3.586,0-6.492-2.912-6.492-6.498C451.638,105.78,454.546,102.872,458.132,102.872z"/>
	<path id="XMLID_119_" fill="#19B5FE" d="M476.396,106.094l-3.242-0.014c-0.383-1.686-1.045-3.26-1.938-4.672l2.293-2.294
		c0.82-0.816,0.826-2.146,0.006-2.962l-1.715-1.719c-0.818-0.816-2.146-0.823-2.963-0.006l-2.299,2.294
		c-1.41-0.895-2.986-1.556-4.666-1.938v-3.241c0-1.157-0.939-2.097-2.104-2.097h-2.42c-1.162,0-2.098,0.939-2.098,2.097v3.241
		c-1.658,0.373-3.203,1.027-4.602,1.894l-2.283-2.303c-0.814-0.818-2.143-0.835-2.963-0.012l-1.727,1.705
		c-0.818,0.809-0.828,2.142-0.014,2.961l2.275,2.308c-0.895,1.407-1.566,2.981-1.953,4.661l-3.24-0.014
		c-1.16-0.01-2.1,0.93-2.1,2.094l-0.018,2.426c-0.006,1.152,0.93,2.096,2.088,2.105l3.234,0.01c0.379,1.688,1.035,3.26,1.928,4.668
		l-2.305,2.299c-0.816,0.812-0.822,2.137-0.008,2.959l1.705,1.719c0.822,0.83,2.148,0.83,2.967,0.013l2.301-2.282
		c1.414,0.896,2.98,1.569,4.672,1.955l-0.014,3.234c-0.004,1.156,0.934,2.104,2.09,2.104l2.426,0.01c1.158,0,2.1-0.932,2.1-2.086
		l0.01-3.242c1.686-0.379,3.262-1.045,4.68-1.934l2.287,2.305c0.814,0.816,2.145,0.816,2.971,0l1.711-1.711
		c0.824-0.812,0.828-2.145,0.002-2.957l-2.275-2.303c0.893-1.416,1.561-2.984,1.943-4.673l3.238,0.011
		c1.158,0,2.096-0.938,2.098-2.095v-2.431C478.478,107.03,477.548,106.094,476.396,106.094z M458.563,116.021
		c-3.678,0-6.656-2.976-6.656-6.658c0-3.671,2.98-6.64,6.656-6.64c3.67,0,6.646,2.969,6.646,6.64
		C465.21,113.045,462.233,116.021,458.563,116.021z"/>
	<g id="XMLID_769_">
		<path fill="#414042" d="M459.716,130.374l-2.43-0.01c-0.844,0-1.639-0.328-2.236-0.932c-0.604-0.604-0.93-1.404-0.928-2.254
			l0.01-2.396c-1.188-0.342-2.334-0.82-3.424-1.435l-1.705,1.692c-0.596,0.594-1.391,0.924-2.236,0.924c-0.002,0-0.004,0-0.006,0
			c-0.852,0-1.652-0.338-2.252-0.943l-1.703-1.719c-0.598-0.602-0.924-1.398-0.924-2.246c0.004-0.85,0.334-1.643,0.936-2.239
			l1.709-1.702c-0.604-1.076-1.074-2.221-1.412-3.421l-2.396-0.007c-1.754-0.018-3.172-1.448-3.162-3.191l0.016-2.427
			c0-0.849,0.334-1.649,0.938-2.25c0.598-0.591,1.385-0.915,2.223-0.915c0.01,0,0.02,0,0.031,0l2.395,0.01
			c0.344-1.191,0.824-2.335,1.434-3.416l-1.689-1.711c-0.596-0.599-0.922-1.398-0.916-2.249c0.004-0.849,0.336-1.645,0.938-2.238
			l1.729-1.706c0.588-0.592,1.381-0.921,2.229-0.921l0,0c0.852,0,1.652,0.333,2.258,0.94l1.697,1.708
			c1.068-0.587,2.188-1.049,3.34-1.376v-2.402c0-1.75,1.426-3.176,3.178-3.176h2.422c1.754,0,3.182,1.426,3.182,3.176v2.403
			c1.195,0.34,2.342,0.815,3.418,1.419l1.703-1.702c1.236-1.235,3.252-1.23,4.488,0.006l1.719,1.72
			c0.598,0.596,0.928,1.392,0.928,2.24c-0.002,0.851-0.334,1.649-0.941,2.249l-1.693,1.699c0.605,1.083,1.082,2.231,1.422,3.426
			l2.402,0.011c1.742,0,3.162,1.42,3.162,3.166v2.431c-0.008,1.751-1.434,3.174-3.18,3.174l-2.4-0.008
			c-0.34,1.189-0.816,2.336-1.428,3.426l1.689,1.709c0.594,0.584,0.93,1.379,0.93,2.229c0,0.853-0.33,1.653-0.939,2.252
			l-1.705,1.709c-1.25,1.233-3.268,1.233-4.5-0.001l-1.697-1.711c-1.088,0.605-2.236,1.08-3.428,1.414l-0.006,2.408
			C462.896,128.954,461.47,130.374,459.716,130.374z M450.394,120.62l0.727,0.461c1.352,0.854,2.811,1.463,4.334,1.813l0.842,0.192
			l-0.016,4.1c-0.002,0.273,0.104,0.527,0.299,0.723c0.188,0.19,0.441,0.297,0.711,0.297l2.43,0.01c0.559,0,1.018-0.45,1.018-1.006
			l0.012-4.106l0.838-0.188c1.535-0.348,2.998-0.951,4.346-1.793l0.73-0.459l2.895,2.916c0.393,0.395,1.045,0.393,1.447-0.007
			l1.707-1.708c0.197-0.195,0.303-0.449,0.301-0.721c0-0.268-0.104-0.518-0.295-0.704l-2.887-2.922l0.455-0.726
			c0.852-1.348,1.457-2.806,1.805-4.336l0.191-0.845l4.102,0.015c0.559,0,1.016-0.457,1.018-1.019v-2.428
			c0-0.556-0.451-1.009-1.004-1.009l-4.102-0.017l-0.191-0.836c-0.354-1.542-0.957-3.001-1.799-4.336l-0.461-0.729l2.9-2.905
			c0.195-0.194,0.303-0.452,0.305-0.723c0-0.27-0.104-0.522-0.295-0.712l-1.719-1.72c-0.396-0.395-1.043-0.399-1.436-0.005
			l-2.91,2.906l-0.729-0.463c-1.326-0.842-2.779-1.445-4.324-1.797l-0.84-0.191V91.54c0-0.56-0.461-1.017-1.025-1.017h-2.422
			c-0.561,0-1.018,0.457-1.018,1.017v4.105l-0.846,0.19c-1.488,0.334-2.928,0.926-4.266,1.756l-0.73,0.453l-2.887-2.912
			c-0.381-0.381-1.055-0.393-1.434-0.011l-1.734,1.711c-0.188,0.188-0.295,0.442-0.295,0.715c-0.002,0.271,0.1,0.527,0.291,0.718
			l2.885,2.921l-0.465,0.726c-0.85,1.331-1.457,2.784-1.812,4.322l-0.191,0.841l-4.104-0.016c-0.277,0.004-0.525,0.1-0.715,0.288
			c-0.193,0.192-0.301,0.45-0.301,0.726l-0.016,2.432c-0.002,0.558,0.453,1.017,1.016,1.021l4.09,0.011l0.189,0.842
			c0.35,1.553,0.951,3.009,1.785,4.33l0.463,0.73l-2.918,2.906c-0.189,0.191-0.297,0.443-0.297,0.715s0.104,0.527,0.295,0.723
			l1.705,1.717c0.191,0.196,0.449,0.303,0.725,0.303l0,0c0.271,0,0.525-0.104,0.713-0.293L450.394,120.62z M458.563,117.099
			c-4.266,0-7.736-3.47-7.736-7.735c0-4.257,3.473-7.719,7.736-7.719c4.26,0,7.727,3.462,7.727,7.719
			C466.29,113.629,462.823,117.099,458.563,117.099z M458.563,103.801c-3.076,0-5.576,2.496-5.576,5.562
			c0,3.075,2.5,5.579,5.576,5.579c3.07,0,5.566-2.504,5.566-5.579C464.132,106.297,461.634,103.801,458.563,103.801z"/>
	</g>
	<circle id="XMLID_118_" fill="#F5AB35" cx="458.134" cy="109.7" r="9.878"/>
	<g id="XMLID_104_">
		<g>
			<path fill="#414042" d="M457.565,115.325v-1c-1.156-0.181-2.223-0.705-3.197-1.568l1.271-1.545
				c0.711,0.619,1.354,1.016,1.926,1.188v-2.036c-0.955-0.246-1.654-0.576-2.104-0.99c-0.443-0.416-0.666-1.012-0.666-1.791
				c0-0.778,0.252-1.422,0.764-1.926c0.51-0.506,1.18-0.81,2.008-0.908v-0.672h1.449v0.697c0.912,0.128,1.816,0.506,2.719,1.135
				l-1.121,1.611c-0.572-0.408-1.104-0.682-1.598-0.818v1.967c0.984,0.256,1.711,0.601,2.18,1.025
				c0.469,0.428,0.705,1.034,0.705,1.818c0,0.781-0.262,1.428-0.787,1.939c-0.523,0.51-1.225,0.815-2.098,0.916v0.955h-1.451
				V115.325z M457.565,106.646c-0.391,0.138-0.586,0.388-0.586,0.752c0,0.365,0.195,0.644,0.586,0.835V106.646z M459.712,111.62
				c0-0.19-0.049-0.35-0.148-0.478s-0.283-0.245-0.547-0.354v1.682C459.479,112.322,459.712,112.04,459.712,111.62z"/>
		</g>
	</g>
	<g id="XMLID_103_">
		<rect x="457.479" y="81.873" fill="#414042" width="2.156" height="3.393"/>
	</g>
	<g id="XMLID_84_">
		
			<rect x="464.415" y="83.051" transform="matrix(-0.9659 -0.2591 0.2591 -0.9659 893.1362 287.2098)" fill="#414042" width="2.16" height="3.393"/>
	</g>
	<g id="XMLID_83_">
		
			<rect x="470.741" y="85.986" transform="matrix(-0.8656 -0.5007 0.5007 -0.8656 836.3488 399.8073)" fill="#414042" width="2.159" height="3.393"/>
	</g>
	<g id="XMLID_82_">
		
			<rect x="476.175" y="90.476" transform="matrix(-0.7059 -0.7084 0.7084 -0.7059 748.838 495.2977)" fill="#414042" width="2.158" height="3.394"/>
	</g>
	<g id="XMLID_81_">
		
			<rect x="478.528" y="123.618" transform="matrix(-0.8642 -0.5032 0.5032 -0.8642 832.4768 474.1003)" fill="#414042" width="3.392" height="2.157"/>
	</g>
	<g id="XMLID_80_">
		
			<rect x="474.013" y="129.021" transform="matrix(-0.7039 -0.7103 0.7103 -0.7039 718.1728 559.5623)" fill="#414042" width="3.393" height="2.159"/>
	</g>
	<g id="XMLID_77_">
		
			<rect x="468.288" y="133.018" transform="matrix(-0.4958 -0.8684 0.8684 -0.4958 586.5624 608.7288)" fill="#414042" width="3.392" height="2.158"/>
	</g>
	<g id="XMLID_76_">
		
			<rect x="461.708" y="135.425" transform="matrix(-0.2533 -0.9674 0.9674 -0.2533 448.7268 619.3718)" fill="#414042" width="3.393" height="2.158"/>
	</g>
	<g id="XMLID_25_">
		
			<rect x="455.35" y="135.469" transform="matrix(-1 -0.0054 0.0054 -1 912.106 276.8074)" fill="#414042" width="2.158" height="3.393"/>
	</g>
	<g id="XMLID_315_">
		
			<rect x="448.452" y="134.254" transform="matrix(-0.9645 -0.2642 0.2642 -0.9645 847.1748 385.8295)" fill="#414042" width="2.159" height="3.391"/>
	</g>
	<g id="XMLID_24_">
		
			<rect x="442.086" y="131.287" transform="matrix(-0.8626 -0.5059 0.5059 -0.8626 758.1635 471.8901)" fill="#414042" width="2.16" height="3.393"/>
	</g>
	<g id="XMLID_10_">
		
			<rect x="436.702" y="126.754" transform="matrix(-0.7021 -0.7121 0.7121 -0.7021 653.6875 530.3674)" fill="#414042" width="2.159" height="3.394"/>
	</g>
	<g id="XMLID_9_">
		
			<rect x="432.694" y="121.053" transform="matrix(-0.4942 -0.8694 0.8694 -0.4942 541.4275 560.5118)" fill="#414042" width="2.158" height="3.39"/>
	</g>
	<g id="XMLID_322_">
		
			<rect x="433.282" y="94.812" transform="matrix(-0.8613 -0.5081 0.5081 -0.8613 760.9066 399.489)" fill="#414042" width="3.392" height="2.157"/>
	</g>
	<g id="XMLID_323_">
		
			<rect x="437.81" y="89.808" transform="matrix(-0.7002 -0.714 0.714 -0.7002 682.5964 467.712)" fill="#414042" width="3.392" height="1.44"/>
	</g>
	<g id="XMLID_324_">
		
			<rect x="443.576" y="85.474" transform="matrix(-0.491 -0.8711 0.8711 -0.491 588.5223 516.9473)" fill="#414042" width="3.393" height="2.159"/>
	</g>
	<g id="XMLID_325_">
		
			<rect x="450.155" y="83.104" transform="matrix(-0.2482 -0.9687 0.9687 -0.2482 482.445 542.7899)" fill="#414042" width="3.392" height="2.16"/>
	</g>
</g>
<g id="XMLID_795_">
	<path id="XMLID_774_" fill="#FFFFFF" d="M74.866,86.703l-2.092-0.008c-0.248-1.089-0.676-2.107-1.253-3.02l1.481-1.482
		c0.531-0.529,0.534-1.387,0.004-1.914l-1.109-1.11c-0.528-0.528-1.385-0.532-1.915-0.005l-1.484,1.483
		c-0.913-0.578-1.931-1.005-3.015-1.252v-2.094c0-0.748-0.608-1.355-1.358-1.355H62.56c-0.749,0-1.355,0.607-1.355,1.355v2.094
		c-1.07,0.241-2.069,0.664-2.973,1.223l-1.474-1.487c-0.528-0.53-1.386-0.541-1.916-0.009l-1.115,1.102
		c-0.529,0.524-0.536,1.385-0.011,1.914l1.473,1.49c-0.58,0.91-1.014,1.927-1.264,3.012l-2.093-0.008
		c-0.75-0.006-1.357,0.601-1.357,1.352l-0.01,1.567c-0.004,0.746,0.6,1.355,1.348,1.362l2.091,0.005
		c0.246,1.092,0.668,2.107,1.246,3.018l-1.49,1.484c-0.528,0.524-0.531,1.381-0.003,1.913l1.1,1.109
		c0.532,0.536,1.39,0.536,1.917,0.008l1.487-1.474c0.914,0.577,1.927,1.013,3.02,1.263l-0.009,2.089
		c-0.002,0.748,0.603,1.359,1.35,1.359l1.568,0.007c0.748,0,1.357-0.601,1.357-1.347l0.006-2.096
		c1.089-0.245,2.108-0.674,3.022-1.248l1.478,1.489c0.526,0.527,1.388,0.527,1.921,0l1.104-1.106
		c0.532-0.526,0.535-1.386,0.001-1.912l-1.47-1.486c0.577-0.916,1.008-1.929,1.255-3.02l2.093,0.006
		c0.749,0,1.354-0.606,1.357-1.354v-1.57C76.215,87.309,75.613,86.703,74.866,86.703z M63.345,93.118c-2.375,0-4.3-1.922-4.3-4.302
		c0-2.373,1.925-4.291,4.3-4.291c2.373,0,4.295,1.918,4.295,4.291C67.64,91.196,65.718,93.118,63.345,93.118z"/>
	<g id="XMLID_42_">
		<path fill="#414042" d="M64.09,102.775l-1.572-0.007c-0.645,0-1.255-0.253-1.714-0.714c-0.461-0.463-0.713-1.076-0.71-1.728
			l0.005-1.263c-0.605-0.191-1.194-0.439-1.762-0.739l-0.901,0.895c-0.457,0.457-1.134,0.704-1.719,0.707
			c-0.652-0.001-1.265-0.258-1.725-0.723l-1.1-1.109c-0.458-0.461-0.709-1.073-0.708-1.722c0.002-0.651,0.256-1.261,0.717-1.717
			l0.902-0.898c-0.293-0.563-0.536-1.151-0.726-1.761l-1.265-0.004c-1.348-0.013-2.432-1.11-2.425-2.447l0.011-1.566
			c0-0.649,0.256-1.264,0.72-1.723c0.461-0.459,1.046-0.717,1.725-0.703l1.263,0.005c0.193-0.607,0.44-1.195,0.738-1.758
			l-0.892-0.903c-0.455-0.458-0.706-1.07-0.703-1.721c0.003-0.652,0.259-1.262,0.721-1.719l1.115-1.103
			c0.451-0.452,1.061-0.706,1.708-0.706l0,0c0.654,0,1.27,0.256,1.731,0.72l0.895,0.903c0.552-0.285,1.124-0.52,1.708-0.704V77.3
			c0-1.342,1.091-2.434,2.434-2.434h1.566c1.344,0,2.438,1.092,2.438,2.434v1.269c0.608,0.191,1.195,0.436,1.758,0.73l0.899-0.898
			c0.948-0.948,2.491-0.943,3.44,0.004l1.109,1.109c0.458,0.457,0.712,1.068,0.711,1.719c0,0.652-0.256,1.265-0.718,1.725
			l-0.895,0.895c0.296,0.566,0.541,1.155,0.731,1.766l1.271,0.004c1.337,0.002,2.422,1.091,2.422,2.429v1.57
			c-0.005,1.344-1.098,2.432-2.436,2.432l-1.268-0.002c-0.191,0.606-0.437,1.195-0.734,1.763l0.891,0.902
			c0.455,0.447,0.711,1.058,0.711,1.71c0.001,0.654-0.255,1.269-0.722,1.729l-1.1,1.1c-0.959,0.947-2.503,0.945-3.448,0
			l-0.897-0.904c-0.566,0.295-1.156,0.538-1.763,0.728l-0.003,1.271C66.527,101.687,65.433,102.775,64.09,102.775z M58.012,95.606
			l0.727,0.46c0.837,0.529,1.74,0.907,2.682,1.123l0.843,0.192l-0.012,2.954c0,0.1,0.051,0.166,0.081,0.196
			c0.036,0.036,0.099,0.08,0.189,0.08l1.573,0.006c0.148,0,0.273-0.12,0.273-0.267l0.009-2.96l0.838-0.189
			c0.949-0.215,1.854-0.587,2.688-1.11l0.731-0.458l2.085,2.102c0.105,0.105,0.286,0.103,0.397-0.008l1.098-1.1
			c0.075-0.074,0.086-0.155,0.086-0.196c0-0.051-0.014-0.122-0.077-0.185L70.14,94.14l0.458-0.725
			c0.526-0.834,0.901-1.737,1.116-2.682l0.189-0.844l2.958,0.009c0.149,0,0.273-0.125,0.274-0.278v-1.565
			c0-0.15-0.119-0.271-0.269-0.271l-2.955-0.011l-0.191-0.838c-0.216-0.957-0.591-1.859-1.111-2.683l-0.461-0.729l2.091-2.093
			c0.07-0.07,0.084-0.145,0.084-0.197c0-0.051-0.013-0.125-0.078-0.189l-1.111-1.111c-0.108-0.107-0.282-0.11-0.389-0.003
			l-2.095,2.093l-0.73-0.463c-0.82-0.52-1.72-0.894-2.676-1.111l-0.84-0.19V77.3c0-0.152-0.125-0.276-0.278-0.276H62.56
			c-0.152,0-0.275,0.124-0.275,0.276v2.959l-0.844,0.188c-0.92,0.206-1.809,0.571-2.641,1.087l-0.729,0.452l-2.078-2.097
			c-0.072-0.072-0.156-0.083-0.2-0.083l0,0c-0.049,0-0.122,0.014-0.185,0.077l-1.121,1.108c-0.069,0.067-0.081,0.15-0.081,0.193
			c0,0.052,0.014,0.127,0.079,0.193l2.079,2.105l-0.463,0.726c-0.525,0.823-0.903,1.723-1.122,2.673l-0.194,0.841l-2.956-0.012
			c-0.036,0.003-0.157,0.041-0.192,0.076c-0.038,0.036-0.081,0.1-0.081,0.197l-0.01,1.574c-0.001,0.149,0.124,0.274,0.278,0.275
			l2.945,0.007l0.188,0.839c0.218,0.962,0.59,1.863,1.106,2.679l0.463,0.731l-2.104,2.096c-0.094,0.093-0.09,0.297,0.001,0.388
			l1.101,1.109c0.068,0.07,0.145,0.084,0.197,0.084c-0.016,0.016,0.125-0.012,0.19-0.079L58.012,95.606z M63.345,94.198
			c-2.967,0-5.38-2.415-5.38-5.381c0-2.961,2.414-5.37,5.38-5.37c2.963,0,5.375,2.409,5.375,5.37
			C68.72,91.783,66.308,94.198,63.345,94.198z M63.345,85.605c-1.776,0-3.221,1.44-3.221,3.211c0,1.776,1.444,3.223,3.221,3.223
			c1.773,0,3.216-1.446,3.216-3.223C66.561,87.045,65.118,85.605,63.345,85.605z"/>
	</g>
	<g id="XMLID_780_">
		<path id="XMLID_785_" fill="#19B5FE" d="M63.343,109.823c-5.692,0-11.043-2.215-15.068-6.24
			c-4.025-4.023-6.242-9.375-6.242-15.066h5.024c0,4.35,1.694,8.439,4.771,11.515c3.075,3.075,7.166,4.77,11.515,4.77
			c4.35,0,8.439-1.695,11.516-4.77l3.552,3.551C74.386,107.608,69.033,109.823,63.343,109.823z"/>
	</g>
	<g id="XMLID_782_">
		<path id="XMLID_784_" fill="#FFFFFF" d="M79.787,102.068l-3.875-3.198c2.397-2.904,3.716-6.581,3.716-10.354
			c0-4.35-1.694-8.439-4.77-11.515l3.552-3.553c4.025,4.024,6.242,9.376,6.242,15.068C84.652,93.454,82.925,98.267,79.787,102.068z"
			/>
	</g>
	<g id="XMLID_781_">
		<path id="XMLID_783_" fill="#58595B" d="M47.165,86.627l-4.991-0.575c0.546-4.742,2.713-9.218,6.1-12.604
			c4.025-4.024,9.375-6.242,15.068-6.242c4.951,0,9.773,1.737,13.581,4.888l-3.205,3.871c-2.906-2.407-6.592-3.734-10.375-3.734
			c-4.349,0-8.439,1.694-11.515,4.77C49.239,79.588,47.583,83.008,47.165,86.627z"/>
	</g>
	<g id="XMLID_790_">
		<path fill="#414042" d="M63.343,114.888c-3.518,0-6.932-0.688-10.147-2.048c-3.106-1.313-5.895-3.193-8.285-5.586
			c-2.396-2.395-4.274-5.182-5.587-8.287c-1.36-3.214-2.05-6.627-2.05-10.147h2.159c0,3.229,0.632,6.36,1.879,9.306
			c1.202,2.848,2.928,5.405,5.124,7.602c2.194,2.195,4.751,3.919,7.601,5.125c5.896,2.493,12.717,2.493,18.612,0
			c2.848-1.206,5.405-2.93,7.601-5.125l1.526,1.525c-2.395,2.394-5.181,4.272-8.287,5.586
			C70.274,114.2,66.86,114.888,63.343,114.888z"/>
	</g>
	<g id="XMLID_788_">
		<path fill="#414042" d="M85.744,109.323l-1.549-1.504c0.328-0.339,0.64-0.677,0.933-1.016l1.63,1.414
			C86.439,108.586,86.101,108.956,85.744,109.323z M87.712,107.056l-1.713-1.313c0.281-0.365,0.545-0.736,0.798-1.113l1.794,1.201
			C88.312,106.245,88.02,106.653,87.712,107.056z M89.387,104.556l-1.864-1.091c0.23-0.393,0.45-0.793,0.665-1.21l1.919,0.99
			C89.876,103.694,89.636,104.129,89.387,104.556z M90.757,101.907l-1.96-0.904c0.179-0.39,0.356-0.79,0.531-1.205l2.024,0.758
			l-0.04,0.093C91.132,101.076,90.947,101.499,90.757,101.907z M91.894,99.166l-2.029-0.735c0.156-0.433,0.304-0.872,0.439-1.314
			l2.063,0.634C92.221,98.227,92.064,98.698,91.894,99.166z M92.771,96.313l-2.093-0.53c0.113-0.446,0.216-0.896,0.308-1.352
			l2.117,0.426C93.004,95.347,92.893,95.833,92.771,96.313z M93.36,93.39l-2.133-0.323c0.068-0.456,0.125-0.914,0.172-1.376
			l2.148,0.218C93.497,92.406,93.434,92.899,93.36,93.39z M93.661,90.421l-2.156-0.114c0.024-0.459,0.037-0.921,0.039-1.385
			l2.159,0.005C93.7,89.429,93.687,89.927,93.661,90.421z M35.141,88.822h-2.159c0-0.5,0.013-0.997,0.037-1.491l2.156,0.105
			C35.153,87.895,35.141,88.357,35.141,88.822z M91.516,87.538c-0.022-0.466-0.055-0.928-0.097-1.386l2.149-0.201
			c0.046,0.492,0.08,0.988,0.104,1.486L91.516,87.538z M35.275,86.052l-2.149-0.208c0.049-0.498,0.109-0.991,0.181-1.482
			l2.137,0.314C35.376,85.131,35.32,85.589,35.275,86.052z M91.256,84.775c-0.065-0.459-0.144-0.914-0.23-1.364l2.12-0.414
			c0.094,0.486,0.177,0.978,0.249,1.473L91.256,84.775z M35.679,83.311l-2.118-0.419c0.097-0.49,0.207-0.975,0.326-1.457
			l2.094,0.522C35.87,82.405,35.769,82.856,35.679,83.311z M90.727,82.058c-0.11-0.45-0.233-0.896-0.365-1.337l2.069-0.619
			c0.142,0.475,0.272,0.955,0.393,1.439L90.727,82.058z M36.351,80.625l-2.066-0.628c0.145-0.478,0.301-0.949,0.469-1.417
			l2.032,0.728C36.63,79.742,36.485,80.181,36.351,80.625z M89.933,79.403c-0.154-0.436-0.32-0.868-0.495-1.295l1.997-0.821
			c0.188,0.459,0.366,0.923,0.533,1.394L89.933,79.403z M37.285,78.017l-1.993-0.831l0.079-0.187
			c0.166-0.393,0.343-0.787,0.526-1.175l1.951,0.926c-0.172,0.36-0.335,0.726-0.492,1.095L37.285,78.017z M88.881,76.841
			c-0.197-0.418-0.405-0.833-0.621-1.24l1.906-1.013c0.233,0.438,0.456,0.884,0.668,1.334L88.881,76.841z M38.472,75.513
			l-1.902-1.02c0.236-0.44,0.481-0.873,0.738-1.299l1.849,1.115C38.92,74.704,38.691,75.105,38.472,75.513z M87.579,74.395
			c-0.237-0.396-0.483-0.789-0.739-1.173l1.797-1.196c0.275,0.414,0.54,0.835,0.796,1.261L87.579,74.395z M39.901,73.138
			l-1.793-1.201c0.277-0.414,0.563-0.821,0.862-1.22l1.729,1.291C40.425,72.377,40.159,72.755,39.901,73.138z M86.044,72.086
			c-0.274-0.372-0.558-0.737-0.85-1.094l1.671-1.367c0.314,0.385,0.621,0.778,0.916,1.179L86.044,72.086z M41.555,70.915
			l-1.667-1.371c0.316-0.384,0.642-0.76,0.976-1.128l1.599,1.45C42.152,70.208,41.849,70.557,41.555,70.915z M84.292,69.941
			c-0.31-0.343-0.629-0.68-0.955-1.007l1.532-1.522c0.35,0.353,0.691,0.714,1.026,1.082L84.292,69.941z M43.419,68.863l-1.524-1.528
			c0.351-0.351,0.71-0.692,1.079-1.028l1.453,1.598C44.082,68.217,43.746,68.536,43.419,68.863z M82.336,67.976
			c-0.342-0.312-0.69-0.615-1.047-0.909l1.375-1.665c0.383,0.317,0.76,0.644,1.127,0.979L82.336,67.976z M45.474,67.003l-1.37-1.67
			c0.385-0.316,0.776-0.621,1.177-0.917l1.286,1.734C46.196,66.425,45.832,66.709,45.474,67.003z M80.197,66.21
			c-0.368-0.275-0.745-0.543-1.128-0.801l1.205-1.792c0.413,0.278,0.82,0.566,1.219,0.865L80.197,66.21z M47.701,65.352
			l-1.199-1.795c0.413-0.276,0.833-0.542,1.261-0.798l1.108,1.852C48.475,64.849,48.085,65.096,47.701,65.352z M77.9,64.664
			c-0.395-0.239-0.796-0.469-1.203-0.688l1.022-1.901c0.439,0.237,0.872,0.483,1.298,0.741L77.9,64.664z M50.078,63.928
			l-1.018-1.904c0.439-0.235,0.883-0.458,1.334-0.671l0.921,1.952C50.898,63.502,50.485,63.711,50.078,63.928z M75.46,63.35
			c-0.375-0.18-0.757-0.351-1.142-0.514l0.292-1.049l0.423-0.992l-0.423,0.992l0.537-0.944c0.427,0.18,0.836,0.365,1.242,0.557
			L75.46,63.35z M52.582,62.745l-0.823-1.996c0.458-0.189,0.922-0.367,1.393-0.536l0.726,2.034
			C53.441,62.402,53.01,62.569,52.582,62.745z M72.904,62.282c-0.433-0.156-0.872-0.302-1.315-0.438l0.63-2.064
			c0.478,0.145,0.95,0.303,1.417,0.472L72.904,62.282z M55.191,61.817L54.57,59.75c0.475-0.143,0.953-0.275,1.438-0.395l0.521,2.096
			C56.077,61.562,55.632,61.684,55.191,61.817z M70.253,61.473c-0.446-0.113-0.896-0.215-1.349-0.305l0.421-2.116
			c0.491,0.097,0.978,0.207,1.458,0.328L70.253,61.473z M57.881,61.149l-0.416-2.119c0.487-0.095,0.976-0.179,1.471-0.251
			l0.313,2.137C58.788,60.982,58.332,61.061,57.881,61.149z M67.537,60.931c-0.455-0.068-0.914-0.124-1.376-0.171l0.213-2.148
			c0.498,0.049,0.991,0.111,1.48,0.184L67.537,60.931z M60.624,60.75l-0.207-2.149c0.492-0.047,0.988-0.082,1.486-0.106l0.105,2.156
			C61.544,60.674,61.083,60.706,60.624,60.75z M64.777,60.657c-0.459-0.024-0.92-0.037-1.384-0.037l0.002-2.158
			c0.5,0,0.998,0.014,1.492,0.04L64.777,60.657z"/>
	</g>
</g>
<g>
	<path id="XMLID_43_" fill="#808080" d="M303.745,82.158v7.75c0,2.378-1.945,4.323-4.322,4.323l0,0
		c-2.377,0-4.322-1.945-4.322-4.323v-7.75H303.745z"/>
	<g id="XMLID_129_">
		<path fill="#414042" d="M299.423,95.31c-2.98,0-5.402-2.423-5.402-5.403v-8.829h10.805v8.829
			C304.823,92.887,302.401,95.31,299.423,95.31z M296.177,83.237v6.67c0,1.789,1.455,3.245,3.246,3.245
			c1.789,0,3.244-1.456,3.244-3.245v-6.67H296.177z"/>
	</g>
	<circle id="XMLID_148_" fill="#FFFFFF" cx="299.599" cy="59.223" r="15.659"/>
	<rect id="XMLID_147_" x="292.032" y="63.602" fill="#FFFFFF" width="15.135" height="17.213"/>
	<g>
		<path fill="#414042" d="M308.247,80.815h-2.158v-8.521l0.557-0.308c4.646-2.572,7.535-7.462,7.535-12.763
			c0-8.038-6.539-14.58-14.582-14.58c-8.039,0-14.58,6.542-14.58,14.58c0,5.3,2.889,10.191,7.535,12.763l0.557,0.308v8.521h-2.158
			v-7.262c-5.006-3.026-8.09-8.459-8.09-14.33c0-9.229,7.51-16.738,16.736-16.738c9.232,0,16.742,7.509,16.742,16.738
			c0,5.871-3.086,11.304-8.094,14.33V80.815L308.247,80.815z"/>
	</g>
	<rect id="XMLID_141_" x="291.929" y="80.006" fill="#E6E7E8" width="15.484" height="4.257"/>
	<g id="XMLID_127_">
		<path fill="#414042" d="M308.493,85.343h-17.643v-6.417h17.643V85.343z M293.009,83.184h13.324v-2.099h-13.324V83.184z"/>
	</g>
	<g id="XMLID_139_">
		<rect x="295.569" y="85.658" fill="#414042" width="4.885" height="2.159"/>
	</g>
	<g id="XMLID_45_">
		<g id="XMLID_123_">
			<rect x="298.06" y="35.523" fill="#414042" width="2.156" height="5.941"/>
		</g>
		<g id="XMLID_122_">
			
				<rect x="303.433" y="36.125" transform="matrix(-0.9662 -0.2578 0.2578 -0.9662 588.6498 155.3816)" fill="#414042" width="2.159" height="5.94"/>
		</g>
		<g id="XMLID_121_">
			
				<rect x="308.455" y="38.113" transform="matrix(-0.8669 -0.4984 0.4984 -0.8669 557.4068 230.9753)" fill="#414042" width="2.158" height="5.942"/>
		</g>
		<g id="XMLID_112_">
			
				<rect x="312.792" y="41.301" transform="matrix(-0.7086 -0.7056 0.7056 -0.7086 505.0327 297.1204)" fill="#414042" width="2.158" height="5.941"/>
		</g>
		<g id="XMLID_110_">
			
				<rect x="316.166" y="45.523" transform="matrix(-0.5023 -0.8647 0.8647 -0.5023 434.6549 347.1741)" fill="#414042" width="2.158" height="5.939"/>
		</g>
		<g id="XMLID_46_">
			
				<rect x="318.369" y="50.491" transform="matrix(-0.259 -0.9659 0.9659 -0.259 350.5343 375.8546)" fill="#414042" width="2.157" height="5.939"/>
		</g>
		<g id="XMLID_51_">
			<rect x="317.296" y="57.739" fill="#414042" width="5.941" height="2.159"/>
		</g>
		<g id="XMLID_52_">
			
				<rect x="316.711" y="63.125" transform="matrix(-0.9654 -0.2608 0.2608 -0.9654 611.561 209.5439)" fill="#414042" width="5.94" height="2.158"/>
		</g>
		<g id="XMLID_53_">
			
				<rect x="314.725" y="68.178" transform="matrix(-0.8642 -0.5032 0.5032 -0.8642 557.3872 288.9692)" fill="#414042" width="5.94" height="2.158"/>
		</g>
		<g id="XMLID_54_">
			
				<rect x="311.502" y="72.555" transform="matrix(-0.7035 -0.7107 0.7107 -0.7035 483.3653 348.935)" fill="#414042" width="5.941" height="2.158"/>
		</g>
		<g id="XMLID_124_">
			
				<rect x="307.256" y="75.942" transform="matrix(-0.4942 -0.8694 0.8694 -0.4942 396.5765 384.7816)" fill="#414042" width="5.94" height="2.159"/>
		</g>
		<g id="XMLID_131_">
			
				<rect x="288.377" y="74.313" transform="matrix(-0.8596 -0.511 0.511 -0.8596 498.7753 291.627)" fill="#414042" width="2.159" height="5.942"/>
		</g>
		<g id="XMLID_106_">
			
				<rect x="284.158" y="71.272" transform="matrix(-0.7137 -0.7004 0.7004 -0.7137 436.825 327.0136)" fill="#414042" width="2.159" height="5.941"/>
		</g>
		<g id="XMLID_105_">
			
				<rect x="280.757" y="67.089" transform="matrix(-0.509 -0.8607 0.8607 -0.509 364.9973 348.3135)" fill="#414042" width="2.16" height="5.943"/>
		</g>
		<g id="XMLID_75_">
			
				<rect x="278.553" y="62.171" transform="matrix(-0.2696 -0.963 0.963 -0.2696 292.2859 351.983)" fill="#414042" width="2.159" height="5.941"/>
		</g>
		<g id="XMLID_59_">
			
				<rect x="277.709" y="56.824" transform="matrix(-0.0108 -0.9999 0.9999 -0.0108 222.0231 339.2156)" fill="#414042" width="2.16" height="5.94"/>
		</g>
		<g id="XMLID_58_">
			
				<rect x="276.361" y="53.365" transform="matrix(-0.9689 -0.2474 0.2474 -0.9689 536.5064 176.3031)" fill="#414042" width="5.939" height="2.158"/>
		</g>
		<g id="XMLID_430_">
			
				<rect x="278.276" y="48.299" transform="matrix(-0.8721 -0.4894 0.4894 -0.8721 502.3516 230.0735)" fill="#414042" width="5.942" height="2.159"/>
		</g>
		<g id="XMLID_57_">
			
				<rect x="281.44" y="43.934" transform="matrix(-0.7164 -0.6977 0.6977 -0.7164 456.7632 275.6894)" fill="#414042" width="5.943" height="2.158"/>
		</g>
		<g id="XMLID_56_">
			
				<rect x="285.619" y="40.531" transform="matrix(-0.5118 -0.8591 0.8591 -0.5118 400.5562 310.8308)" fill="#414042" width="5.941" height="2.16"/>
		</g>
		<g id="XMLID_55_">
			
				<rect x="290.523" y="38.284" transform="matrix(-0.2725 -0.9621 0.9621 -0.2725 335.6122 332.4728)" fill="#414042" width="5.941" height="2.158"/>
		</g>
	</g>
	<g id="XMLID_138_">
		<rect x="298.921" y="88.802" fill="#414042" width="4.885" height="2.159"/>
	</g>
</g>
<g>
	<circle fill="#FFFFFF" cx="151.146" cy="36.11" r="4.108"/>
	<g>
		<path fill="#414042" d="M151.146,41.294c-1.329,0-2.657-0.505-3.668-1.516c-0.979-0.98-1.52-2.283-1.52-3.668
			c0-1.385,0.54-2.688,1.52-3.667c2.022-2.023,5.312-2.023,7.335,0c0.98,0.979,1.519,2.282,1.519,3.667
			c0,1.385-0.539,2.688-1.519,3.668C153.802,40.788,152.474,41.294,151.146,41.294z M151.146,33.083
			c-0.775,0-1.551,0.295-2.143,0.886c-0.571,0.572-0.887,1.332-0.887,2.141s0.315,1.569,0.887,2.141c1.181,1.18,3.103,1.179,4.283,0
			c0.572-0.572,0.887-1.332,0.887-2.141s-0.315-1.569-0.887-2.141l0,0C152.697,33.378,151.921,33.083,151.146,33.083z"/>
	</g>
	<circle fill="#19B5FE" cx="167.934" cy="19.322" r="4.107"/>
	<g>
		<path fill="#414042" d="M167.934,24.505c-1.329,0-2.656-0.505-3.667-1.517c-0.98-0.98-1.52-2.283-1.52-3.667
			c0-1.386,0.54-2.689,1.52-3.668c1.958-1.958,5.375-1.96,7.334,0c0.98,0.98,1.52,2.282,1.52,3.668c0,1.384-0.539,2.687-1.52,3.667
			C170.591,24,169.262,24.505,167.934,24.505z M167.934,16.293c-0.808,0-1.569,0.315-2.141,0.887
			c-0.573,0.572-0.887,1.333-0.887,2.142c0,0.809,0.314,1.568,0.887,2.14c1.18,1.181,3.102,1.181,4.282,0
			c0.572-0.572,0.886-1.332,0.886-2.14c0-0.809-0.314-1.57-0.886-2.142l0,0C169.503,16.608,168.743,16.293,167.934,16.293z"/>
	</g>
	<g>
		
			<rect x="158.468" y="20.351" transform="matrix(-0.7071 -0.7071 0.7071 -0.7071 252.7755 160.1122)" fill="#414042" width="2.159" height="14.708"/>
	</g>
	<circle fill="#FFFFFF" cx="184.345" cy="36.11" r="4.107"/>
	<g>
		<path fill="#414042" d="M184.345,41.294c-1.329,0-2.657-0.505-3.668-1.516c-0.979-0.98-1.519-2.283-1.519-3.668
			c0-1.385,0.54-2.688,1.519-3.667c1.958-1.959,5.375-1.96,7.335,0c0.98,0.979,1.52,2.282,1.52,3.667c0,1.385-0.54,2.688-1.52,3.668
			C187.002,40.789,185.672,41.294,184.345,41.294z M184.345,33.082c-0.809,0-1.569,0.314-2.142,0.887
			c-0.572,0.572-0.887,1.332-0.887,2.141s0.315,1.569,0.887,2.141c1.18,1.18,3.101,1.181,4.282,0
			c0.572-0.572,0.887-1.332,0.887-2.141s-0.315-1.569-0.887-2.141l0,0C185.914,33.396,185.155,33.082,184.345,33.082z"/>
	</g>
	<circle fill="#F6B933" cx="201.134" cy="19.322" r="4.107"/>
	<g>
		<path fill="#414042" d="M201.134,24.505c-1.329,0-2.657-0.505-3.667-1.517c-0.98-0.98-1.52-2.283-1.52-3.667
			c0-1.386,0.54-2.689,1.52-3.668c1.957-1.958,5.375-1.96,7.334,0c2.021,2.021,2.021,5.312,0,7.335
			C203.79,24,202.462,24.505,201.134,24.505z M201.135,16.293c-0.81,0-1.57,0.315-2.142,0.887c-0.573,0.572-0.887,1.333-0.887,2.142
			c0,0.809,0.314,1.568,0.887,2.14c1.18,1.181,3.101,1.181,4.282,0c1.18-1.18,1.181-3.102,0-4.282
			C202.703,16.608,201.943,16.293,201.135,16.293z"/>
	</g>
	<g>
		
			<rect x="191.671" y="20.349" transform="matrix(-0.707 -0.7072 0.7072 -0.707 309.4308 183.6047)" fill="#414042" width="2.158" height="14.708"/>
	</g>
	<g>
		
			<rect x="169.114" y="26.621" transform="matrix(-0.7071 -0.7071 0.7071 -0.7071 281.6656 172.0653)" fill="#414042" width="14.708" height="2.158"/>
	</g>
</g>
<g id="XMLID_133_">
	<g id="XMLID_135_">
		<rect x="240.807" y="35.153" fill="#414042" width="7.264" height="2.159"/>
	</g>
	<g id="XMLID_134_">
		<rect x="243.36" y="32.6" fill="#414042" width="2.157" height="7.266"/>
	</g>
</g>
<g id="XMLID_132_">
	<rect x="194.381" y="35.153" fill="#414042" width="37.626" height="2.159"/>
</g>
<g id="XMLID_130_">
	<rect x="234.72" y="35.153" fill="#414042" width="3.224" height="2.159"/>
</g>
<g id="XMLID_225_">
	<g id="XMLID_227_">
		<rect x="229.14" y="18.242" fill="#414042" width="7.265" height="2.159"/>
	</g>
	<g id="XMLID_226_">
		<rect x="231.694" y="15.688" fill="#414042" width="2.159" height="7.266"/>
	</g>
</g>
<g id="XMLID_224_">
	<rect x="245.206" y="18.242" fill="#414042" width="37.625" height="2.159"/>
</g>
<g id="XMLID_223_">
	<rect x="239.269" y="18.242" fill="#414042" width="3.223" height="2.159"/>
</g>
<g id="XMLID_230_">
	<g id="XMLID_235_">
		<rect x="410.948" y="43.628" fill="#414042" width="7.264" height="2.159"/>
	</g>
	<g id="XMLID_233_">
		<rect x="413.503" y="41.075" fill="#414042" width="2.158" height="7.266"/>
	</g>
</g>
<g id="XMLID_229_">
	<rect x="427.013" y="43.628" fill="#414042" width="37.625" height="2.159"/>
</g>
<g id="XMLID_228_">
	<rect x="421.075" y="43.628" fill="#414042" width="3.225" height="2.159"/>
</g>
<g id="XMLID_196_">
	<g id="XMLID_201_">
		<rect x="57.084" y="125.073" fill="#414042" width="7.264" height="2.158"/>
	</g>
	<g id="XMLID_200_">
		<rect x="59.636" y="122.521" fill="#414042" width="2.159" height="7.263"/>
	</g>
</g>
<g id="XMLID_195_">
	<rect x="10.658" y="125.073" fill="#414042" width="37.625" height="2.158"/>
</g>
<g id="XMLID_193_">
	<rect x="50.996" y="125.073" fill="#414042" width="3.224" height="2.158"/>
</g>
<g id="XMLID_186_">
	<g id="XMLID_192_">
		<rect x="446.778" y="70.441" fill="#414042" width="7.266" height="2.159"/>
	</g>
	<g id="XMLID_189_">
		<rect x="449.331" y="67.888" fill="#414042" width="2.158" height="7.265"/>
	</g>
</g>
<g id="XMLID_184_">
	<rect x="400.353" y="70.441" fill="#414042" width="37.625" height="2.159"/>
</g>
<g id="XMLID_175_">
	<rect x="440.69" y="70.441" fill="#414042" width="3.225" height="2.159"/>
</g>
<g id="XMLID_142_">
	<g id="XMLID_149_">
		<rect x="258.042" y="71.051" fill="#414042" width="7.268" height="2.158"/>
	</g>
	<g id="XMLID_143_">
		<rect x="260.595" y="68.499" fill="#414042" width="2.16" height="7.264"/>
	</g>
</g>
<g id="XMLID_136_">
	<rect x="251.958" y="71.051" fill="#414042" width="3.225" height="2.158"/>
</g>
<g id="XMLID_171_">
	<rect x="236.686" y="71.051" fill="#414042" width="13.143" height="2.158"/>
</g>
<g id="XMLID_220_">
	<g id="XMLID_222_">
		<rect x="357.261" y="21.427" fill="#414042" width="7.264" height="2.159"/>
	</g>
	<g id="XMLID_221_">
		<rect x="359.812" y="18.874" fill="#414042" width="2.158" height="7.265"/>
	</g>
</g>
<g id="XMLID_219_">
	<rect x="351.173" y="21.427" fill="#414042" width="3.223" height="2.159"/>
</g>
<g id="XMLID_218_">
	<rect x="335.901" y="21.427" fill="#414042" width="13.145" height="2.159"/>
</g>
<g id="XMLID_214_">
	<g id="XMLID_217_">
		<rect x="477.526" y="152.39" fill="#414042" width="7.264" height="2.157"/>
	</g>
	<g id="XMLID_215_">
		<rect x="480.079" y="149.836" fill="#414042" width="2.158" height="7.265"/>
	</g>
</g>
<g id="XMLID_211_">
	<rect x="471.438" y="152.39" fill="#414042" width="3.225" height="2.157"/>
</g>
<g id="XMLID_208_">
	<rect x="456.167" y="152.39" fill="#414042" width="13.145" height="2.157"/>
</g>
<g id="XMLID_204_">
	<g id="XMLID_206_">
		<rect x="100.947" y="39.996" fill="#414042" width="7.265" height="2.158"/>
	</g>
	<g id="XMLID_205_">
		<rect x="103.498" y="37.443" fill="#414042" width="2.159" height="7.265"/>
	</g>
</g>
<g id="XMLID_203_">
	<rect x="94.86" y="39.996" fill="#414042" width="3.223" height="2.158"/>
</g>
<g id="XMLID_202_">
	<rect x="79.589" y="39.996" fill="#414042" width="13.145" height="2.158"/>
</g>
</svg>
