<?xml version="1.0" encoding="utf-8"?>
<!-- Generator: Adobe Illustrator 15.0.0, SVG Export Plug-In . SVG Version: 6.00 Build 0)  -->
<!DOCTYPE svg PUBLIC "-//W3C//DTD SVG 1.1//EN" "http://www.w3.org/Graphics/SVG/1.1/DTD/svg11.dtd">
<svg version="1.1" id="Layer_1" xmlns="http://www.w3.org/2000/svg" xmlns:xlink="http://www.w3.org/1999/xlink" x="0px" y="0px"
	 width="163.664px" height="119.279px" viewBox="0 0 163.664 119.279" enable-background="new 0 0 163.664 119.279"
	 xml:space="preserve">
<g>
	<g>
		<rect x="29.331" y="30.964" fill="#F5AB35" width="104.348" height="10.396"/>
	</g>
	<g>
		<g>
			<path fill="#344154" d="M133.679,112.526c-10.489,0-19.021-8.531-19.021-19.02c0-10.486,8.532-19.016,19.021-19.016
				c10.484,0,19.016,8.529,19.016,19.016C152.694,103.995,144.163,112.526,133.679,112.526z M133.679,77.219
				c-8.985,0-16.294,7.308-16.294,16.288c0,8.983,7.309,16.292,16.294,16.292c8.982,0,16.29-7.309,16.29-16.292
				C149.969,84.526,142.661,77.219,133.679,77.219z"/>
		</g>
		<g>
			<g>
				<path fill="#F5AB35" d="M132.295,101.775l-7.096-6.329c-0.562-0.5-0.611-1.361-0.11-1.924c0.498-0.564,1.361-0.615,1.926-0.111
					l4.972,4.433l8.865-10.841c0.479-0.584,1.336-0.67,1.919-0.193c0.584,0.477,0.668,1.336,0.192,1.92L132.295,101.775z"/>
			</g>
		</g>
	</g>
	<g>
		<path fill="#344154" d="M116.022,94.872H31.27c-1.821,0-3.303-1.483-3.303-3.305v-81.43c0-1.821,1.482-3.303,3.303-3.303h100.467
			c1.822,0,3.304,1.482,3.304,3.303v65.715h-2.728V10.137c0-0.318-0.257-0.576-0.576-0.576H31.27c-0.317,0-0.575,0.258-0.575,0.576
			v81.43c0,0.318,0.257,0.576,0.575,0.576h84.752V94.872z"/>
	</g>
	<g>
		<path fill="#344154" d="M65.383,22.071c-1.435,0-2.602-1.167-2.602-2.603c0-1.434,1.167-2.601,2.602-2.601
			c1.434,0,2.602,1.167,2.602,2.601C67.985,20.903,66.817,22.071,65.383,22.071z M65.383,19.342c-0.07,0-0.126,0.057-0.126,0.126
			c0,0.14,0.252,0.14,0.252,0C65.509,19.399,65.453,19.342,65.383,19.342z"/>
	</g>
	<g>
		<path fill="#344154" d="M53.879,22.183c-1.435,0-2.602-1.167-2.602-2.603c0-1.434,1.167-2.601,2.602-2.601
			c1.435,0,2.602,1.167,2.602,2.601C56.481,21.016,55.313,22.183,53.879,22.183z M53.879,19.455c-0.07,0-0.126,0.057-0.126,0.125
			c0,0.14,0.253,0.14,0.253,0C54.005,19.512,53.949,19.455,53.879,19.455z"/>
	</g>
	<g>
		<path fill="#344154" d="M42.375,22.294c-1.436,0-2.602-1.167-2.602-2.602c0-1.434,1.167-2.602,2.602-2.602
			c1.434,0,2.601,1.167,2.601,2.602C44.976,21.127,43.809,22.294,42.375,22.294z M42.375,19.567c-0.07,0-0.127,0.056-0.127,0.125
			c0,0.139,0.252,0.139,0.252,0C42.5,19.624,42.444,19.567,42.375,19.567z"/>
	</g>
	<g>
		<rect x="29.331" y="29.6" fill="#344154" width="104.348" height="2.728"/>
	</g>
	<g>
		<path fill="#344154" d="M123.609,20.945H82.041c-0.753,0-1.364-0.611-1.364-1.365c0-0.753,0.61-1.363,1.364-1.363h41.568
			c0.752,0,1.363,0.61,1.363,1.363C124.973,20.334,124.361,20.945,123.609,20.945z"/>
	</g>
	<g>
		<g>
			<path fill="#F5AB35" d="M60.466,66.187h0.084l2.674-13.319h3.011l-4.227,18.737h-2.645l-3.591-13.292h-0.084l-3.606,13.292
				h-2.643L45.21,52.867h3.025l2.687,13.294h0.085l3.463-13.294h2.503L60.466,66.187z"/>
		</g>
		<g>
			<path fill="#F5AB35" d="M86.248,66.187h0.085l2.671-13.319h3.012l-4.228,18.737h-2.644l-3.591-13.292h-0.085l-3.604,13.292
				h-2.645l-4.227-18.737h3.026l2.686,13.294h0.085l3.463-13.294h2.502L86.248,66.187z"/>
		</g>
		<g>
			<path fill="#F5AB35" d="M112.028,66.187h0.086l2.67-13.319h3.013l-4.227,18.737h-2.645l-3.592-13.292h-0.084l-3.605,13.292H101
				l-4.228-18.737H99.8l2.686,13.294h0.084l3.464-13.294h2.504L112.028,66.187z"/>
		</g>
	</g>
</g>
</svg>
