<?xml version="1.0" encoding="utf-8"?>
<!-- Generator: Adobe Illustrator 15.0.0, SVG Export Plug-In . SVG Version: 6.00 Build 0)  -->
<!DOCTYPE svg PUBLIC "-//W3C//DTD SVG 1.1//EN" "http://www.w3.org/Graphics/SVG/1.1/DTD/svg11.dtd">
<svg version="1.1" id="Layer_1" xmlns="http://www.w3.org/2000/svg" xmlns:xlink="http://www.w3.org/1999/xlink" x="0px" y="0px"
	 width="100px" height="100px" viewBox="0 0 100 100" enable-background="new 0 0 100 100" xml:space="preserve">
<g>
	<g>
		<g>
			<path fill="#F5AB35" d="M41.077,16.074c0.896,0.332,4.095,1.371,9.125,1.371c5.031,0,8.23-1.039,9.128-1.371
				c-2.082-4.863-5.027-9.642-9.128-14.043C46.102,6.432,43.157,11.211,41.077,16.074z"/>
		</g>
	</g>
	<g>
		<circle fill="#8AA0B2" cx="50.203" cy="36.282" r="4.098"/>
	</g>
	<g>
		<path fill="#F5AB35" d="M86.731,84.074c0.022-0.182,0.038-0.365,0.038-0.555c0-2.41-1.954-4.363-4.365-4.363
			c-0.388,0-0.762,0.054-1.12,0.15c0.001-0.023,0.006-0.045,0.006-0.067c0-2.365-1.918-4.283-4.284-4.283
			c-1.299,0-2.461,0.58-3.246,1.494C72.832,74.98,71.198,74,69.33,74c-0.159,0-0.316,0.008-0.472,0.023
			c-0.075,1.098-0.312,2.194-0.727,3.253c-1.588,4.043-4.08,9.597-7.679,15.604c1.284,3.026,4.277,5.148,7.773,5.148
			c1.858,0,3.572-0.604,4.966-1.623c0.801,0.989,2.021,1.623,3.395,1.623c1.475,0,2.774-0.734,3.566-1.853
			c1.26,1.147,2.931,1.853,4.77,1.853c3.918,0,7.097-3.178,7.097-7.097C92.02,87.638,89.773,84.876,86.731,84.074z"/>
	</g>
	<g>
		<path fill="#F5AB35" d="M32.326,77.276c-0.415-1.056-0.65-2.15-0.726-3.247C31.426,74.013,31.252,74,31.075,74
			c-1.867,0-3.501,0.98-4.43,2.45c-0.785-0.914-1.947-1.494-3.246-1.494c-2.366,0-4.283,1.918-4.283,4.283
			c0,0.022,0.005,0.044,0.005,0.067c-0.358-0.097-0.732-0.15-1.119-0.15c-2.411,0-4.366,1.953-4.366,4.363
			c0,0.189,0.016,0.373,0.04,0.555c-3.042,0.802-5.29,3.563-5.29,6.857c0,3.919,3.177,7.097,7.097,7.097
			c1.84,0,3.509-0.705,4.771-1.853c0.79,1.118,2.091,1.853,3.565,1.853c1.373,0,2.595-0.634,3.395-1.623
			c1.394,1.019,3.108,1.623,4.967,1.623c3.515,0,6.521-2.148,7.793-5.203C36.391,86.841,33.91,81.309,32.326,77.276z"/>
	</g>
	<g>
		<path fill="#344154" d="M43.182,100.106l-2.704-4.242c-4.534-7.11-7.526-13.801-9.238-18.161
			c-1.692-4.309-0.816-9.131,2.284-12.584l6.31-7.032l6.313,15.639l-1.187,0.389l-0.484-1.061l0.391,1.092
			c-2.601,0.932-4.197,3.535-3.884,6.335L43.182,100.106z M39.071,62.432l-3.81,4.246c-2.507,2.793-3.215,6.689-1.848,10.173
			c1.301,3.314,3.359,8.005,6.292,13.195l-1.042-9.306c-0.394-3.511,1.394-6.806,4.422-8.36L39.071,62.432z"/>
	</g>
	<g>
		<path fill="#344154" d="M50.202,100.338l-1.136-4.835c-4.863-20.694-0.176-35.628,0.025-36.254l1.111-3.442l1.11,3.442
			c0.203,0.625,4.892,15.56,0.025,36.254L50.202,100.338z M50.205,64.937c-0.867,5.084-1.671,13.716-0.002,24.253
			C51.878,78.639,51.072,70.016,50.205,64.937z"/>
	</g>
	<g>
		<path fill="#344154" d="M48.04,75.165c-0.256-0.013-2.551-0.163-4.09-1.188l1.295-1.942c0.858,0.571,2.435,0.774,2.92,0.801
			L48.04,75.165z"/>
	</g>
	<g>
		<path fill="#344154" d="M57.276,100.106l2.198-19.626c0.313-2.8-1.283-5.403-3.885-6.335l-1.186-0.388l0.373-1.19l5.846-14.48
			l6.312,7.032c3.101,3.453,3.975,8.275,2.283,12.584c-1.712,4.36-4.704,11.051-9.237,18.161L57.276,100.106z M57.369,72.386
			c3.047,1.577,4.817,4.858,4.425,8.354l-1.042,9.306c2.934-5.19,4.991-9.881,6.294-13.195c1.366-3.483,0.657-7.38-1.85-10.173
			l-3.811-4.246L57.369,72.386z"/>
	</g>
	<g>
		<path fill="#344154" d="M52.418,75.165l-0.124-2.33L52.356,74l-0.064-1.165c0.523-0.03,2.066-0.231,2.921-0.801l1.296,1.942
			C54.97,75.002,52.675,75.152,52.418,75.165z"/>
	</g>
	<g>
		<path fill="#344154" d="M38.343,60.622C38.228,60.27,27.095,25.121,49.348,1.235l0.854-0.917l0.854,0.917
			c6.683,7.172,11.022,16.026,12.899,26.319c0.104,0.469,2.67,12.544-0.008,24.775c-1.247,5.7-1.855,8.184-1.862,8.208l-2.267-0.558
			c0.007-0.024,0.609-2.485,1.849-8.148c2.57-11.739,0.026-23.701,0-23.82c-1.723-9.436-5.575-17.574-11.466-24.244
			c-20.162,22.842-9.749,55.794-9.64,56.129L38.343,60.622z"/>
	</g>
	<g>
		<path fill="#344154" d="M50.202,18.613c-6.156,0-9.708-1.508-9.856-1.572l0.928-2.142c0.029,0.012,3.298,1.379,8.928,1.379
			c5.678,0,8.897-1.366,8.928-1.379l0.929,2.142C59.91,17.105,56.359,18.613,50.202,18.613z"/>
	</g>
	<g>
		<path fill="#344154" d="M50.202,44.053c-4.284,0-7.77-3.486-7.77-7.771c0-4.284,3.485-7.77,7.77-7.77
			c4.285,0,7.771,3.486,7.771,7.77C57.973,40.567,54.487,44.053,50.202,44.053z M50.202,30.847c-2.997,0-5.435,2.438-5.435,5.436
			c0,2.998,2.438,5.437,5.435,5.437c2.998,0,5.437-2.439,5.437-5.437C55.639,33.285,53.2,30.847,50.202,30.847z"/>
	</g>
</g>
</svg>
